<svg xmlns="http://www.w3.org/2000/svg" xmlns:xlink="http://www.w3.org/1999/xlink" width="332" zoomAndPan="magnify" viewBox="0 0 249 363.749991" height="485" preserveAspectRatio="xMidYMid meet" version="1.0"><defs><filter x="0%" y="0%" width="100%" height="100%" id="bb22c1e3d2"><feColorMatrix values="0 0 0 0 1 0 0 0 0 1 0 0 0 0 1 0 0 0 1 0" color-interpolation-filters="sRGB"/></filter><clipPath id="06d9abb08e"><path d="M 21 173 L 124 173 L 124 253 L 21 253 Z M 21 173 " clip-rule="nonzero"/></clipPath><clipPath id="5efaeb2924"><path d="M 12.796875 261.863281 L 0.125 156.191406 L 111.003906 142.894531 L 123.675781 248.566406 Z M 12.796875 261.863281 " clip-rule="nonzero"/></clipPath><clipPath id="9102ca52f3"><path d="M 12.796875 261.863281 L 0.125 156.191406 L 111.003906 142.894531 L 123.675781 248.566406 Z M 12.796875 261.863281 " clip-rule="nonzero"/></clipPath><clipPath id="c82fcbdfb1"><path d="M 6 155 L 36 155 L 36 188 L 6 188 Z M 6 155 " clip-rule="nonzero"/></clipPath><clipPath id="6e7ff2dd2b"><path d="M 12.796875 261.863281 L 0.125 156.191406 L 111.003906 142.894531 L 123.675781 248.566406 Z M 12.796875 261.863281 " clip-rule="nonzero"/></clipPath><clipPath id="0b94cb2187"><path d="M 12.796875 261.863281 L 0.125 156.191406 L 111.003906 142.894531 L 123.675781 248.566406 Z M 12.796875 261.863281 " clip-rule="nonzero"/></clipPath><clipPath id="e2a8a35423"><path d="M 12 198 L 50 198 L 50 208 L 12 208 Z M 12 198 " clip-rule="nonzero"/></clipPath><clipPath id="c0311eed33"><path d="M 12.796875 261.863281 L 0.125 156.191406 L 111.003906 142.894531 L 123.675781 248.566406 Z M 12.796875 261.863281 " clip-rule="nonzero"/></clipPath><clipPath id="dbc26c60bb"><path d="M 12.796875 261.863281 L 0.125 156.191406 L 111.003906 142.894531 L 123.675781 248.566406 Z M 12.796875 261.863281 " clip-rule="nonzero"/></clipPath><clipPath id="64c9df1d0e"><path d="M 36 160 L 51 160 L 51 204 L 36 204 Z M 36 160 " clip-rule="nonzero"/></clipPath><clipPath id="412c5a2787"><path d="M 12.796875 261.863281 L 0.125 156.191406 L 111.003906 142.894531 L 123.675781 248.566406 Z M 12.796875 261.863281 " clip-rule="nonzero"/></clipPath><clipPath id="7e1265d4f8"><path d="M 12.796875 261.863281 L 0.125 156.191406 L 111.003906 142.894531 L 123.675781 248.566406 Z M 12.796875 261.863281 " clip-rule="nonzero"/></clipPath><clipPath id="f8b47b303e"><path d="M 27 215 L 66 215 L 66 227 L 27 227 Z M 27 215 " clip-rule="nonzero"/></clipPath><clipPath id="54893e35c1"><path d="M 12.796875 261.863281 L 0.125 156.191406 L 111.003906 142.894531 L 123.675781 248.566406 Z M 12.796875 261.863281 " clip-rule="nonzero"/></clipPath><clipPath id="8269808655"><path d="M 12.796875 261.863281 L 0.125 156.191406 L 111.003906 142.894531 L 123.675781 248.566406 Z M 12.796875 261.863281 " clip-rule="nonzero"/></clipPath><clipPath id="0cee0c3dcf"><path d="M 54 170 L 67 170 L 67 217 L 54 217 Z M 54 170 " clip-rule="nonzero"/></clipPath><clipPath id="2b35b2c232"><path d="M 12.796875 261.863281 L 0.125 156.191406 L 111.003906 142.894531 L 123.675781 248.566406 Z M 12.796875 261.863281 " clip-rule="nonzero"/></clipPath><clipPath id="c6ec1a117c"><path d="M 12.796875 261.863281 L 0.125 156.191406 L 111.003906 142.894531 L 123.675781 248.566406 Z M 12.796875 261.863281 " clip-rule="nonzero"/></clipPath><clipPath id="b9473faf46"><path d="M 44 226 L 82 226 L 82 244 L 44 244 Z M 44 226 " clip-rule="nonzero"/></clipPath><clipPath id="94f60b89dd"><path d="M 12.796875 261.863281 L 0.125 156.191406 L 111.003906 142.894531 L 123.675781 248.566406 Z M 12.796875 261.863281 " clip-rule="nonzero"/></clipPath><clipPath id="48ab0dd2c4"><path d="M 12.796875 261.863281 L 0.125 156.191406 L 111.003906 142.894531 L 123.675781 248.566406 Z M 12.796875 261.863281 " clip-rule="nonzero"/></clipPath><clipPath id="fe11e9e745"><path d="M 71 181 L 82 181 L 82 227 L 71 227 Z M 71 181 " clip-rule="nonzero"/></clipPath><clipPath id="32bf29defa"><path d="M 12.796875 261.863281 L 0.125 156.191406 L 111.003906 142.894531 L 123.675781 248.566406 Z M 12.796875 261.863281 " clip-rule="nonzero"/></clipPath><clipPath id="27c33c7ccb"><path d="M 12.796875 261.863281 L 0.125 156.191406 L 111.003906 142.894531 L 123.675781 248.566406 Z M 12.796875 261.863281 " clip-rule="nonzero"/></clipPath><clipPath id="afc88cabd9"><path d="M 59 236 L 101 236 L 101 256 L 59 256 Z M 59 236 " clip-rule="nonzero"/></clipPath><clipPath id="d99fd96fc8"><path d="M 12.796875 261.863281 L 0.125 156.191406 L 111.003906 142.894531 L 123.675781 248.566406 Z M 12.796875 261.863281 " clip-rule="nonzero"/></clipPath><clipPath id="ef387137db"><path d="M 12.796875 261.863281 L 0.125 156.191406 L 111.003906 142.894531 L 123.675781 248.566406 Z M 12.796875 261.863281 " clip-rule="nonzero"/></clipPath><clipPath id="46083a979c"><path d="M 84 188 L 101 188 L 101 237 L 84 237 Z M 84 188 " clip-rule="nonzero"/></clipPath><clipPath id="c12f4eaff1"><path d="M 12.796875 261.863281 L 0.125 156.191406 L 111.003906 142.894531 L 123.675781 248.566406 Z M 12.796875 261.863281 " clip-rule="nonzero"/></clipPath><clipPath id="05ceab4f9c"><path d="M 12.796875 261.863281 L 0.125 156.191406 L 111.003906 142.894531 L 123.675781 248.566406 Z M 12.796875 261.863281 " clip-rule="nonzero"/></clipPath><clipPath id="403dc568a0"><path d="M 175 43 L 212 43 L 212 128 L 175 128 Z M 175 43 " clip-rule="nonzero"/></clipPath><clipPath id="66d4fba599"><path d="M 146.453125 54.058594 L 216.40625 23.222656 L 248.753906 96.605469 L 178.800781 127.441406 Z M 146.453125 54.058594 " clip-rule="nonzero"/></clipPath><clipPath id="8dc5f05904"><path d="M 146.453125 54.058594 L 216.40625 23.222656 L 248.753906 96.605469 L 178.800781 127.441406 Z M 146.453125 54.058594 " clip-rule="nonzero"/></clipPath><clipPath id="295e814278"><path d="M 202 27 L 220 27 L 220 54 L 202 54 Z M 202 27 " clip-rule="nonzero"/></clipPath><clipPath id="19d21fce1c"><path d="M 146.453125 54.058594 L 216.40625 23.222656 L 248.753906 96.605469 L 178.800781 127.441406 Z M 146.453125 54.058594 " clip-rule="nonzero"/></clipPath><clipPath id="8b1549d98b"><path d="M 146.453125 54.058594 L 216.40625 23.222656 L 248.753906 96.605469 L 178.800781 127.441406 Z M 146.453125 54.058594 " clip-rule="nonzero"/></clipPath><clipPath id="bebe2a29e3"><path d="M 186 41 L 195 41 L 195 68 L 186 68 Z M 186 41 " clip-rule="nonzero"/></clipPath><clipPath id="7330da109c"><path d="M 146.453125 54.058594 L 216.40625 23.222656 L 248.753906 96.605469 L 178.800781 127.441406 Z M 146.453125 54.058594 " clip-rule="nonzero"/></clipPath><clipPath id="bdb8c237b8"><path d="M 146.453125 54.058594 L 216.40625 23.222656 L 248.753906 96.605469 L 178.800781 127.441406 Z M 146.453125 54.058594 " clip-rule="nonzero"/></clipPath><clipPath id="5f215d3945"><path d="M 194 50 L 222 50 L 222 68 L 194 68 Z M 194 50 " clip-rule="nonzero"/></clipPath><clipPath id="f254243461"><path d="M 146.453125 54.058594 L 216.40625 23.222656 L 248.753906 96.605469 L 178.800781 127.441406 Z M 146.453125 54.058594 " clip-rule="nonzero"/></clipPath><clipPath id="3d97b8f85a"><path d="M 146.453125 54.058594 L 216.40625 23.222656 L 248.753906 96.605469 L 178.800781 127.441406 Z M 146.453125 54.058594 " clip-rule="nonzero"/></clipPath><clipPath id="27b7dbf58e"><path d="M 175 55 L 189 55 L 189 82 L 175 82 Z M 175 55 " clip-rule="nonzero"/></clipPath><clipPath id="c4cf2d3077"><path d="M 146.453125 54.058594 L 216.40625 23.222656 L 248.753906 96.605469 L 178.800781 127.441406 Z M 146.453125 54.058594 " clip-rule="nonzero"/></clipPath><clipPath id="8dcf33d3ff"><path d="M 146.453125 54.058594 L 216.40625 23.222656 L 248.753906 96.605469 L 178.800781 127.441406 Z M 146.453125 54.058594 " clip-rule="nonzero"/></clipPath><clipPath id="337d552521"><path d="M 188 64 L 219 64 L 219 82 L 188 82 Z M 188 64 " clip-rule="nonzero"/></clipPath><clipPath id="b345047079"><path d="M 146.453125 54.058594 L 216.40625 23.222656 L 248.753906 96.605469 L 178.800781 127.441406 Z M 146.453125 54.058594 " clip-rule="nonzero"/></clipPath><clipPath id="2572cbf9f5"><path d="M 146.453125 54.058594 L 216.40625 23.222656 L 248.753906 96.605469 L 178.800781 127.441406 Z M 146.453125 54.058594 " clip-rule="nonzero"/></clipPath><clipPath id="e19a01a299"><path d="M 166 71 L 186 71 L 186 94 L 166 94 Z M 166 71 " clip-rule="nonzero"/></clipPath><clipPath id="07c235300a"><path d="M 146.453125 54.058594 L 216.40625 23.222656 L 248.753906 96.605469 L 178.800781 127.441406 Z M 146.453125 54.058594 " clip-rule="nonzero"/></clipPath><clipPath id="dd857a904a"><path d="M 146.453125 54.058594 L 216.40625 23.222656 L 248.753906 96.605469 L 178.800781 127.441406 Z M 146.453125 54.058594 " clip-rule="nonzero"/></clipPath><clipPath id="41160769c4"><path d="M 185 78 L 215 78 L 215 94 L 185 94 Z M 185 78 " clip-rule="nonzero"/></clipPath><clipPath id="c503a80945"><path d="M 146.453125 54.058594 L 216.40625 23.222656 L 248.753906 96.605469 L 178.800781 127.441406 Z M 146.453125 54.058594 " clip-rule="nonzero"/></clipPath><clipPath id="a1e8a730b4"><path d="M 146.453125 54.058594 L 216.40625 23.222656 L 248.753906 96.605469 L 178.800781 127.441406 Z M 146.453125 54.058594 " clip-rule="nonzero"/></clipPath><clipPath id="f676705dd1"><path d="M 161 84 L 183 84 L 183 109 L 161 109 Z M 161 84 " clip-rule="nonzero"/></clipPath><clipPath id="454895cefb"><path d="M 146.453125 54.058594 L 216.40625 23.222656 L 248.753906 96.605469 L 178.800781 127.441406 Z M 146.453125 54.058594 " clip-rule="nonzero"/></clipPath><clipPath id="d0f2635b3f"><path d="M 146.453125 54.058594 L 216.40625 23.222656 L 248.753906 96.605469 L 178.800781 127.441406 Z M 146.453125 54.058594 " clip-rule="nonzero"/></clipPath><clipPath id="bc5a32cdcb"><path d="M 182 88 L 213 88 L 213 109 L 182 109 Z M 182 88 " clip-rule="nonzero"/></clipPath><clipPath id="2ad4444c64"><path d="M 146.453125 54.058594 L 216.40625 23.222656 L 248.753906 96.605469 L 178.800781 127.441406 Z M 146.453125 54.058594 " clip-rule="nonzero"/></clipPath><clipPath id="ca9d40f37c"><path d="M 146.453125 54.058594 L 216.40625 23.222656 L 248.753906 96.605469 L 178.800781 127.441406 Z M 146.453125 54.058594 " clip-rule="nonzero"/></clipPath><clipPath id="262061f1b3"><path d="M 60 325 L 105 325 L 105 362.75 L 60 362.75 Z M 60 325 " clip-rule="nonzero"/></clipPath><clipPath id="8022de27d1"><path d="M 87 0 L 182.660156 0 L 182.660156 301 L 87 301 Z M 87 0 " clip-rule="nonzero"/></clipPath><mask id="f921a4f15f"><g filter="url(#bb22c1e3d2)"><rect x="-24.9" width="298.8" fill="#000000" y="-36.374999" height="436.499989" fill-opacity="0.5"/></g></mask><clipPath id="0213d2b09e"><path d="M 0.679688 0.207031 L 104 0.207031 L 104 164.492188 L 0.679688 164.492188 Z M 0.679688 0.207031 " clip-rule="nonzero"/></clipPath><clipPath id="5c88607478"><rect x="0" width="105" y="0" height="165"/></clipPath><clipPath id="d32304bef4"><path d="M 37.257812 63 L 71 63 L 71 100 L 37.257812 100 Z M 37.257812 63 " clip-rule="nonzero"/></clipPath><clipPath id="bfdaf4ff4d"><path d="M 37.257812 62 L 71 62 L 71 101 L 37.257812 101 Z M 37.257812 62 " clip-rule="nonzero"/></clipPath><clipPath id="c1fa0c9306"><path d="M 168 43 L 182.660156 43 L 182.660156 301 L 168 301 Z M 168 43 " clip-rule="nonzero"/></clipPath><clipPath id="c4e6eb9e79"><path d="M 167 43 L 182.660156 43 L 182.660156 302 L 167 302 Z M 167 43 " clip-rule="nonzero"/></clipPath><clipPath id="cee90a9c53"><path d="M 30 7 L 40 7 L 40 21 L 30 21 Z M 30 7 " clip-rule="nonzero"/></clipPath><clipPath id="84d5941860"><path d="M 17.359375 12.660156 L 49.824219 1.058594 L 61.675781 34.230469 L 29.210938 45.832031 Z M 17.359375 12.660156 " clip-rule="nonzero"/></clipPath><clipPath id="eb2c36f3e5"><path d="M 17.359375 12.660156 L 49.824219 1.058594 L 61.675781 34.230469 L 29.210938 45.832031 Z M 17.359375 12.660156 " clip-rule="nonzero"/></clipPath><clipPath id="f10a1d7137"><path d="M 40 8 L 53 8 L 53 22 L 40 22 Z M 40 8 " clip-rule="nonzero"/></clipPath><clipPath id="b9a9845796"><path d="M 17.359375 12.660156 L 49.824219 1.058594 L 61.675781 34.230469 L 29.210938 45.832031 Z M 17.359375 12.660156 " clip-rule="nonzero"/></clipPath><clipPath id="a670d1df10"><path d="M 17.359375 12.660156 L 49.824219 1.058594 L 61.675781 34.230469 L 29.210938 45.832031 Z M 17.359375 12.660156 " clip-rule="nonzero"/></clipPath><clipPath id="30cb81cd0e"><path d="M 42 19 L 58 19 L 58 28 L 42 28 Z M 42 19 " clip-rule="nonzero"/></clipPath><clipPath id="ec072062eb"><path d="M 17.359375 12.660156 L 49.824219 1.058594 L 61.675781 34.230469 L 29.210938 45.832031 Z M 17.359375 12.660156 " clip-rule="nonzero"/></clipPath><clipPath id="fbaf7d2ac0"><path d="M 17.359375 12.660156 L 49.824219 1.058594 L 61.675781 34.230469 L 29.210938 45.832031 Z M 17.359375 12.660156 " clip-rule="nonzero"/></clipPath><clipPath id="b72e456075"><path d="M 40 24 L 51 24 L 51 39 L 40 39 Z M 40 24 " clip-rule="nonzero"/></clipPath><clipPath id="49bd485d89"><path d="M 17.359375 12.660156 L 49.824219 1.058594 L 61.675781 34.230469 L 29.210938 45.832031 Z M 17.359375 12.660156 " clip-rule="nonzero"/></clipPath><clipPath id="ae76688038"><path d="M 17.359375 12.660156 L 49.824219 1.058594 L 61.675781 34.230469 L 29.210938 45.832031 Z M 17.359375 12.660156 " clip-rule="nonzero"/></clipPath><clipPath id="0040b2d161"><path d="M 31 24 L 40 24 L 40 40 L 31 40 Z M 31 24 " clip-rule="nonzero"/></clipPath><clipPath id="c8b9696d7b"><path d="M 17.359375 12.660156 L 49.824219 1.058594 L 61.675781 34.230469 L 29.210938 45.832031 Z M 17.359375 12.660156 " clip-rule="nonzero"/></clipPath><clipPath id="8054fa7700"><path d="M 17.359375 12.660156 L 49.824219 1.058594 L 61.675781 34.230469 L 29.210938 45.832031 Z M 17.359375 12.660156 " clip-rule="nonzero"/></clipPath><clipPath id="d68eae753d"><path d="M 22 20 L 38 20 L 38 29 L 22 29 Z M 22 20 " clip-rule="nonzero"/></clipPath><clipPath id="3d3eba54f4"><path d="M 17.359375 12.660156 L 49.824219 1.058594 L 61.675781 34.230469 L 29.210938 45.832031 Z M 17.359375 12.660156 " clip-rule="nonzero"/></clipPath><clipPath id="5ad35d6343"><path d="M 17.359375 12.660156 L 49.824219 1.058594 L 61.675781 34.230469 L 29.210938 45.832031 Z M 17.359375 12.660156 " clip-rule="nonzero"/></clipPath><clipPath id="7c4e9633f7"><path d="M 36 19 L 43 19 L 43 26 L 36 26 Z M 36 19 " clip-rule="nonzero"/></clipPath><clipPath id="48228bf49a"><path d="M 17.359375 12.660156 L 49.824219 1.058594 L 61.675781 34.230469 L 29.210938 45.832031 Z M 17.359375 12.660156 " clip-rule="nonzero"/></clipPath><clipPath id="4b4465e903"><path d="M 17.359375 12.660156 L 49.824219 1.058594 L 61.675781 34.230469 L 29.210938 45.832031 Z M 17.359375 12.660156 " clip-rule="nonzero"/></clipPath></defs><g clip-path="url(#06d9abb08e)"><g clip-path="url(#5efaeb2924)"><g clip-path="url(#9102ca52f3)"><path stroke-linecap="butt" transform="matrix(-0.0377339, -0.314654, 0.314654, -0.0377339, 18.685052, 260.772858)" fill="none" stroke-linejoin="miter" d="M 14.290258 332.379831 C 56.284838 224.643224 136.997612 130.79853 241.994542 67.686776 " stroke="#4d704f" stroke-width="2" stroke-opacity="1" stroke-miterlimit="10"/></g></g></g><g clip-path="url(#c82fcbdfb1)"><g clip-path="url(#6e7ff2dd2b)"><g clip-path="url(#0b94cb2187)"><path fill="#0da487" d="M 35.089844 187.535156 C 30.203125 185.664062 25.71875 183.097656 21.632812 179.832031 C 18.867188 177.671875 0.5 159.128906 8.472656 155.632812 C 10.949219 154.546875 13.460938 157.515625 15.269531 158.894531 C 18 160.964844 19.988281 163.941406 22.082031 166.828125 C 26.875 173.441406 31.210938 180.34375 35.089844 187.535156 Z M 35.089844 187.535156 " fill-opacity="1" fill-rule="nonzero"/></g></g></g><g clip-path="url(#e2a8a35423)"><g clip-path="url(#c0311eed33)"><g clip-path="url(#dbc26c60bb)"><path fill="#0da487" d="M 49.925781 203.257812 C 43.414062 206.03125 36.417969 207.011719 29.546875 207.007812 C 27.125 207.003906 12.296875 206.324219 12.828125 201.605469 C 13.089844 199.292969 18.601562 198.953125 19.902344 198.863281 C 23.96875 198.574219 28.007812 198.8125 32.054688 199.050781 C 37.953125 199.390625 44.316406 199.929688 49.925781 203.257812 Z M 49.925781 203.257812 " fill-opacity="1" fill-rule="nonzero"/></g></g></g><g clip-path="url(#64c9df1d0e)"><g clip-path="url(#412c5a2787)"><g clip-path="url(#7e1265d4f8)"><path fill="#0da487" d="M 50.519531 203.332031 C 44.925781 199.992188 31.628906 162.003906 39.285156 160.207031 C 42.875 159.363281 45.4375 173.753906 46 176.054688 C 47.160156 180.804688 47.71875 185.636719 48.429688 190.496094 C 49 194.339844 50.078125 198.550781 50.519531 203.332031 Z M 50.519531 203.332031 " fill-opacity="1" fill-rule="nonzero"/></g></g></g><g clip-path="url(#f8b47b303e)"><g clip-path="url(#54893e35c1)"><g clip-path="url(#8269808655)"><path fill="#0da487" d="M 65.871094 216.492188 C 60.308594 221.949219 50.988281 224.527344 43.992188 225.675781 C 41.421875 226.097656 25.242188 227.996094 27.503906 220.222656 C 28.320312 217.40625 33.648438 216.816406 35.765625 216.589844 C 40.316406 216.105469 44.910156 215.8125 49.46875 215.53125 C 55.164062 215.171875 62.277344 216.648438 65.871094 216.492188 Z M 65.871094 216.492188 " fill-opacity="1" fill-rule="nonzero"/></g></g></g><g clip-path="url(#0cee0c3dcf)"><g clip-path="url(#2b35b2c232)"><g clip-path="url(#c6ec1a117c)"><path fill="#0da487" d="M 65.863281 216.363281 C 60.917969 209.976562 58.371094 200.867188 56.398438 192.824219 C 54.96875 186.980469 54.023438 181.320312 54.523438 175.175781 C 54.691406 173.058594 54.980469 169.296875 57.394531 170.664062 C 60.359375 172.34375 61.269531 177.878906 62.210938 181.109375 C 64.789062 190 66.082031 199.070312 66.085938 208.324219 C 66.105469 210.535156 66.746094 215.75 65.863281 216.363281 Z M 65.863281 216.363281 " fill-opacity="1" fill-rule="nonzero"/></g></g></g><g clip-path="url(#b9473faf46)"><g clip-path="url(#94f60b89dd)"><g clip-path="url(#48ab0dd2c4)"><path fill="#0da487" d="M 81.371094 226.597656 C 80.601562 226.746094 79.265625 229.246094 78.667969 229.878906 C 76.425781 232.265625 73.628906 233.855469 70.851562 235.28125 C 68.078125 236.710938 45.386719 248.367188 44.507812 241.4375 C 44.21875 239.035156 48.933594 236.726562 50.363281 235.882812 C 54.417969 233.480469 58.871094 232.148438 63.285156 230.875 C 66.308594 230.003906 69.359375 229.25 72.429688 228.617188 C 75.433594 228.011719 78.367188 227.183594 81.371094 226.597656 Z M 81.371094 226.597656 " fill-opacity="1" fill-rule="nonzero"/></g></g></g><g clip-path="url(#fe11e9e745)"><g clip-path="url(#32bf29defa)"><g clip-path="url(#27c33c7ccb)"><path fill="#0da487" d="M 81.414062 226.601562 C 76.519531 223.578125 74.535156 216.210938 73.152344 210.53125 C 71.871094 205.246094 71.238281 199.882812 71.253906 194.445312 C 71.261719 191.914062 71.410156 189.386719 71.695312 186.871094 C 71.84375 185.457031 72.023438 182.128906 73.464844 181.4375 C 79.199219 178.695312 81.191406 209.515625 81.367188 212.179688 C 81.683594 216.929688 82.15625 221.851562 81.414062 226.601562 " fill-opacity="1" fill-rule="nonzero"/></g></g></g><g clip-path="url(#afc88cabd9)"><g clip-path="url(#d99fd96fc8)"><g clip-path="url(#ef387137db)"><path fill="#0da487" d="M 100.132812 236.164062 C 94.128906 244.382812 84.835938 250.605469 75.796875 253.269531 C 71.152344 254.628906 65.824219 255.511719 61.070312 254.714844 C 59.351562 254.429688 59.128906 254.714844 59.464844 253.3125 C 60.0625 250.820312 64.507812 247.453125 66.328125 246.269531 C 70.300781 243.683594 74.859375 242.140625 79.222656 240.738281 C 86.046875 238.53125 93.132812 236.1875 100.132812 236.164062 Z M 100.132812 236.164062 " fill-opacity="1" fill-rule="nonzero"/></g></g></g><g clip-path="url(#46083a979c)"><g clip-path="url(#c12f4eaff1)"><g clip-path="url(#05ceab4f9c)"><path fill="#0da487" d="M 98.921875 234.519531 C 92.058594 225.503906 88.03125 213.703125 85.777344 202.078125 C 85.277344 199.507812 83.242188 188.535156 87.679688 188.421875 C 92.503906 188.300781 93.765625 197.726562 94.457031 201.335938 C 95.582031 207.183594 96.90625 212.957031 98.070312 218.777344 C 98.984375 223.355469 101.371094 231.347656 99.929688 236.128906 C 99.570312 235.28125 99.253906 234.375 98.921875 234.519531 Z M 98.921875 234.519531 " fill-opacity="1" fill-rule="nonzero"/></g></g></g><g clip-path="url(#403dc568a0)"><g clip-path="url(#66d4fba599)"><g clip-path="url(#8dc5f05904)"><path stroke-linecap="butt" transform="matrix(0.208273, -0.0918059, 0.0918059, 0.208273, 148.434221, 57.876519)" fill="none" stroke-linejoin="miter" d="M 14.296155 332.375696 C 56.288759 224.643262 136.9997 130.808022 241.999704 67.691291 " stroke="#4d704f" stroke-width="2" stroke-opacity="1" stroke-miterlimit="10"/></g></g></g><g clip-path="url(#295e814278)"><g clip-path="url(#19d21fce1c)"><g clip-path="url(#8b1549d98b)"><path fill="#0da487" d="M 202.183594 53.8125 C 202.449219 50.066406 203.273438 46.445312 204.660156 42.953125 C 205.5625 40.601562 214.457031 24.101562 218.527344 28.847656 C 219.792969 30.320312 218.28125 32.667969 217.710938 34.199219 C 216.859375 36.507812 215.234375 38.496094 213.6875 40.539062 C 210.148438 45.21875 206.3125 49.640625 202.183594 53.8125 Z M 202.183594 53.8125 " fill-opacity="1" fill-rule="nonzero"/></g></g></g><g clip-path="url(#bebe2a29e3)"><g clip-path="url(#7330da109c)"><g clip-path="url(#bdb8c237b8)"><path fill="#0da487" d="M 194.488281 67.296875 C 191.222656 63.40625 189.082031 58.804688 187.648438 54.082031 C 187.140625 52.414062 184.503906 42.085938 187.855469 41.464844 C 189.5 41.160156 190.886719 44.875 191.222656 45.75 C 192.273438 48.480469 192.953125 51.308594 193.640625 54.136719 C 194.640625 58.261719 195.601562 62.746094 194.488281 67.296875 Z M 194.488281 67.296875 " fill-opacity="1" fill-rule="nonzero"/></g></g></g><g clip-path="url(#5f215d3945)"><g clip-path="url(#f254243461)"><g clip-path="url(#3d97b8f85a)"><path fill="#0da487" d="M 194.5625 67.722656 C 195.6875 63.179688 219 46.089844 221.839844 50.972656 C 223.167969 53.261719 213.820312 58.035156 212.355469 58.90625 C 209.335938 60.695312 206.132812 62.089844 202.941406 63.597656 C 200.421875 64.792969 197.757812 66.417969 194.5625 67.722656 Z M 194.5625 67.722656 " fill-opacity="1" fill-rule="nonzero"/></g></g></g><g clip-path="url(#27b7dbf58e)"><g clip-path="url(#c4cf2d3077)"><g clip-path="url(#8dcf33d3ff)"><path fill="#0da487" d="M 188.734375 81.023438 C 183.820312 78.34375 180.097656 72.480469 177.84375 67.914062 C 177.019531 66.234375 172.328125 55.519531 178.140625 55.445312 C 180.246094 55.414062 181.769531 58.953125 182.367188 60.363281 C 183.652344 63.382812 184.8125 66.480469 185.960938 69.550781 C 187.402344 73.390625 187.875 78.589844 188.734375 81.023438 Z M 188.734375 81.023438 " fill-opacity="1" fill-rule="nonzero"/></g></g></g><g clip-path="url(#337d552521)"><g clip-path="url(#b345047079)"><g clip-path="url(#2572cbf9f5)"><path fill="#0da487" d="M 188.824219 80.992188 C 192.175781 76.253906 197.898438 72.601562 203.015625 69.558594 C 206.726562 67.351562 210.417969 65.519531 214.746094 64.574219 C 216.234375 64.25 218.878906 63.660156 218.445312 65.605469 C 217.914062 67.992188 214.300781 69.777344 212.277344 71.101562 C 206.710938 74.734375 200.75 77.519531 194.390625 79.460938 C 192.878906 79.9375 189.429688 81.46875 188.824219 80.992188 Z M 188.824219 80.992188 " fill-opacity="1" fill-rule="nonzero"/></g></g></g><g clip-path="url(#e19a01a299)"><g clip-path="url(#07c235300a)"><g clip-path="url(#dd857a904a)"><path fill="#0da487" d="M 185.039062 93.789062 C 184.773438 93.289062 182.777344 92.894531 182.21875 92.617188 C 180.109375 91.574219 178.429688 89.988281 176.867188 88.378906 C 175.308594 86.773438 162.550781 73.625 167.125 71.570312 C 168.714844 70.867188 171.289062 73.625 172.167969 74.429688 C 174.667969 76.710938 176.511719 79.492188 178.3125 82.257812 C 179.546875 84.152344 180.699219 86.089844 181.777344 88.070312 C 182.824219 90.003906 184.007812 91.847656 185.039062 93.789062 Z M 185.039062 93.789062 " fill-opacity="1" fill-rule="nonzero"/></g></g></g><g clip-path="url(#41160769c4)"><g clip-path="url(#c503a80945)"><g clip-path="url(#a1e8a730b4)"><path fill="#0da487" d="M 185.042969 93.816406 C 186.097656 89.820312 190.742188 86.914062 194.355469 84.777344 C 197.71875 82.789062 201.269531 81.234375 205.007812 80.105469 C 206.75 79.582031 208.515625 79.152344 210.304688 78.824219 C 211.308594 78.628906 213.632812 78.054688 214.410156 78.898438 C 217.492188 82.265625 196.738281 90.085938 194.941406 90.765625 C 191.746094 91.976562 188.464844 93.332031 185.042969 93.816406 " fill-opacity="1" fill-rule="nonzero"/></g></g></g><g clip-path="url(#f676705dd1)"><g clip-path="url(#454895cefb)"><g clip-path="url(#d0f2635b3f)"><path fill="#0da487" d="M 182.394531 108.679688 C 175.488281 106.277344 169.269531 101.195312 165.546875 95.542969 C 163.640625 92.636719 161.917969 89.160156 161.46875 85.726562 C 161.308594 84.484375 161.0625 84.394531 162.097656 84.332031 C 163.933594 84.21875 167.179688 86.570312 168.375 87.570312 C 170.980469 89.757812 172.996094 92.570312 174.875 95.269531 C 177.820312 99.5 180.910156 103.878906 182.394531 108.679688 Z M 182.394531 108.679688 " fill-opacity="1" fill-rule="nonzero"/></g></g></g><g clip-path="url(#bc5a32cdcb)"><g clip-path="url(#2ad4444c64)"><g clip-path="url(#ca9d40f37c)"><path fill="#0da487" d="M 183.273438 107.503906 C 188.027344 100.902344 195.292969 95.664062 202.804688 91.679688 C 204.46875 90.800781 211.582031 87.101562 212.585938 90.128906 C 213.679688 93.417969 207.46875 96.257812 205.132812 97.488281 C 201.351562 99.488281 197.664062 101.605469 193.90625 103.621094 C 190.953125 105.210938 185.964844 108.519531 182.375 108.53125 C 182.882812 108.109375 183.4375 107.703125 183.273438 107.503906 Z M 183.273438 107.503906 " fill-opacity="1" fill-rule="nonzero"/></g></g></g><g clip-path="url(#262061f1b3)"><path fill="#000000" d="M 102.6875 325.164062 C 102.835938 329.167969 102.8125 333.175781 102.960938 337.179688 C 103.113281 341.246094 103.625 345.308594 104.011719 349.351562 C 104.207031 351.425781 104.765625 353.460938 104.738281 355.554688 C 104.730469 356.316406 104.6875 357.261719 104.070312 357.796875 C 103.296875 358.476562 102.113281 358.652344 101.15625 358.910156 C 98.847656 359.523438 96.726562 359.78125 94.351562 359.742188 C 93.628906 359.730469 92.679688 359.890625 91.984375 359.652344 C 91.277344 359.410156 90.972656 358.40625 90.652344 357.808594 C 90.5625 357.648438 90.386719 357.074219 90.128906 357.09375 C 88.4375 357.222656 88.476562 360.03125 87.066406 360.550781 C 83.574219 361.84375 79.253906 361.9375 75.570312 362.140625 C 71.160156 362.382812 66.09375 362.972656 61.75 361.832031 C 61.246094 360.773438 60.96875 359.613281 60.902344 358.445312 C 60.84375 357.449219 60.9375 356.449219 61.167969 355.476562 C 61.371094 354.636719 61.679688 353.816406 62.09375 353.054688 C 64.324219 348.960938 69.125 348.515625 72.914062 346.566406 C 75.746094 345.109375 78.464844 342.933594 80.71875 340.695312 C 81.757812 339.664062 82.839844 338.53125 83.1875 337.0625 C 83.847656 334.28125 82.730469 331.40625 82.816406 328.558594 C 86.105469 328.09375 99.433594 325.835938 102.6875 325.164062 Z M 102.6875 325.164062 " fill-opacity="1" fill-rule="evenodd"/></g><path fill="#ccb9f4" d="M 176.242188 95.992188 L 174.769531 41.695312 L 96.5 3.554688 L 90.476562 5.15625 L 90.742188 203.214844 L 110.015625 266.527344 L 173.144531 298.511719 Z M 176.242188 95.992188 " fill-opacity="1" fill-rule="evenodd"/><path fill="#000000" d="M 173.144531 298.8125 C 173.097656 298.8125 173.050781 298.800781 173.011719 298.777344 L 109.882812 266.792969 C 109.808594 266.753906 109.753906 266.691406 109.730469 266.613281 L 90.457031 203.300781 C 90.449219 203.273438 90.441406 203.246094 90.441406 203.214844 L 90.179688 5.15625 C 90.179688 5.023438 90.269531 4.902344 90.402344 4.867188 L 96.421875 3.269531 C 96.492188 3.25 96.5625 3.257812 96.628906 3.289062 L 174.902344 41.425781 C 175 41.476562 175.066406 41.574219 175.070312 41.6875 L 176.542969 95.984375 L 176.542969 95.996094 L 173.445312 298.515625 C 173.441406 298.621094 173.386719 298.714844 173.300781 298.769531 C 173.253906 298.796875 173.199219 298.8125 173.144531 298.8125 Z M 110.265625 266.316406 L 172.855469 298.03125 L 175.945312 95.996094 L 174.476562 41.882812 L 96.46875 3.871094 L 90.777344 5.386719 L 91.039062 203.167969 Z M 110.265625 266.316406 " fill-opacity="1" fill-rule="nonzero"/><path fill="#652fd3" d="M 169.402344 46.34375 L 91.210938 6.007812 L 91.324219 199.679688 L 109.835938 264.851562 L 169.894531 296.167969 L 168.382812 300.433594 L 108.003906 267.886719 L 87.722656 207.738281 L 87.527344 4.042969 C 90.792969 0.566406 95.96875 0.757812 101.679688 1.980469 C 140.222656 20.410156 180.457031 39.441406 181.851562 44.683594 L 179.15625 48.65625 Z M 169.402344 46.34375 " fill-opacity="1" fill-rule="evenodd"/><g clip-path="url(#8022de27d1)"><path fill="#000000" d="M 168.382812 300.730469 C 168.332031 300.730469 168.285156 300.71875 168.242188 300.695312 L 107.859375 268.152344 C 107.792969 268.113281 107.742188 268.054688 107.71875 267.984375 L 87.4375 207.832031 C 87.429688 207.800781 87.421875 207.769531 87.421875 207.738281 L 87.226562 4.042969 C 87.226562 3.96875 87.253906 3.894531 87.308594 3.839844 C 90.921875 -0.00390625 96.625 0.59375 101.742188 1.691406 L 106.625 4.015625 C 144.753906 22.238281 180.765625 39.449219 182.140625 44.605469 C 182.164062 44.691406 182.144531 44.777344 182.097656 44.851562 L 179.402344 48.824219 C 179.332031 48.925781 179.199219 48.976562 179.089844 48.945312 L 169.332031 46.632812 C 169.308594 46.628906 169.285156 46.621094 169.265625 46.609375 L 91.511719 6.5 L 91.625 199.640625 L 110.089844 264.644531 L 170.03125 295.902344 C 170.164062 295.96875 170.226562 296.125 170.175781 296.265625 L 168.664062 300.53125 C 168.636719 300.613281 168.570312 300.679688 168.488281 300.710938 C 168.453125 300.722656 168.417969 300.730469 168.382812 300.730469 Z M 108.246094 267.683594 L 168.21875 300.003906 L 169.527344 296.3125 L 109.699219 265.113281 C 109.625 265.078125 109.570312 265.011719 109.546875 264.933594 L 91.039062 199.761719 C 91.03125 199.738281 91.027344 199.710938 91.027344 199.679688 L 90.910156 6.007812 C 90.910156 5.90625 90.964844 5.808594 91.054688 5.753906 C 91.144531 5.699219 91.253906 5.695312 91.347656 5.746094 L 169.503906 46.0625 L 179.023438 48.320312 L 181.519531 44.636719 C 179.636719 39.570312 142.390625 21.773438 106.367188 4.554688 L 101.546875 2.25 C 96.707031 1.226562 91.238281 0.628906 87.820312 4.164062 L 88.019531 207.6875 Z M 108.246094 267.683594 " fill-opacity="1" fill-rule="nonzero"/></g><path fill="#ccb9f4" d="M 98.324219 174.847656 C 98.324219 174.847656 92.023438 192.875 84.707031 212.503906 C 79.226562 227.207031 72.660156 242.550781 70.570312 253.316406 C 68.730469 262.789062 68.824219 276.09375 68.75 288.847656 C 68.636719 307.988281 69.03125 325.679688 69.03125 325.679688 C 76.300781 332.382812 89.90625 331.660156 109.34375 324.097656 C 108.910156 307.199219 109.089844 289.019531 110.445312 273.34375 C 111.035156 266.507812 111.316406 260.105469 112.40625 254.789062 C 113.457031 249.675781 117.597656 244.050781 120.914062 237.960938 C 126.109375 228.417969 130.890625 219.074219 130.890625 219.074219 C 130.890625 219.074219 131.636719 229.457031 132.152344 240.25 C 132.488281 247.277344 132.765625 256.011719 134.238281 258.960938 C 140.65625 271.816406 171.253906 287.445312 171.484375 285.800781 L 171.835938 171.933594 L 169.390625 166.472656 Z M 98.324219 174.847656 " fill-opacity="1" fill-rule="evenodd"/><path fill="#000000" d="M 83.03125 330.542969 C 76.933594 330.542969 72.1875 328.996094 68.832031 325.902344 C 68.769531 325.84375 68.734375 325.769531 68.734375 325.6875 C 68.730469 325.511719 68.339844 307.773438 68.453125 288.847656 L 68.46875 285.714844 C 68.523438 274.050781 68.582031 261.984375 70.277344 253.261719 C 71.878906 245.011719 76.035156 234.25 80.433594 222.855469 C 81.761719 219.425781 83.132812 215.871094 84.429688 212.402344 C 91.660156 193 97.984375 174.929688 98.042969 174.75 C 98.082031 174.640625 98.179688 174.5625 98.292969 174.550781 L 169.355469 166.175781 C 169.480469 166.152344 169.609375 166.230469 169.664062 166.347656 L 172.109375 171.808594 C 172.125 171.847656 172.136719 171.890625 172.136719 171.933594 L 171.785156 285.804688 C 171.769531 285.917969 171.710938 286.15625 171.386719 286.210938 C 168.828125 286.640625 140.242188 271.65625 133.972656 259.097656 C 132.597656 256.347656 132.25 248.804688 131.941406 242.152344 L 131.855469 240.265625 C 131.4375 231.585938 130.867188 223.082031 130.664062 220.160156 C 129.316406 222.78125 125.359375 230.417969 121.175781 238.105469 C 120.234375 239.835938 119.21875 241.535156 118.238281 243.183594 C 115.773438 247.324219 113.441406 251.234375 112.699219 254.851562 C 111.871094 258.890625 111.507812 263.605469 111.125 268.59375 C 111.007812 270.15625 110.882812 271.75 110.742188 273.367188 C 109.535156 287.367188 109.152344 304.90625 109.644531 324.089844 C 109.644531 324.214844 109.570312 324.328125 109.453125 324.375 C 98.886719 328.484375 90.0625 330.542969 83.03125 330.542969 Z M 69.328125 325.546875 C 76.371094 331.929688 89.730469 331.375 109.039062 323.894531 C 108.558594 304.773438 108.941406 287.285156 110.148438 273.316406 C 110.289062 271.699219 110.410156 270.109375 110.53125 268.550781 C 110.914062 263.539062 111.28125 258.808594 112.117188 254.730469 C 112.875 251.015625 115.234375 247.0625 117.726562 242.875 C 118.703125 241.234375 119.714844 239.539062 120.652344 237.820312 C 125.785156 228.386719 130.574219 219.03125 130.621094 218.941406 C 130.683594 218.820312 130.800781 218.753906 130.949219 218.78125 C 131.078125 218.808594 131.175781 218.917969 131.1875 219.054688 C 131.191406 219.15625 131.9375 229.5625 132.449219 240.238281 L 132.535156 242.121094 C 132.84375 248.71875 133.1875 256.195312 134.503906 258.832031 C 140.417969 270.671875 168.246094 285.636719 171.160156 285.636719 C 171.171875 285.636719 171.179688 285.636719 171.191406 285.632812 L 171.539062 171.996094 L 169.207031 166.792969 L 98.546875 175.121094 C 97.875 177.042969 91.839844 194.226562 84.988281 212.609375 C 83.691406 216.085938 82.320312 219.636719 80.992188 223.074219 C 76.601562 234.441406 72.453125 245.179688 70.863281 253.375 C 69.179688 262.046875 69.121094 274.082031 69.066406 285.71875 L 69.046875 288.851562 C 68.941406 306.921875 69.292969 323.914062 69.328125 325.550781 Z M 69.328125 325.546875 " fill-opacity="1" fill-rule="nonzero"/><g mask="url(#f921a4f15f)"><g transform="matrix(1, 0, 0, 1, 68, 166)"><g clip-path="url(#5c88607478)"><g clip-path="url(#0213d2b09e)"><path fill="#000000" d="M 30.324219 8.847656 C 30.324219 8.847656 24.023438 26.875 16.707031 46.503906 C 11.226562 61.207031 4.660156 76.550781 2.570312 87.316406 C 0.730469 96.789062 0.824219 110.09375 0.75 122.847656 C 0.636719 141.988281 1.03125 159.679688 1.03125 159.679688 C 8.300781 166.382812 21.90625 165.660156 41.34375 158.097656 C 40.910156 141.199219 41.089844 123.019531 42.445312 107.34375 C 43.035156 100.507812 43.316406 94.105469 44.40625 88.789062 C 45.457031 83.675781 49.597656 78.050781 52.914062 71.960938 C 58.109375 62.417969 62.890625 53.074219 62.890625 53.074219 C 62.890625 53.074219 63.636719 63.457031 64.152344 74.25 C 64.488281 81.277344 64.765625 90.011719 66.238281 92.960938 C 72.65625 105.816406 103.253906 121.445312 103.484375 119.800781 L 103.835938 5.933594 L 101.390625 0.472656 Z M 30.324219 8.847656 " fill-opacity="1" fill-rule="evenodd"/></g></g></g></g><g clip-path="url(#d32304bef4)"><path fill="#f4a49a" d="M 53.015625 99.796875 C 55.230469 98.957031 63.203125 96.320312 65.441406 95.554688 C 65.226562 94.140625 65.269531 92.671875 65.507812 91.261719 C 65.726562 90.007812 66.007812 88.769531 66.234375 87.515625 C 66.535156 85.851562 67.027344 84.230469 67.386719 82.574219 C 67.746094 80.917969 68.398438 79.34375 68.910156 77.726562 C 69.230469 76.722656 69.578125 75.707031 69.863281 74.691406 C 70.15625 73.640625 70.855469 72.425781 70.597656 71.304688 C 70.210938 69.632812 67.972656 70.71875 67.269531 71.421875 C 65.535156 73.164062 64.910156 75.726562 63.515625 77.714844 C 63.179688 78.195312 62.507812 79.441406 61.71875 79.722656 C 60.757812 79.253906 60.472656 77.335938 60.21875 76.484375 C 60.140625 76.222656 60.03125 75.90625 59.941406 75.648438 C 59.355469 73.964844 58.855469 72.269531 58.355469 70.558594 C 58.023438 69.417969 57.640625 68.296875 57.292969 67.160156 C 56.96875 66.09375 56.65625 65.019531 56.265625 63.972656 C 55.925781 63.058594 55.273438 62.828125 54.515625 63.488281 C 54.320312 63.660156 54.144531 63.851562 53.988281 64.0625 C 53.777344 64.351562 53.609375 64.671875 53.503906 65.011719 C 53.15625 66.105469 53.578125 67.25 53.878906 68.308594 C 54.390625 70.105469 54.921875 71.902344 55.304688 73.734375 C 55.488281 74.605469 55.933594 76.414062 54.636719 76.648438 C 54.246094 76.714844 53.980469 76.46875 53.792969 76.15625 C 53.410156 75.519531 53.171875 74.804688 52.847656 74.140625 C 52.035156 72.476562 51.105469 70.867188 50.183594 69.261719 C 49.664062 68.355469 49.234375 67.339844 48.488281 66.589844 C 47.613281 65.714844 46.316406 65.984375 45.582031 66.898438 C 45.15625 67.425781 44.972656 68.117188 44.867188 68.773438 C 43.933594 67.855469 41.984375 68.574219 41.566406 69.785156 C 41.371094 70.34375 41.601562 70.964844 41.84375 71.46875 C 42.832031 73.5 44.132812 75.402344 45.289062 77.332031 C 45.453125 77.601562 45.621094 77.867188 45.75 78.148438 C 45.828125 78.320312 45.890625 78.496094 45.925781 78.679688 C 46.039062 79.25 45.753906 79.621094 45.164062 79.554688 C 44.140625 79.433594 43.1875 78.859375 42.164062 78.664062 C 41.5 78.535156 40.835938 78.410156 40.164062 78.296875 C 39.542969 78.195312 38.726562 78.0625 38.148438 78.410156 C 37.324219 78.910156 37.824219 80.289062 38.320312 80.855469 C 39.289062 81.957031 40.890625 82.441406 42.210938 82.960938 C 42.769531 83.179688 43.375 83.355469 43.855469 83.730469 C 44.824219 84.488281 45.195312 85.777344 45.632812 86.871094 C 47.515625 91.597656 49.679688 95.914062 53.019531 99.796875 Z M 53.015625 99.796875 " fill-opacity="1" fill-rule="evenodd"/></g><g clip-path="url(#bfdaf4ff4d)"><path fill="#000000" d="M 53.015625 100.097656 C 52.929688 100.097656 52.847656 100.058594 52.789062 99.992188 C 49.84375 96.566406 47.621094 92.675781 45.355469 86.984375 C 45.292969 86.824219 45.230469 86.65625 45.164062 86.488281 C 44.804688 85.542969 44.433594 84.5625 43.671875 83.96875 C 43.324219 83.695312 42.902344 83.539062 42.453125 83.375 C 42.335938 83.328125 42.214844 83.285156 42.097656 83.242188 C 41.914062 83.167969 41.726562 83.09375 41.53125 83.023438 C 40.332031 82.570312 38.976562 82.054688 38.09375 81.050781 C 37.691406 80.59375 37.320312 79.722656 37.429688 79.023438 C 37.488281 78.644531 37.683594 78.34375 37.996094 78.15625 C 38.667969 77.746094 39.5625 77.894531 40.210938 78.003906 C 40.882812 78.117188 41.550781 78.242188 42.21875 78.371094 C 42.707031 78.464844 43.179688 78.640625 43.636719 78.808594 C 44.167969 79.007812 44.675781 79.195312 45.195312 79.257812 C 45.324219 79.269531 45.480469 79.269531 45.570312 79.175781 C 45.648438 79.089844 45.671875 78.933594 45.632812 78.738281 C 45.605469 78.59375 45.554688 78.441406 45.476562 78.273438 C 45.367188 78.039062 45.230469 77.8125 45.09375 77.589844 L 45.035156 77.484375 C 44.710938 76.945312 44.371094 76.40625 44.035156 75.863281 C 43.175781 74.492188 42.292969 73.074219 41.574219 71.597656 C 41.316406 71.0625 41.046875 70.359375 41.285156 69.6875 C 41.539062 68.949219 42.28125 68.339844 43.171875 68.128906 C 43.722656 68 44.238281 68.050781 44.660156 68.265625 C 44.769531 67.765625 44.964844 67.1875 45.347656 66.710938 C 45.804688 66.140625 46.449219 65.796875 47.117188 65.761719 C 47.695312 65.722656 48.265625 65.949219 48.699219 66.378906 C 49.292969 66.976562 49.6875 67.722656 50.074219 68.441406 C 50.195312 68.667969 50.316406 68.894531 50.441406 69.117188 L 50.601562 69.394531 C 51.457031 70.890625 52.34375 72.433594 53.113281 74.011719 C 53.238281 74.265625 53.351562 74.527344 53.460938 74.789062 C 53.648438 75.21875 53.820312 75.625 54.046875 76.003906 C 54.261719 76.363281 54.4375 76.375 54.582031 76.355469 C 54.792969 76.316406 54.949219 76.222656 55.050781 76.070312 C 55.390625 75.570312 55.167969 74.53125 55.035156 73.914062 L 55.011719 73.796875 C 54.675781 72.199219 54.222656 70.597656 53.777344 69.050781 L 53.488281 68.039062 C 53.203125 67.074219 52.882812 65.984375 53.214844 64.921875 C 53.332031 64.5625 53.507812 64.214844 53.746094 63.886719 C 53.917969 63.65625 54.109375 63.449219 54.320312 63.265625 C 54.867188 62.789062 55.316406 62.777344 55.59375 62.84375 C 55.878906 62.917969 56.277344 63.152344 56.542969 63.867188 C 56.875 64.753906 57.148438 65.664062 57.417969 66.546875 L 57.578125 67.074219 C 57.722656 67.558594 57.878906 68.042969 58.035156 68.527344 C 58.242188 69.175781 58.449219 69.824219 58.640625 70.476562 C 59.097656 72.042969 59.621094 73.824219 60.222656 75.550781 C 60.3125 75.808594 60.421875 76.132812 60.503906 76.398438 C 60.550781 76.558594 60.597656 76.753906 60.652344 76.96875 C 60.851562 77.78125 61.148438 78.984375 61.738281 79.390625 C 62.246094 79.121094 62.746094 78.351562 63.050781 77.878906 C 63.132812 77.75 63.207031 77.632812 63.273438 77.546875 C 63.828125 76.75 64.273438 75.832031 64.703125 74.945312 C 65.339844 73.632812 65.996094 72.273438 67.058594 71.210938 C 67.546875 70.722656 68.945312 69.894531 69.960938 70.183594 C 70.292969 70.277344 70.726562 70.539062 70.890625 71.238281 C 71.09375 72.140625 70.75 73.082031 70.441406 73.910156 C 70.332031 74.207031 70.226562 74.496094 70.148438 74.773438 C 69.933594 75.535156 69.6875 76.304688 69.445312 77.046875 L 69.191406 77.820312 C 69.027344 78.34375 68.84375 78.871094 68.664062 79.394531 C 68.296875 80.449219 67.914062 81.539062 67.679688 82.636719 C 67.527344 83.332031 67.355469 84.023438 67.179688 84.710938 C 66.945312 85.644531 66.699219 86.609375 66.523438 87.570312 C 66.421875 88.128906 66.3125 88.6875 66.199219 89.242188 C 66.058594 89.929688 65.921875 90.621094 65.800781 91.3125 C 65.554688 92.761719 65.53125 94.175781 65.734375 95.507812 C 65.753906 95.652344 65.671875 95.789062 65.535156 95.835938 C 64.898438 96.054688 63.792969 96.425781 62.492188 96.863281 C 59.203125 97.964844 54.699219 99.476562 53.121094 100.074219 C 53.089844 100.089844 53.050781 100.09375 53.015625 100.09375 Z M 39.117188 78.484375 C 38.816406 78.484375 38.527344 78.53125 38.300781 78.667969 C 38.144531 78.761719 38.050781 78.910156 38.019531 79.117188 C 37.941406 79.609375 38.230469 80.300781 38.542969 80.660156 C 39.324219 81.550781 40.554688 82.015625 41.742188 82.464844 C 41.9375 82.539062 42.128906 82.609375 42.316406 82.683594 L 42.660156 82.8125 C 43.128906 82.988281 43.617188 83.167969 44.039062 83.496094 C 44.929688 84.195312 45.351562 85.300781 45.722656 86.277344 C 45.785156 86.441406 45.847656 86.605469 45.910156 86.761719 C 48.117188 92.304688 50.273438 96.109375 53.105469 99.445312 C 54.84375 98.800781 59.136719 97.359375 62.304688 96.296875 C 63.457031 95.910156 64.453125 95.574219 65.109375 95.351562 C 64.9375 94.027344 64.96875 92.636719 65.214844 91.210938 C 65.332031 90.515625 65.472656 89.820312 65.613281 89.125 C 65.726562 88.574219 65.835938 88.019531 65.9375 87.460938 C 66.117188 86.484375 66.359375 85.507812 66.601562 84.566406 C 66.773438 83.882812 66.945312 83.199219 67.09375 82.511719 C 67.339844 81.375 67.722656 80.269531 68.097656 79.199219 C 68.277344 78.679688 68.457031 78.160156 68.625 77.636719 L 68.875 76.859375 C 69.117188 76.125 69.363281 75.363281 69.574219 74.613281 C 69.65625 74.320312 69.765625 74.015625 69.882812 73.703125 C 70.171875 72.914062 70.472656 72.101562 70.308594 71.371094 C 70.230469 71.027344 70.066406 70.832031 69.792969 70.753906 C 69.125 70.566406 67.953125 71.15625 67.480469 71.628906 C 66.492188 72.625 65.855469 73.9375 65.242188 75.207031 C 64.800781 76.113281 64.34375 77.050781 63.757812 77.886719 C 63.699219 77.972656 63.628906 78.078125 63.550781 78.199219 C 63.15625 78.8125 62.558594 79.738281 61.816406 80.003906 C 61.742188 80.03125 61.65625 80.027344 61.585938 79.992188 C 60.671875 79.546875 60.324219 78.140625 60.074219 77.113281 C 60.023438 76.90625 59.976562 76.71875 59.929688 76.570312 C 59.855469 76.3125 59.75 76 59.65625 75.75 C 59.050781 74.003906 58.527344 72.214844 58.066406 70.640625 C 57.875 69.992188 57.671875 69.351562 57.464844 68.707031 C 57.308594 68.222656 57.15625 67.734375 57.003906 67.25 L 56.84375 66.71875 C 56.578125 65.847656 56.304688 64.941406 55.984375 64.078125 C 55.84375 63.707031 55.652344 63.476562 55.441406 63.421875 C 55.195312 63.367188 54.902344 63.542969 54.710938 63.714844 C 54.53125 63.871094 54.367188 64.046875 54.222656 64.242188 C 54.027344 64.511719 53.878906 64.804688 53.785156 65.101562 C 53.503906 65.988281 53.789062 66.945312 54.058594 67.867188 L 54.351562 68.886719 C 54.796875 70.445312 55.253906 72.054688 55.59375 73.675781 L 55.621094 73.789062 C 55.78125 74.546875 56.023438 75.691406 55.546875 76.402344 C 55.351562 76.691406 55.0625 76.875 54.683594 76.941406 C 54.367188 77 53.90625 76.933594 53.535156 76.308594 C 53.285156 75.898438 53.097656 75.453125 52.914062 75.023438 C 52.804688 74.769531 52.699219 74.519531 52.578125 74.273438 C 51.816406 72.714844 50.933594 71.179688 50.082031 69.691406 L 49.921875 69.414062 C 49.792969 69.1875 49.667969 68.957031 49.546875 68.722656 C 49.183594 68.039062 48.804688 67.335938 48.273438 66.800781 C 47.964844 66.488281 47.570312 66.34375 47.148438 66.355469 C 46.648438 66.382812 46.164062 66.648438 45.8125 67.085938 C 45.492188 67.484375 45.28125 68.035156 45.160156 68.820312 C 45.144531 68.929688 45.066406 69.023438 44.957031 69.058594 C 44.847656 69.09375 44.734375 69.066406 44.65625 68.988281 C 44.347656 68.683594 43.855469 68.585938 43.308594 68.710938 C 42.621094 68.871094 42.035156 69.34375 41.847656 69.882812 C 41.683594 70.351562 41.902344 70.90625 42.109375 71.339844 C 42.8125 72.785156 43.691406 74.191406 44.539062 75.546875 C 44.878906 76.09375 45.21875 76.632812 45.546875 77.179688 L 45.605469 77.28125 C 45.753906 77.523438 45.902344 77.769531 46.019531 78.027344 C 46.117188 78.238281 46.183594 78.429688 46.21875 78.621094 C 46.292969 79.015625 46.21875 79.355469 46.007812 79.582031 C 45.867188 79.734375 45.601562 79.90625 45.128906 79.851562 C 44.535156 79.78125 43.972656 79.570312 43.429688 79.367188 C 42.976562 79.199219 42.546875 79.042969 42.105469 78.957031 C 41.445312 78.828125 40.78125 78.703125 40.117188 78.59375 C 39.816406 78.542969 39.457031 78.484375 39.117188 78.484375 Z M 39.117188 78.484375 " fill-opacity="1" fill-rule="nonzero"/></g><path fill="#fb6cac" d="M 136.707031 92.652344 C 136.683594 89.714844 136.453125 86.46875 135.808594 85.613281 C 134.9375 84.449219 131.503906 84.132812 128.175781 84.691406 L 113.191406 87.257812 C 108.773438 87.300781 107.390625 89.960938 108.347656 94.644531 C 108.347656 94.644531 91.535156 95.894531 85.851562 99.761719 C 80.207031 103.609375 71.523438 113.203125 71.523438 113.203125 C 70.824219 108.726562 70.050781 104.199219 69.210938 99.621094 C 69.207031 97.097656 68.355469 95.375 67.097656 94.039062 C 59.886719 95.597656 53.433594 98.011719 47.988281 101.554688 C 47.53125 102.804688 47.675781 104.359375 48.34375 106.175781 C 45.695312 122.960938 46.429688 137.1875 52.835938 147.136719 C 58.652344 152.625 70.363281 147.761719 85.203125 139.203125 C 87 138.167969 89.195312 137.683594 91.066406 136.53125 C 95.859375 147.28125 95.949219 159.5 96.011719 171.726562 C 95.792969 174.253906 96.519531 176.132812 98.507812 176.738281 C 124.003906 184.46875 148.464844 182.164062 171.722656 168.234375 L 171.359375 106.496094 C 171.359375 106.496094 164.5625 98.246094 159.804688 96.34375 C 154.027344 94.035156 136.710938 92.648438 136.710938 92.648438 Z M 136.707031 92.652344 " fill-opacity="1" fill-rule="evenodd"/><path fill="#000000" d="M 126.574219 181.378906 C 117.398438 181.378906 108.003906 179.929688 98.417969 177.023438 C 96.398438 176.414062 95.464844 174.570312 95.714844 171.703125 C 95.652344 159.882812 95.585938 147.636719 90.929688 136.960938 C 90 137.492188 89.007812 137.878906 88.042969 138.257812 C 87.085938 138.632812 86.179688 138.988281 85.351562 139.464844 C 72.113281 147.101562 58.976562 153.347656 52.628906 147.355469 C 46.628906 138.050781 45.140625 124.605469 48.035156 106.207031 C 47.355469 104.320312 47.242188 102.722656 47.707031 101.457031 C 47.726562 101.394531 47.769531 101.34375 47.824219 101.308594 C 53.09375 97.875 59.378906 95.402344 67.035156 93.746094 C 67.132812 93.726562 67.246094 93.757812 67.316406 93.835938 C 68.789062 95.398438 69.507812 97.292969 69.511719 99.621094 C 70.3125 103.960938 71.054688 108.320312 71.71875 112.542969 C 73.527344 110.582031 80.78125 102.859375 85.6875 99.515625 C 90.992188 95.902344 105.527344 94.574219 107.988281 94.371094 C 107.519531 91.8125 107.785156 89.886719 108.785156 88.652344 C 109.675781 87.546875 111.15625 86.976562 113.1875 86.957031 L 128.125 84.394531 C 131.28125 83.867188 135.015625 84.054688 136.046875 85.433594 C 136.804688 86.441406 136.976562 90.097656 137.003906 92.375 C 139.308594 92.566406 154.488281 93.898438 159.914062 96.066406 C 164.6875 97.976562 171.308594 105.96875 171.589844 106.308594 C 171.632812 106.359375 171.65625 106.425781 171.65625 106.496094 L 172.023438 168.234375 C 172.023438 168.339844 171.96875 168.4375 171.875 168.492188 C 157.542969 177.078125 142.382812 181.378906 126.578125 181.378906 Z M 91.066406 136.234375 C 91.09375 136.234375 91.125 136.238281 91.152344 136.246094 C 91.238281 136.273438 91.300781 136.332031 91.335938 136.410156 C 96.183594 147.273438 96.246094 159.707031 96.308594 171.726562 C 96.152344 173.535156 96.425781 175.796875 98.59375 176.453125 C 124.453125 184.296875 148.957031 181.472656 171.421875 168.066406 L 171.058594 106.609375 C 170.34375 105.75 164.078125 98.375 159.691406 96.621094 C 154.023438 94.359375 136.855469 92.960938 136.683594 92.945312 C 136.527344 92.933594 136.410156 92.808594 136.410156 92.652344 C 136.378906 89.015625 136.0625 86.449219 135.570312 85.792969 C 134.820312 84.792969 131.523438 84.433594 128.222656 84.984375 L 113.238281 87.550781 C 111.351562 87.574219 110.023438 88.070312 109.246094 89.027344 C 108.324219 90.171875 108.117188 92.039062 108.636719 94.585938 C 108.652344 94.667969 108.632812 94.757812 108.582031 94.824219 C 108.53125 94.894531 108.453125 94.9375 108.367188 94.941406 C 108.199219 94.953125 91.570312 96.230469 86.019531 100.011719 C 80.46875 103.792969 71.828125 113.308594 71.742188 113.402344 C 71.660156 113.488281 71.546875 113.523438 71.433594 113.488281 C 71.324219 113.453125 71.242188 113.363281 71.226562 113.25 C 70.539062 108.839844 69.761719 104.277344 68.917969 99.675781 C 68.910156 97.484375 68.296875 95.808594 66.996094 94.367188 C 59.527344 95.996094 53.386719 98.414062 48.234375 101.753906 C 47.851562 102.886719 47.984375 104.339844 48.621094 106.074219 C 48.640625 106.121094 48.644531 106.171875 48.636719 106.222656 C 45.75 124.511719 47.203125 137.84375 53.085938 146.980469 C 59.101562 152.644531 72.011719 146.46875 85.050781 138.949219 C 85.917969 138.449219 86.890625 138.070312 87.824219 137.703125 C 88.867188 137.292969 89.945312 136.875 90.910156 136.277344 C 90.957031 136.25 91.011719 136.234375 91.066406 136.234375 Z M 91.066406 136.234375 " fill-opacity="1" fill-rule="nonzero"/><g clip-path="url(#c1fa0c9306)"><path fill="#652fd3" d="M 168.253906 45.726562 C 174.824219 43.433594 179.542969 42.914062 181.847656 44.683594 L 182.082031 297.214844 C 180.976562 300.71875 176.136719 301.597656 168.382812 300.433594 Z M 168.253906 45.726562 " fill-opacity="1" fill-rule="evenodd"/></g><g clip-path="url(#c4e6eb9e79)"><path fill="#000000" d="M 174.128906 301.21875 C 172.453125 301.21875 170.523438 301.054688 168.339844 300.726562 C 168.191406 300.707031 168.085938 300.582031 168.085938 300.433594 L 167.953125 45.726562 C 167.953125 45.597656 168.035156 45.484375 168.15625 45.445312 C 175.175781 42.996094 179.71875 42.671875 182.03125 44.445312 C 182.105469 44.503906 182.148438 44.589844 182.148438 44.683594 L 182.382812 297.214844 C 182.382812 297.246094 182.378906 297.273438 182.367188 297.304688 C 181.542969 299.921875 178.828125 301.222656 174.128906 301.222656 Z M 168.683594 300.175781 C 176.363281 301.292969 180.765625 300.28125 181.785156 297.167969 L 181.550781 44.835938 C 179.414062 43.328125 175.039062 43.699219 168.550781 45.9375 Z M 168.683594 300.175781 " fill-opacity="1" fill-rule="nonzero"/></g><path fill="#f4a49a" d="M 161.46875 133.335938 C 161.515625 134.425781 161.589844 135.519531 161.90625 136.570312 C 162.328125 137.96875 163.097656 139.214844 163.710938 140.53125 C 164.113281 141.386719 164.433594 142.703125 165.511719 142.921875 C 166.449219 143.109375 166.730469 141.757812 166.804688 141.125 C 166.964844 139.863281 166.792969 138.339844 165.96875 137.308594 C 165.597656 136.84375 161.800781 133.832031 161.46875 133.335938 Z M 161.46875 133.335938 " fill-opacity="1" fill-rule="evenodd"/><path fill="#000000" d="M 165.683594 143.238281 C 165.609375 143.238281 165.535156 143.230469 165.457031 143.214844 C 164.414062 143.003906 163.992188 141.976562 163.652344 141.148438 C 163.582031 140.976562 163.511719 140.808594 163.441406 140.65625 C 163.253906 140.257812 163.050781 139.863281 162.851562 139.46875 C 162.394531 138.574219 161.921875 137.652344 161.621094 136.65625 C 161.289062 135.550781 161.214844 134.417969 161.171875 133.351562 C 161.167969 133.21875 161.25 133.097656 161.375 133.054688 C 161.507812 133.015625 161.640625 133.0625 161.714844 133.171875 C 161.875 133.402344 163.183594 134.503906 164.140625 135.308594 C 165.300781 136.289062 166.023438 136.898438 166.203125 137.125 C 167.300781 138.496094 167.199219 140.40625 167.101562 141.164062 C 167.023438 141.808594 166.816406 142.660156 166.289062 143.042969 C 166.109375 143.171875 165.902344 143.238281 165.683594 143.238281 Z M 161.808594 134.09375 C 161.859375 134.890625 161.957031 135.699219 162.191406 136.484375 C 162.476562 137.425781 162.9375 138.328125 163.382812 139.199219 C 163.585938 139.597656 163.792969 139.996094 163.980469 140.402344 C 164.058594 140.5625 164.128906 140.738281 164.203125 140.921875 C 164.519531 141.6875 164.84375 142.484375 165.574219 142.628906 C 165.71875 142.65625 165.832031 142.632812 165.9375 142.558594 C 166.210938 142.363281 166.421875 141.8125 166.511719 141.089844 C 166.6875 139.667969 166.398438 138.324219 165.734375 137.496094 C 165.582031 137.300781 164.609375 136.484375 163.753906 135.765625 C 162.902344 135.046875 162.246094 134.492188 161.808594 134.09375 Z M 161.808594 134.09375 " fill-opacity="1" fill-rule="nonzero"/><path fill="#f4a49a" d="M 169.160156 134.78125 C 172.761719 133.820312 170.3125 130.273438 169.367188 129.011719 C 169.683594 129.390625 170.015625 129.757812 170.382812 130.085938 C 170.578125 130.261719 170.792969 130.417969 171.035156 130.53125 C 172.386719 131.164062 172.847656 129.90625 172.902344 128.753906 C 172.957031 127.691406 172.34375 126.640625 171.785156 125.785156 C 170.890625 124.417969 169.863281 123.125 168.929688 121.78125 C 168.316406 120.902344 167.589844 119.621094 166.65625 119.042969 C 165.75 118.476562 164.207031 119.148438 164.085938 120.238281 C 163.917969 121.726562 164.902344 123.144531 165.644531 124.328125 C 165.25 124.214844 164.890625 124.152344 164.484375 124.132812 C 161.558594 123.988281 162.742188 127.683594 163.441406 129.238281 C 161.519531 129.800781 160.046875 132.238281 161.21875 134.140625 C 162.273438 135.851562 164.382812 137.042969 165.839844 138.410156 C 166.660156 139.175781 167.722656 140.886719 168.984375 140.949219 C 170.773438 141.039062 170.382812 138.117188 170.105469 137.09375 C 169.890625 136.289062 169.597656 135.492188 169.164062 134.78125 Z M 169.160156 134.78125 " fill-opacity="1" fill-rule="evenodd"/><path fill="#000000" d="M 169.058594 141.25 C 169.03125 141.25 169 141.25 168.96875 141.246094 C 167.910156 141.195312 167.023438 140.175781 166.3125 139.359375 C 166.070312 139.082031 165.839844 138.816406 165.636719 138.625 C 165.15625 138.179688 164.613281 137.753906 164.03125 137.300781 C 162.882812 136.40625 161.691406 135.480469 160.964844 134.292969 C 160.4375 133.4375 160.359375 132.414062 160.746094 131.410156 C 161.152344 130.359375 162.03125 129.46875 163.039062 129.0625 C 162.617188 128.046875 161.84375 125.792969 162.667969 124.582031 C 163.035156 124.046875 163.65625 123.796875 164.496094 123.832031 C 164.671875 123.84375 164.84375 123.859375 165.011719 123.882812 C 164.347656 122.816406 163.640625 121.542969 163.789062 120.207031 C 163.855469 119.609375 164.273438 119.074219 164.90625 118.769531 C 165.558594 118.453125 166.292969 118.460938 166.8125 118.785156 C 167.628906 119.292969 168.265625 120.246094 168.824219 121.089844 C 168.945312 121.273438 169.0625 121.445312 169.171875 121.609375 C 169.558594 122.164062 169.960938 122.714844 170.367188 123.261719 C 170.925781 124.023438 171.507812 124.8125 172.035156 125.621094 C 172.671875 126.597656 173.257812 127.65625 173.199219 128.765625 C 173.171875 129.355469 173.023438 130.40625 172.324219 130.828125 C 171.933594 131.0625 171.460938 131.058594 170.910156 130.800781 C 170.878906 130.785156 170.847656 130.769531 170.816406 130.753906 C 171.347656 131.84375 171.488281 132.765625 171.238281 133.496094 C 171.007812 134.164062 170.460938 134.652344 169.609375 134.957031 C 169.921875 135.539062 170.179688 136.214844 170.394531 137.011719 C 170.632812 137.90625 170.894531 139.835938 170.164062 140.742188 C 169.898438 141.074219 169.515625 141.25 169.0625 141.25 Z M 164.320312 124.425781 C 163.765625 124.425781 163.386719 124.589844 163.160156 124.917969 C 162.566406 125.789062 163.085938 127.722656 163.714844 129.117188 C 163.75 129.195312 163.75 129.285156 163.710938 129.363281 C 163.675781 129.441406 163.609375 129.5 163.523438 129.523438 C 162.558594 129.808594 161.6875 130.632812 161.304688 131.625 C 160.984375 132.449219 161.046875 133.289062 161.472656 133.980469 C 162.144531 135.074219 163.289062 135.96875 164.398438 136.832031 C 164.964844 137.269531 165.546875 137.722656 166.046875 138.191406 C 166.273438 138.402344 166.507812 138.675781 166.761719 138.964844 C 167.433594 139.738281 168.195312 140.613281 169 140.652344 C 169.300781 140.667969 169.53125 140.578125 169.699219 140.371094 C 170.234375 139.707031 170.054688 138.054688 169.816406 137.171875 C 169.574219 136.273438 169.277344 135.542969 168.90625 134.941406 C 168.859375 134.859375 168.847656 134.761719 168.882812 134.671875 C 168.917969 134.585938 168.992188 134.519531 169.082031 134.496094 C 169.941406 134.265625 170.476562 133.863281 170.671875 133.304688 C 170.894531 132.664062 170.804688 131.429688 169.128906 129.191406 C 169.03125 129.0625 169.054688 128.878906 169.183594 128.777344 C 169.308594 128.675781 169.492188 128.695312 169.59375 128.820312 C 169.953125 129.253906 170.265625 129.582031 170.578125 129.863281 C 170.78125 130.042969 170.96875 130.171875 171.160156 130.261719 C 171.515625 130.425781 171.800781 130.449219 172.015625 130.320312 C 172.347656 130.121094 172.566406 129.527344 172.605469 128.742188 C 172.652344 127.796875 172.117188 126.839844 171.535156 125.949219 C 171.015625 125.15625 170.441406 124.375 169.882812 123.617188 C 169.476562 123.066406 169.070312 122.511719 168.683594 121.953125 C 168.566406 121.789062 168.449219 121.609375 168.324219 121.421875 C 167.800781 120.632812 167.203125 119.734375 166.5 119.296875 C 166.152344 119.082031 165.628906 119.082031 165.164062 119.308594 C 164.71875 119.523438 164.425781 119.886719 164.382812 120.273438 C 164.238281 121.546875 165.027344 122.796875 165.722656 123.902344 L 165.894531 124.171875 C 165.960938 124.277344 165.953125 124.410156 165.878906 124.507812 C 165.804688 124.609375 165.679688 124.652344 165.558594 124.617188 C 165.179688 124.507812 164.84375 124.449219 164.46875 124.433594 C 164.417969 124.429688 164.367188 124.425781 164.316406 124.425781 Z M 164.320312 124.425781 " fill-opacity="1" fill-rule="nonzero"/><path fill="#f4a49a" d="M 129.558594 77.074219 C 129.710938 81.464844 129.960938 90.34375 129.960938 90.34375 C 129.960938 90.34375 132.550781 92.832031 133.929688 93.96875 C 131.1875 96.300781 128.652344 98.914062 125.976562 101.328125 C 124.167969 102.953125 121.851562 104.558594 120.488281 106.636719 C 119.304688 108.4375 119.25 110.882812 118.417969 112.871094 C 118.144531 113.535156 117.628906 114.671875 116.972656 115 C 116.296875 115.339844 115.792969 114.976562 115.347656 114.417969 C 114.445312 113.285156 114.222656 111.914062 113.722656 110.589844 C 113.375 109.660156 112.933594 108.707031 112.695312 107.742188 C 112.53125 107.078125 112.460938 106.4375 112.179688 105.804688 C 111.71875 104.765625 110.878906 103.9375 110.570312 102.8125 C 109.894531 100.355469 110.183594 97.378906 110.828125 94.945312 C 111.066406 94.050781 112.242188 93.878906 112.9375 93.316406 C 112.863281 92.847656 112.878906 92.382812 112.832031 91.914062 C 112.738281 91.003906 112.058594 86.195312 112.050781 85.28125 C 113.597656 85.535156 115.101562 84.792969 116.449219 84.109375 C 119.65625 82.484375 123.183594 84.015625 125.230469 80.941406 C 126.082031 79.664062 126.820312 78.296875 127.78125 77.097656 C 128.101562 76.695312 129.523438 76.128906 129.558594 77.074219 Z M 129.558594 77.074219 " fill-opacity="1" fill-rule="evenodd"/><path fill="#000000" d="M 116.472656 115.429688 C 115.773438 115.429688 115.296875 114.835938 115.117188 114.605469 C 114.425781 113.742188 114.113281 112.746094 113.8125 111.785156 C 113.695312 111.421875 113.578125 111.054688 113.445312 110.691406 C 113.347656 110.4375 113.246094 110.179688 113.140625 109.917969 C 112.867188 109.234375 112.585938 108.53125 112.40625 107.816406 C 112.355469 107.613281 112.3125 107.40625 112.273438 107.207031 C 112.179688 106.761719 112.089844 106.335938 111.910156 105.925781 C 111.726562 105.515625 111.480469 105.140625 111.222656 104.742188 C 110.855469 104.175781 110.476562 103.59375 110.28125 102.894531 C 109.679688 100.699219 109.773438 97.773438 110.539062 94.867188 C 110.730469 94.15625 111.386719 93.828125 111.964844 93.542969 C 112.199219 93.425781 112.425781 93.3125 112.617188 93.183594 C 112.589844 92.949219 112.578125 92.71875 112.570312 92.496094 C 112.5625 92.3125 112.554688 92.128906 112.535156 91.941406 C 112.503906 91.652344 112.414062 90.957031 112.304688 90.121094 C 112.0625 88.25 111.757812 85.921875 111.75 85.285156 C 111.75 85.195312 111.789062 85.113281 111.855469 85.054688 C 111.925781 85 112.003906 84.972656 112.097656 84.988281 C 113.582031 85.222656 115.09375 84.460938 116.316406 83.84375 C 117.648438 83.164062 119.003906 83.019531 120.316406 82.878906 C 122.203125 82.675781 123.832031 82.5 124.980469 80.777344 C 125.265625 80.347656 125.539062 79.910156 125.808594 79.472656 C 126.34375 78.613281 126.898438 77.722656 127.546875 76.910156 C 127.84375 76.539062 128.75 76.117188 129.332031 76.308594 C 129.652344 76.414062 129.84375 76.691406 129.855469 77.0625 C 129.855469 77.0625 129.859375 77.0625 129.859375 77.066406 C 129.996094 81.152344 130.222656 89.128906 130.253906 90.210938 C 130.71875 90.65625 132.910156 92.738281 134.117188 93.738281 C 134.1875 93.796875 134.226562 93.878906 134.226562 93.96875 C 134.226562 94.054688 134.1875 94.140625 134.117188 94.195312 C 132.511719 95.5625 130.949219 97.050781 129.4375 98.492188 C 128.375 99.503906 127.277344 100.550781 126.171875 101.546875 C 125.699219 101.976562 125.1875 102.402344 124.664062 102.835938 C 123.214844 104.050781 121.71875 105.300781 120.734375 106.800781 C 120.066406 107.820312 119.761719 109.105469 119.46875 110.347656 C 119.257812 111.234375 119.042969 112.148438 118.691406 112.984375 C 118.355469 113.792969 117.828125 114.902344 117.105469 115.265625 C 116.878906 115.378906 116.664062 115.425781 116.46875 115.425781 Z M 112.367188 85.617188 C 112.4375 86.523438 112.699219 88.527344 112.898438 90.046875 C 113.007812 90.890625 113.097656 91.589844 113.128906 91.882812 C 113.148438 92.078125 113.15625 92.277344 113.167969 92.472656 C 113.179688 92.738281 113.1875 93.003906 113.234375 93.269531 C 113.25 93.375 113.210938 93.480469 113.125 93.546875 C 112.859375 93.765625 112.539062 93.925781 112.230469 94.078125 C 111.695312 94.339844 111.238281 94.570312 111.113281 95.023438 C 110.375 97.824219 110.28125 100.636719 110.859375 102.734375 C 111.023438 103.34375 111.363281 103.863281 111.722656 104.414062 C 111.984375 104.816406 112.253906 105.230469 112.453125 105.6875 C 112.660156 106.152344 112.757812 106.625 112.855469 107.085938 C 112.894531 107.277344 112.9375 107.472656 112.984375 107.671875 C 113.152344 108.347656 113.429688 109.03125 113.695312 109.695312 C 113.800781 109.960938 113.902344 110.222656 114.003906 110.484375 C 114.144531 110.855469 114.261719 111.234375 114.378906 111.605469 C 114.679688 112.558594 114.960938 113.457031 115.582031 114.234375 C 116.117188 114.902344 116.472656 114.921875 116.839844 114.734375 C 117.242188 114.53125 117.679688 113.867188 118.140625 112.757812 C 118.472656 111.964844 118.683594 111.074219 118.886719 110.210938 C 119.195312 108.917969 119.507812 107.582031 120.238281 106.472656 C 121.269531 104.902344 122.800781 103.621094 124.285156 102.382812 C 124.796875 101.953125 125.304688 101.53125 125.777344 101.105469 C 126.875 100.113281 127.96875 99.070312 129.027344 98.0625 C 130.464844 96.695312 131.945312 95.285156 133.46875 93.972656 C 132.054688 92.765625 129.777344 90.582031 129.753906 90.558594 C 129.699219 90.503906 129.664062 90.429688 129.660156 90.351562 C 129.660156 90.351562 129.410156 81.472656 129.261719 77.085938 C 129.253906 76.914062 129.1875 76.890625 129.144531 76.875 C 128.84375 76.78125 128.1875 77.066406 128.011719 77.285156 C 127.386719 78.066406 126.84375 78.941406 126.316406 79.789062 C 126.039062 80.230469 125.765625 80.675781 125.476562 81.109375 C 124.175781 83.066406 122.328125 83.261719 120.378906 83.472656 C 119.121094 83.609375 117.820312 83.746094 116.582031 84.375 C 115.382812 84.984375 113.902344 85.734375 112.367188 85.617188 Z M 112.367188 85.617188 " fill-opacity="1" fill-rule="nonzero"/><path fill="#f4a49a" d="M 131.074219 70.023438 C 131.207031 69.234375 131.417969 68.445312 131.902344 67.796875 C 132.785156 66.613281 134.671875 65.925781 136.011719 66.738281 C 136.558594 67.074219 136.917969 67.714844 137.152344 68.296875 C 138.191406 70.875 136.953125 73.820312 135.609375 76.035156 C 134.890625 77.222656 133.914062 78.351562 132.519531 78.722656 C 131.5625 78.984375 130.519531 78.851562 129.5625 78.667969 C 128.554688 79.996094 127.394531 81.191406 126.304688 82.445312 C 124.585938 84.417969 122.832031 86.425781 120.511719 87.710938 C 115.3125 90.59375 108.207031 89.136719 104.214844 84.902344 C 102.746094 83.339844 101.953125 81.503906 101.277344 79.53125 C 99.519531 74.398438 98.804688 69.09375 99.035156 63.6875 C 99.179688 60.257812 99.800781 56.753906 101.84375 53.894531 C 103.699219 51.296875 106.46875 49.546875 109.351562 48.234375 C 113.230469 46.46875 117.464844 47.550781 120.734375 50.050781 C 122.984375 51.769531 124.949219 53.867188 126.324219 56.355469 C 126.996094 57.574219 127.339844 58.953125 128.0625 60.148438 C 128.585938 61.015625 129.496094 61.4375 130.039062 62.253906 C 130.738281 63.296875 131.074219 68.570312 131.023438 70.296875 L 131.078125 70.019531 Z M 131.074219 70.023438 " fill-opacity="1" fill-rule="evenodd"/><path fill="#000000" d="M 114.480469 89.496094 C 110.632812 89.496094 106.679688 87.953125 103.996094 85.105469 C 102.4375 83.449219 101.632812 81.492188 100.992188 79.628906 C 99.257812 74.558594 98.5 69.191406 98.738281 63.675781 C 98.917969 59.363281 99.828125 56.199219 101.597656 53.722656 C 103.230469 51.441406 105.730469 49.554688 109.226562 47.960938 C 112.863281 46.304688 117.234375 47 120.914062 49.8125 C 123.367188 51.6875 125.277344 53.839844 126.582031 56.210938 C 126.90625 56.792969 127.152344 57.414062 127.394531 58.015625 C 127.664062 58.683594 127.941406 59.378906 128.316406 59.996094 C 128.566406 60.410156 128.917969 60.714844 129.285156 61.039062 C 129.640625 61.347656 130.003906 61.667969 130.289062 62.089844 C 130.847656 62.925781 131.160156 66.023438 131.277344 68.269531 C 131.378906 68.042969 131.507812 67.824219 131.664062 67.617188 C 132.625 66.332031 134.664062 65.570312 136.164062 66.484375 C 136.675781 66.796875 137.097656 67.367188 137.425781 68.183594 C 138.300781 70.351562 137.773438 73.042969 135.863281 76.1875 C 134.917969 77.753906 133.847656 78.675781 132.597656 79.011719 C 131.628906 79.269531 130.59375 79.15625 129.6875 78.992188 C 129.015625 79.863281 128.277344 80.683594 127.558594 81.480469 C 127.210938 81.867188 126.867188 82.25 126.527344 82.640625 C 124.796875 84.621094 123.019531 86.664062 120.65625 87.972656 C 118.800781 89 116.65625 89.492188 114.480469 89.492188 Z M 113.355469 47.675781 C 112.011719 47.675781 110.699219 47.949219 109.476562 48.503906 C 106.074219 50.054688 103.65625 51.875 102.085938 54.070312 C 100.382812 56.449219 99.511719 59.507812 99.332031 63.699219 C 99.101562 69.144531 99.847656 74.4375 101.558594 79.4375 C 102.175781 81.238281 102.949219 83.125 104.433594 84.695312 C 108.453125 88.964844 115.453125 90.171875 120.367188 87.449219 C 122.636719 86.191406 124.382812 84.191406 126.070312 82.257812 C 126.417969 81.859375 126.769531 81.472656 127.113281 81.082031 C 127.863281 80.25 128.640625 79.390625 129.324219 78.488281 C 129.394531 78.398438 129.511719 78.359375 129.617188 78.375 C 130.503906 78.542969 131.53125 78.679688 132.441406 78.4375 C 133.539062 78.140625 134.488281 77.304688 135.355469 75.878906 C 137.164062 72.902344 137.675781 70.390625 136.875 68.40625 C 136.59375 67.714844 136.25 67.238281 135.855469 66.992188 C 134.644531 66.253906 132.929688 66.921875 132.140625 67.976562 C 131.664062 68.613281 131.476562 69.429688 131.371094 70.070312 C 131.363281 70.113281 131.347656 70.152344 131.324219 70.1875 C 131.324219 70.226562 131.324219 70.269531 131.324219 70.304688 C 131.316406 70.464844 131.183594 70.59375 131.023438 70.59375 L 131.015625 70.59375 C 130.851562 70.589844 130.722656 70.453125 130.726562 70.285156 C 130.78125 68.488281 130.425781 63.367188 129.792969 62.421875 C 129.554688 62.0625 129.234375 61.785156 128.894531 61.488281 C 128.507812 61.148438 128.105469 60.796875 127.808594 60.304688 C 127.40625 59.644531 127.121094 58.929688 126.84375 58.234375 C 126.609375 57.652344 126.367188 57.050781 126.0625 56.5 C 124.792969 54.199219 122.941406 52.109375 120.554688 50.285156 C 118.296875 48.5625 115.777344 47.675781 113.355469 47.675781 Z M 113.355469 47.675781 " fill-opacity="1" fill-rule="nonzero"/><path fill="#000000" d="M 120.089844 43.050781 C 120.089844 43.050781 122.453125 32.226562 133.421875 39.410156 C 140.292969 43.910156 132.03125 52.203125 132.03125 52.203125 Z M 120.089844 43.050781 " fill-opacity="1" fill-rule="evenodd"/><path fill="#000000" d="M 132.03125 52.503906 C 131.96875 52.503906 131.902344 52.480469 131.851562 52.441406 L 119.910156 43.285156 C 119.816406 43.214844 119.773438 43.097656 119.800781 42.984375 C 119.839844 42.804688 120.804688 38.542969 124.324219 37.105469 C 126.828125 36.082031 129.941406 36.773438 133.585938 39.160156 C 135.285156 40.273438 136.238281 41.714844 136.421875 43.4375 C 136.867188 47.71875 132.433594 52.226562 132.242188 52.414062 C 132.183594 52.472656 132.109375 52.503906 132.03125 52.503906 Z M 120.429688 42.933594 L 132 51.804688 C 132.824219 50.910156 136.195312 47.027344 135.824219 43.5 C 135.667969 41.960938 134.804688 40.667969 133.257812 39.65625 C 129.792969 37.390625 126.863281 36.714844 124.550781 37.65625 C 121.710938 38.820312 120.648438 42.121094 120.429688 42.929688 Z M 120.429688 42.933594 " fill-opacity="1" fill-rule="nonzero"/><path fill="#000000" d="M 105.464844 55.589844 C 104.828125 60.976562 110.449219 66.546875 115.910156 65.070312 C 117.304688 66.070312 119.503906 66.253906 120.878906 65.179688 C 122.390625 66.371094 124.050781 67.363281 125.925781 67.851562 C 126.835938 68.089844 127.902344 68.289062 128.832031 68.039062 C 129.800781 69.707031 130.277344 71.492188 130.523438 73.390625 C 130.953125 68.667969 132.789062 65.996094 134.484375 66.28125 C 134.695312 60.488281 134.601562 54.117188 131.085938 49.179688 C 126.347656 42.523438 118.5625 39.992188 110.6875 41.738281 C 104.039062 43.210938 98.902344 47.9375 94.703125 53.089844 C 92.996094 55.183594 91.316406 57.332031 90.070312 59.738281 C 91.804688 58.523438 93.6875 57.5625 95.640625 56.746094 C 95.472656 57.683594 95.4375 58.589844 95.417969 59.535156 C 95.363281 62.5 95.59375 67.824219 98.988281 69.136719 C 99.820312 64.933594 102.847656 58.949219 105.464844 55.589844 Z M 105.464844 55.589844 " fill-opacity="1" fill-rule="evenodd"/><path fill="#000000" d="M 130.523438 73.691406 C 130.371094 73.691406 130.246094 73.578125 130.226562 73.429688 C 129.964844 71.421875 129.476562 69.8125 128.679688 68.378906 C 127.714844 68.566406 126.667969 68.355469 125.847656 68.140625 C 124.199219 67.710938 122.570312 66.863281 120.871094 65.554688 C 119.363281 66.574219 117.203125 66.292969 115.855469 65.394531 C 113.363281 66.015625 110.695312 65.289062 108.5 63.398438 C 106.402344 61.582031 105.160156 59.035156 105.117188 56.554688 C 102.757812 59.859375 100.074219 65.1875 99.28125 69.195312 C 99.261719 69.285156 99.207031 69.355469 99.132812 69.398438 C 99.054688 69.441406 98.957031 69.445312 98.878906 69.417969 C 96.28125 68.414062 95.019531 65.085938 95.121094 59.53125 C 95.132812 58.835938 95.15625 58.046875 95.261719 57.234375 C 93.339844 58.066406 91.691406 58.96875 90.242188 59.984375 C 90.132812 60.0625 89.976562 60.054688 89.875 59.964844 C 89.769531 59.875 89.742188 59.722656 89.804688 59.601562 C 91.082031 57.140625 92.808594 54.945312 94.46875 52.902344 C 99.816406 46.34375 104.949219 42.707031 110.625 41.445312 C 118.917969 39.613281 126.652344 42.4375 131.328125 49.007812 C 134.910156 54.039062 134.988281 60.570312 134.78125 66.292969 C 134.777344 66.382812 134.738281 66.460938 134.671875 66.515625 C 134.605469 66.570312 134.523438 66.59375 134.433594 66.578125 C 134.046875 66.507812 133.660156 66.636719 133.265625 66.9375 C 132.300781 67.683594 131.148438 69.777344 130.816406 73.421875 C 130.804688 73.574219 130.679688 73.6875 130.527344 73.691406 Z M 128.832031 67.742188 C 128.933594 67.742188 129.035156 67.796875 129.089844 67.890625 C 129.714844 68.96875 130.171875 70.140625 130.488281 71.488281 C 130.9375 69.132812 131.800781 67.316406 132.902344 66.464844 C 133.316406 66.144531 133.761719 65.976562 134.199219 65.964844 C 134.386719 60.410156 134.253906 54.144531 130.84375 49.355469 C 126.308594 42.984375 118.804688 40.246094 110.753906 42.027344 C 105.21875 43.253906 100.191406 46.828125 94.929688 53.277344 C 93.535156 54.996094 92.089844 56.824219 90.921875 58.816406 C 92.277344 57.96875 93.792969 57.195312 95.523438 56.472656 C 95.625 56.433594 95.738281 56.449219 95.824219 56.515625 C 95.910156 56.582031 95.953125 56.691406 95.933594 56.800781 C 95.761719 57.757812 95.730469 58.714844 95.71875 59.539062 C 95.625 64.566406 96.652344 67.652344 98.773438 68.714844 C 99.742188 64.324219 102.773438 58.5625 105.230469 55.40625 C 105.3125 55.300781 105.453125 55.265625 105.574219 55.3125 C 105.699219 55.363281 105.777344 55.492188 105.761719 55.625 C 105.453125 58.207031 106.652344 61.011719 108.894531 62.945312 C 110.972656 64.742188 113.5 65.414062 115.835938 64.78125 C 115.917969 64.753906 116.011719 64.777344 116.085938 64.828125 C 117.304688 65.703125 119.363281 65.988281 120.695312 64.945312 C 120.804688 64.859375 120.957031 64.863281 121.0625 64.945312 C 122.761719 66.28125 124.375 67.140625 126 67.5625 C 126.816406 67.773438 127.863281 67.992188 128.753906 67.75 C 128.78125 67.746094 128.804688 67.742188 128.828125 67.742188 Z M 128.832031 67.742188 " fill-opacity="1" fill-rule="nonzero"/><path fill="#fb6cac" d="M 131.332031 88.980469 C 130.011719 89.847656 128.277344 90.300781 126.769531 90.714844 C 123.4375 91.628906 120.042969 92.023438 116.640625 92.625 C 115.734375 92.785156 114.753906 92.890625 113.832031 92.871094 C 112.628906 92.847656 111.421875 92.703125 110.464844 93.589844 C 110.09375 93.9375 109.8125 94.453125 109.585938 94.902344 C 109.347656 95.382812 109.113281 95.886719 108.960938 96.402344 C 108.332031 98.558594 107.683594 101.089844 108.027344 103.339844 C 108.171875 104.316406 108.597656 105.214844 108.925781 106.136719 C 109.871094 108.757812 109.867188 111.640625 110.96875 114.230469 C 112.613281 118.097656 117.386719 118.480469 120.230469 115.75 C 123.238281 112.863281 123.449219 108.3125 125.582031 104.890625 C 127.398438 101.972656 130.382812 99.988281 132.863281 97.695312 C 134.277344 96.382812 135.597656 94.671875 135.214844 92.617188 C 135.082031 91.878906 134.542969 91.375 134.125 90.785156 C 133.546875 89.96875 132.832031 87.992188 131.328125 88.980469 Z M 131.332031 88.980469 " fill-opacity="1" fill-rule="evenodd"/><path fill="#000000" d="M 113.179688 93.1875 C 112.582031 93.1875 111.988281 93.117188 111.429688 92.917969 C 110.847656 92.714844 110.46875 92.289062 110.394531 91.753906 C 110.308594 91.121094 110.652344 90.433594 111.269531 90 C 111.394531 89.902344 111.585938 89.933594 111.683594 90.070312 C 111.777344 90.207031 111.746094 90.390625 111.613281 90.484375 C 111.179688 90.789062 110.929688 91.265625 110.984375 91.671875 C 111.03125 91.988281 111.25 92.226562 111.625 92.355469 C 112.769531 92.761719 114.15625 92.554688 115.375 92.371094 L 117.359375 92.082031 C 121.722656 91.449219 126.234375 90.792969 130.363281 89.347656 C 131.242188 89.039062 132.238281 88.691406 132.90625 87.964844 C 133.183594 87.667969 133.289062 87.382812 133.222656 87.121094 C 133.136719 86.800781 132.792969 86.515625 132.304688 86.355469 C 131.96875 86.25 131.621094 86.1875 131.238281 86.121094 C 131.074219 86.09375 130.964844 85.941406 130.996094 85.777344 C 131.019531 85.617188 131.15625 85.496094 131.339844 85.535156 C 131.730469 85.597656 132.113281 85.667969 132.484375 85.789062 C 133.183594 86.015625 133.660156 86.445312 133.800781 86.972656 C 133.882812 87.296875 133.871094 87.800781 133.347656 88.371094 C 132.574219 89.207031 131.457031 89.597656 130.558594 89.910156 C 126.378906 91.375 121.839844 92.035156 117.445312 92.671875 L 115.464844 92.960938 C 114.738281 93.070312 113.953125 93.1875 113.179688 93.1875 Z M 113.179688 93.1875 " fill-opacity="1" fill-rule="nonzero"/><path fill="#000000" d="M 111.0625 76.316406 C 111.027344 76.316406 110.992188 76.308594 110.957031 76.296875 C 109.984375 75.921875 108.617188 74.910156 108.820312 73.664062 C 108.90625 73.144531 109.226562 72.625 109.539062 72.128906 C 109.71875 71.847656 109.886719 71.582031 109.988281 71.339844 C 110.421875 70.355469 110.6875 69.246094 110.746094 68.222656 C 110.753906 68.058594 110.875 67.925781 111.058594 67.941406 C 111.222656 67.949219 111.347656 68.089844 111.339844 68.253906 C 111.28125 69.347656 110.996094 70.53125 110.535156 71.582031 C 110.414062 71.859375 110.234375 72.144531 110.046875 72.445312 C 109.765625 72.894531 109.472656 73.359375 109.410156 73.761719 C 109.273438 74.601562 110.355469 75.425781 111.167969 75.738281 C 111.324219 75.800781 111.398438 75.972656 111.339844 76.125 C 111.296875 76.242188 111.183594 76.316406 111.0625 76.316406 Z M 111.0625 76.316406 " fill-opacity="1" fill-rule="nonzero"/><path fill="#000000" d="M 56.605469 90.515625 C 56.457031 90.515625 56.328125 90.40625 56.308594 90.257812 C 56.144531 89.035156 56.179688 87.972656 56.417969 86.914062 C 57.007812 84.296875 58.910156 82.410156 60.75 80.585938 C 61.210938 80.128906 61.667969 79.679688 62.097656 79.222656 C 62.210938 79.097656 62.394531 79.09375 62.519531 79.207031 C 62.640625 79.320312 62.644531 79.507812 62.53125 79.628906 C 62.101562 80.089844 61.636719 80.550781 61.171875 81.011719 C 59.390625 82.773438 57.550781 84.597656 57 87.042969 C 56.777344 88.035156 56.746094 89.027344 56.902344 90.175781 C 56.921875 90.339844 56.808594 90.492188 56.644531 90.511719 C 56.632812 90.515625 56.617188 90.515625 56.605469 90.515625 Z M 56.605469 90.515625 " fill-opacity="1" fill-rule="nonzero"/><path fill="#000000" d="M 49.65625 86.140625 C 49.558594 86.140625 49.460938 86.09375 49.402344 86 C 49.316406 85.863281 49.359375 85.675781 49.5 85.589844 C 52.121094 83.96875 54.46875 82.769531 56.679688 81.929688 C 56.835938 81.875 57.003906 81.949219 57.066406 82.105469 C 57.121094 82.257812 57.046875 82.429688 56.890625 82.488281 C 54.714844 83.316406 52.398438 84.496094 49.8125 86.097656 C 49.765625 86.128906 49.710938 86.144531 49.65625 86.144531 Z M 49.65625 86.140625 " fill-opacity="1" fill-rule="nonzero"/><path fill="#000000" d="M 50.753906 79.265625 C 50.667969 79.265625 50.582031 79.230469 50.523438 79.160156 C 48.851562 77.140625 47.5625 74.753906 46.316406 72.449219 L 46.125 72.09375 C 45.867188 71.617188 45.644531 71.117188 45.429688 70.636719 C 45.160156 70.042969 44.882812 69.425781 44.546875 68.867188 C 44.464844 68.726562 44.507812 68.542969 44.652344 68.457031 C 44.792969 68.375 44.972656 68.417969 45.0625 68.558594 C 45.414062 69.148438 45.699219 69.78125 45.972656 70.390625 C 46.183594 70.863281 46.40625 71.351562 46.652344 71.808594 L 46.84375 72.164062 C 48.074219 74.445312 49.347656 76.804688 50.980469 78.777344 C 51.085938 78.90625 51.070312 79.09375 50.941406 79.199219 C 50.886719 79.242188 50.820312 79.265625 50.753906 79.265625 Z M 50.753906 79.265625 " fill-opacity="1" fill-rule="nonzero"/><path fill="#000000" d="M 48.621094 106.542969 C 48.480469 106.542969 48.351562 106.441406 48.328125 106.296875 C 48.296875 106.136719 48.40625 105.980469 48.566406 105.953125 C 51.5 105.421875 54.445312 104.503906 57.289062 103.617188 C 58.199219 103.335938 59.105469 103.050781 60.011719 102.785156 C 60.6875 102.582031 61.371094 102.402344 62.050781 102.222656 C 64.601562 101.554688 67.011719 100.921875 68.941406 99.199219 C 69.066406 99.089844 69.25 99.097656 69.363281 99.222656 C 69.472656 99.34375 69.460938 99.535156 69.339844 99.644531 C 67.300781 101.460938 64.710938 102.140625 62.199219 102.800781 C 61.527344 102.976562 60.851562 103.15625 60.183594 103.355469 C 59.28125 103.625 58.375 103.90625 57.46875 104.1875 C 54.605469 105.082031 51.644531 106 48.671875 106.539062 C 48.65625 106.542969 48.636719 106.542969 48.621094 106.542969 Z M 48.621094 106.542969 " fill-opacity="1" fill-rule="nonzero"/><path fill="#000000" d="M 74.339844 133.476562 C 74.179688 133.476562 74.042969 133.347656 74.039062 133.1875 L 74.007812 132.222656 C 73.933594 129.957031 73.855469 127.609375 73.496094 125.339844 C 73.1875 123.390625 72.78125 121.417969 72.386719 119.511719 C 71.9375 117.328125 71.46875 115.066406 71.148438 112.816406 C 71.125 112.652344 71.238281 112.5 71.402344 112.476562 C 71.578125 112.449219 71.714844 112.566406 71.738281 112.730469 C 72.058594 114.964844 72.523438 117.214844 72.972656 119.390625 C 73.367188 121.304688 73.777344 123.28125 74.085938 125.25 C 74.449219 127.550781 74.527344 129.917969 74.605469 132.207031 L 74.636719 133.167969 C 74.644531 133.332031 74.511719 133.46875 74.347656 133.476562 Z M 74.339844 133.476562 " fill-opacity="1" fill-rule="nonzero"/><path fill="#000000" d="M 91.433594 137.652344 C 91.328125 137.652344 91.226562 137.597656 91.171875 137.5 C 90.261719 135.878906 89.140625 134.332031 88.054688 132.835938 C 87.402344 131.9375 86.726562 131.003906 86.101562 130.058594 C 86.007812 129.921875 86.046875 129.738281 86.183594 129.648438 C 86.320312 129.554688 86.503906 129.59375 86.597656 129.730469 C 87.214844 130.664062 87.886719 131.589844 88.539062 132.488281 C 89.632812 133.996094 90.765625 135.554688 91.691406 137.210938 C 91.773438 137.351562 91.722656 137.535156 91.578125 137.617188 C 91.53125 137.640625 91.484375 137.652344 91.433594 137.652344 Z M 91.433594 137.652344 " fill-opacity="1" fill-rule="nonzero"/><path fill="#000000" d="M 86.632812 136.339844 C 84.726562 136.339844 82.867188 135.972656 81.238281 135.261719 C 81.085938 135.195312 81.019531 135.019531 81.082031 134.867188 C 81.148438 134.71875 81.324219 134.652344 81.476562 134.714844 C 83.625 135.652344 86.203125 135.960938 88.722656 135.585938 C 88.875 135.558594 89.035156 135.675781 89.058594 135.839844 C 89.082031 136 88.96875 136.152344 88.808594 136.175781 C 88.082031 136.285156 87.355469 136.335938 86.628906 136.335938 Z M 86.632812 136.339844 " fill-opacity="1" fill-rule="nonzero"/><path fill="#000000" d="M 110.113281 100.140625 C 110.089844 100.140625 110.070312 100.136719 110.046875 100.132812 C 109.214844 99.949219 109.03125 99.234375 108.886719 98.664062 C 108.546875 97.367188 108.285156 96.019531 108.03125 94.714844 L 108.015625 94.644531 C 107.984375 94.480469 108.089844 94.324219 108.253906 94.292969 C 108.394531 94.261719 108.570312 94.367188 108.601562 94.527344 L 108.613281 94.601562 C 108.867188 95.894531 109.128906 97.234375 109.464844 98.515625 C 109.625 99.148438 109.746094 99.457031 110.175781 99.550781 C 110.339844 99.585938 110.4375 99.742188 110.402344 99.90625 C 110.375 100.042969 110.25 100.136719 110.113281 100.136719 Z M 110.113281 100.140625 " fill-opacity="1" fill-rule="nonzero"/><path fill="#000000" d="M 114.160156 100.238281 C 113.132812 100.238281 112.148438 100.21875 111.238281 100.195312 C 111.074219 100.191406 110.941406 100.054688 110.945312 99.890625 C 110.953125 99.726562 111.085938 99.585938 111.253906 99.597656 C 114.671875 99.683594 119.121094 99.695312 123.148438 98.964844 C 124.769531 98.667969 126.351562 98.132812 127.882812 97.613281 L 129.308594 97.140625 C 131.675781 96.359375 134.125 95.554688 135.675781 93.660156 C 135.777344 93.53125 135.96875 93.511719 136.09375 93.617188 C 136.222656 93.722656 136.242188 93.910156 136.136719 94.039062 C 134.476562 96.070312 131.828125 96.9375 129.496094 97.707031 L 128.074219 98.179688 C 126.523438 98.707031 124.917969 99.246094 123.257812 99.550781 C 120.25 100.097656 117.027344 100.238281 114.160156 100.238281 Z M 114.160156 100.238281 " fill-opacity="1" fill-rule="nonzero"/><path fill="#000000" d="M 130.90625 220.625 C 130.753906 220.625 130.625 220.511719 130.609375 220.355469 C 130.476562 218.984375 130.398438 217.589844 130.320312 216.242188 C 130.222656 214.578125 130.125 212.859375 129.925781 211.175781 L 129.84375 210.511719 C 129.320312 206.167969 128.777344 201.679688 128.695312 197.320312 C 128.695312 197.15625 128.824219 197.019531 128.988281 197.015625 C 129.183594 197.003906 129.289062 197.144531 129.292969 197.308594 C 129.375 201.636719 129.914062 206.113281 130.4375 210.441406 L 130.515625 211.105469 C 130.722656 212.804688 130.820312 214.535156 130.914062 216.207031 C 130.992188 217.550781 131.070312 218.941406 131.203125 220.300781 C 131.21875 220.464844 131.101562 220.609375 130.9375 220.625 C 130.925781 220.625 130.917969 220.625 130.90625 220.625 Z M 130.90625 220.625 " fill-opacity="1" fill-rule="nonzero"/><path fill="#000000" d="M 169.359375 135.359375 C 169.261719 135.359375 169.167969 135.3125 169.109375 135.230469 C 168.382812 134.167969 167.332031 133.328125 166.316406 132.519531 C 165.09375 131.542969 163.832031 130.539062 163.050781 129.113281 C 162.972656 128.96875 163.027344 128.785156 163.167969 128.707031 C 163.320312 128.628906 163.496094 128.679688 163.574219 128.824219 C 164.300781 130.148438 165.457031 131.070312 166.6875 132.050781 C 167.738281 132.890625 168.824219 133.753906 169.605469 134.890625 C 169.699219 135.027344 169.664062 135.210938 169.527344 135.304688 C 169.472656 135.339844 169.414062 135.355469 169.359375 135.355469 Z M 169.359375 135.359375 " fill-opacity="1" fill-rule="nonzero"/><path fill="#000000" d="M 169.660156 129.785156 C 169.570312 129.785156 169.480469 129.746094 169.421875 129.667969 C 168.933594 129.03125 168.464844 128.382812 167.996094 127.738281 C 167.140625 126.5625 166.253906 125.34375 165.292969 124.207031 C 165.1875 124.082031 165.203125 123.890625 165.328125 123.785156 C 165.457031 123.679688 165.644531 123.695312 165.746094 123.820312 C 166.726562 124.976562 167.617188 126.203125 168.476562 127.386719 C 168.945312 128.03125 169.410156 128.671875 169.894531 129.308594 C 169.996094 129.441406 169.96875 129.628906 169.839844 129.726562 C 169.785156 129.769531 169.722656 129.789062 169.660156 129.789062 Z M 169.660156 129.785156 " fill-opacity="1" fill-rule="nonzero"/><path fill="#000000" d="M 112.855469 81.1875 C 111.621094 81.1875 109.222656 80.332031 109.121094 80.292969 C 108.964844 80.238281 108.886719 80.066406 108.9375 79.910156 C 108.996094 79.757812 109.167969 79.679688 109.320312 79.730469 C 109.34375 79.742188 111.722656 80.589844 112.855469 80.589844 C 113.984375 80.589844 116.230469 80.289062 116.496094 80.175781 C 116.835938 80.035156 118.683594 79.394531 118.765625 79.371094 C 118.925781 79.3125 119.089844 79.398438 119.144531 79.554688 C 119.195312 79.710938 119.113281 79.878906 118.957031 79.933594 C 118.296875 80.160156 116.984375 80.617188 116.730469 80.726562 C 116.335938 80.890625 114.027344 81.1875 112.855469 81.1875 Z M 112.855469 81.1875 " fill-opacity="1" fill-rule="nonzero"/><path fill="#000000" d="M 120.296875 74.667969 C 120.296875 74.832031 120.238281 74.972656 120.121094 75.089844 C 120.007812 75.207031 119.867188 75.261719 119.703125 75.261719 C 119.539062 75.261719 119.398438 75.207031 119.28125 75.089844 C 119.164062 74.972656 119.109375 74.832031 119.109375 74.667969 C 119.109375 74.503906 119.164062 74.367188 119.28125 74.25 C 119.398438 74.132812 119.539062 74.074219 119.703125 74.074219 C 119.867188 74.074219 120.007812 74.132812 120.121094 74.25 C 120.238281 74.367188 120.296875 74.503906 120.296875 74.667969 Z M 120.296875 74.667969 " fill-opacity="1" fill-rule="nonzero"/><path fill="#000000" d="M 119.703125 75.5625 C 119.210938 75.5625 118.808594 75.160156 118.808594 74.671875 C 118.808594 74.179688 119.210938 73.777344 119.703125 73.777344 C 120.195312 73.777344 120.59375 74.179688 120.59375 74.671875 C 120.59375 75.164062 120.195312 75.5625 119.703125 75.5625 Z M 119.703125 74.375 C 119.539062 74.375 119.40625 74.507812 119.40625 74.671875 C 119.40625 74.835938 119.539062 74.964844 119.703125 74.964844 C 119.867188 74.964844 119.996094 74.832031 119.996094 74.671875 C 119.996094 74.507812 119.867188 74.375 119.703125 74.375 Z M 119.703125 74.375 " fill-opacity="1" fill-rule="nonzero"/><g clip-path="url(#cee90a9c53)"><g clip-path="url(#84d5941860)"><g clip-path="url(#eb2c36f3e5)"><path fill="#0da487" d="M 37.238281 20.863281 C 35.464844 19.707031 33.976562 18.15625 32.726562 16.460938 C 31.476562 14.765625 30.132812 12.785156 30.140625 10.597656 C 30.148438 9.253906 30.878906 7.839844 32.144531 7.390625 C 33 7.082031 33.988281 7.265625 34.792969 7.707031 C 36.617188 8.71875 37.910156 10.941406 38.703125 12.800781 C 39.65625 14.996094 40.070312 17.289062 39.941406 19.679688 " fill-opacity="1" fill-rule="nonzero"/></g></g></g><g clip-path="url(#f10a1d7137)"><g clip-path="url(#b9a9845796)"><g clip-path="url(#a670d1df10)"><path fill="#0da487" d="M 40.304688 19.839844 C 40.808594 17.625 41.453125 15.417969 42.558594 13.433594 C 43.667969 11.449219 45.273438 9.691406 47.339844 8.730469 C 48.578125 8.15625 50.175781 7.933594 51.210938 8.824219 C 52.390625 9.839844 52.203125 11.761719 51.503906 13.15625 C 49.773438 16.609375 45.640625 19.460938 42.265625 21.257812 " fill-opacity="1" fill-rule="nonzero"/></g></g></g><g clip-path="url(#30cb81cd0e)"><g clip-path="url(#ec072062eb)"><g clip-path="url(#fbaf7d2ac0)"><path fill="#0da487" d="M 42.554688 21.378906 C 44.691406 20.617188 46.898438 19.964844 49.167969 19.828125 C 51.4375 19.691406 53.78125 20.105469 55.699219 21.328125 C 56.851562 22.058594 57.902344 23.285156 57.703125 24.640625 C 57.480469 26.179688 55.765625 27.054688 54.210938 27.21875 C 50.371094 27.617188 45.742188 25.667969 42.410156 23.796875 " fill-opacity="1" fill-rule="nonzero"/></g></g></g><g clip-path="url(#b72e456075)"><g clip-path="url(#49bd485d89)"><g clip-path="url(#ae76688038)"><path fill="#0da487" d="M 42.511719 24.292969 C 44.371094 25.601562 46.171875 27.03125 47.589844 28.804688 C 49.007812 30.582031 50.023438 32.742188 50.132812 35.011719 C 50.195312 36.375 49.796875 37.941406 48.578125 38.558594 C 47.1875 39.265625 45.484375 38.367188 44.457031 37.1875 C 41.917969 34.277344 40.84375 29.375 40.460938 25.570312 " fill-opacity="1" fill-rule="nonzero"/></g></g></g><g clip-path="url(#0040b2d161)"><g clip-path="url(#c8b9696d7b)"><g clip-path="url(#8054fa7700)"><path fill="#0da487" d="M 39.773438 25.640625 C 40.007812 27.902344 40.109375 30.199219 39.699219 32.433594 C 39.285156 34.667969 38.324219 36.851562 36.683594 38.421875 C 35.695312 39.367188 34.25 40.089844 32.984375 39.578125 C 31.539062 38.992188 31.097656 37.113281 31.316406 35.566406 C 31.847656 31.742188 34.84375 27.714844 37.464844 24.929688 " fill-opacity="1" fill-rule="nonzero"/></g></g></g><g clip-path="url(#d68eae753d)"><g clip-path="url(#3d3eba54f4)"><g clip-path="url(#5ad35d6343)"><path fill="#0da487" d="M 37.210938 24.722656 C 36.3125 25.644531 35.117188 26.214844 33.941406 26.753906 C 32.90625 27.226562 31.863281 27.691406 30.757812 27.96875 C 28.625 28.503906 26.535156 28.355469 24.5 27.523438 C 23.992188 27.3125 23.496094 27.058594 23.113281 26.667969 C 21.929688 25.460938 22.277344 23.304688 23.472656 22.105469 C 24.664062 20.90625 26.429688 20.480469 28.117188 20.339844 C 31.105469 20.09375 33.984375 20.542969 36.757812 21.691406 " fill-opacity="1" fill-rule="nonzero"/></g></g></g><g clip-path="url(#7c4e9633f7)"><g clip-path="url(#48228bf49a)"><g clip-path="url(#4b4465e903)"><path fill="#fabf7a" d="M 42.4375 21.761719 C 42.566406 22.121094 42.621094 22.492188 42.601562 22.871094 C 42.585938 23.253906 42.492188 23.617188 42.328125 23.960938 C 42.167969 24.304688 41.945312 24.605469 41.660156 24.863281 C 41.378906 25.121094 41.058594 25.3125 40.699219 25.441406 C 40.339844 25.566406 39.96875 25.621094 39.585938 25.605469 C 39.207031 25.585938 38.84375 25.496094 38.5 25.332031 C 38.152344 25.167969 37.851562 24.945312 37.597656 24.660156 C 37.339844 24.378906 37.148438 24.058594 37.019531 23.699219 C 36.890625 23.339844 36.835938 22.96875 36.855469 22.589844 C 36.875 22.207031 36.964844 21.84375 37.128906 21.5 C 37.292969 21.15625 37.515625 20.855469 37.796875 20.597656 C 38.082031 20.34375 38.402344 20.148438 38.761719 20.019531 C 39.121094 19.894531 39.492188 19.839844 39.871094 19.855469 C 40.253906 19.875 40.617188 19.96875 40.960938 20.128906 C 41.304688 20.292969 41.605469 20.515625 41.863281 20.800781 C 42.117188 21.082031 42.308594 21.402344 42.4375 21.761719 Z M 42.4375 21.761719 " fill-opacity="1" fill-rule="nonzero"/></g></g></g></svg>