<svg xmlns="http://www.w3.org/2000/svg" xmlns:xlink="http://www.w3.org/1999/xlink" width="300" zoomAndPan="magnify" viewBox="0 0 224.87999 344.999992" height="460" preserveAspectRatio="xMidYMid meet" version="1.0"><defs><clipPath id="ea10cf8f8d"><path d="M 140 177 L 197 177 L 197 260 L 140 260 Z M 140 177 " clip-rule="nonzero"/></clipPath><clipPath id="37c0dd8f3c"><path d="M 127.507812 174.761719 L 208.570312 159.664062 L 224.351562 244.410156 L 143.289062 259.507812 Z M 127.507812 174.761719 " clip-rule="nonzero"/></clipPath><clipPath id="927e369526"><path d="M 127.507812 174.761719 L 208.570312 159.664062 L 224.351562 244.410156 L 143.289062 259.507812 Z M 127.507812 174.761719 " clip-rule="nonzero"/></clipPath><clipPath id="cd5c8d9ece"><path d="M 185 164 L 210 164 L 210 189 L 185 189 Z M 185 164 " clip-rule="nonzero"/></clipPath><clipPath id="c51f3e4822"><path d="M 127.507812 174.761719 L 208.570312 159.664062 L 224.351562 244.410156 L 143.289062 259.507812 Z M 127.507812 174.761719 " clip-rule="nonzero"/></clipPath><clipPath id="9d9864b218"><path d="M 127.507812 174.761719 L 208.570312 159.664062 L 224.351562 244.410156 L 143.289062 259.507812 Z M 127.507812 174.761719 " clip-rule="nonzero"/></clipPath><clipPath id="43a956e67d"><path d="M 170 171 L 177 171 L 177 201 L 170 201 Z M 170 171 " clip-rule="nonzero"/></clipPath><clipPath id="1a0a4a4290"><path d="M 127.507812 174.761719 L 208.570312 159.664062 L 224.351562 244.410156 L 143.289062 259.507812 Z M 127.507812 174.761719 " clip-rule="nonzero"/></clipPath><clipPath id="11185eb7bf"><path d="M 127.507812 174.761719 L 208.570312 159.664062 L 224.351562 244.410156 L 143.289062 259.507812 Z M 127.507812 174.761719 " clip-rule="nonzero"/></clipPath><clipPath id="5c52b76385"><path d="M 174 188 L 208 188 L 208 201 L 174 201 Z M 174 188 " clip-rule="nonzero"/></clipPath><clipPath id="42c887802a"><path d="M 127.507812 174.761719 L 208.570312 159.664062 L 224.351562 244.410156 L 143.289062 259.507812 Z M 127.507812 174.761719 " clip-rule="nonzero"/></clipPath><clipPath id="8bcaaeedca"><path d="M 127.507812 174.761719 L 208.570312 159.664062 L 224.351562 244.410156 L 143.289062 259.507812 Z M 127.507812 174.761719 " clip-rule="nonzero"/></clipPath><clipPath id="ba4494651a"><path d="M 156 183 L 166 183 L 166 214 L 156 214 Z M 156 183 " clip-rule="nonzero"/></clipPath><clipPath id="56ecdbacd1"><path d="M 127.507812 174.761719 L 208.570312 159.664062 L 224.351562 244.410156 L 143.289062 259.507812 Z M 127.507812 174.761719 " clip-rule="nonzero"/></clipPath><clipPath id="192e9a19f8"><path d="M 127.507812 174.761719 L 208.570312 159.664062 L 224.351562 244.410156 L 143.289062 259.507812 Z M 127.507812 174.761719 " clip-rule="nonzero"/></clipPath><clipPath id="b200bf1052"><path d="M 165 202 L 201 202 L 201 214 L 165 214 Z M 165 202 " clip-rule="nonzero"/></clipPath><clipPath id="ebe8857fc2"><path d="M 127.507812 174.761719 L 208.570312 159.664062 L 224.351562 244.410156 L 143.289062 259.507812 Z M 127.507812 174.761719 " clip-rule="nonzero"/></clipPath><clipPath id="f7528ee188"><path d="M 127.507812 174.761719 L 208.570312 159.664062 L 224.351562 244.410156 L 143.289062 259.507812 Z M 127.507812 174.761719 " clip-rule="nonzero"/></clipPath><clipPath id="3f5c8ebb60"><path d="M 143 198 L 159 198 L 159 226 L 143 226 Z M 143 198 " clip-rule="nonzero"/></clipPath><clipPath id="25cf867333"><path d="M 127.507812 174.761719 L 208.570312 159.664062 L 224.351562 244.410156 L 143.289062 259.507812 Z M 127.507812 174.761719 " clip-rule="nonzero"/></clipPath><clipPath id="2f1c531216"><path d="M 127.507812 174.761719 L 208.570312 159.664062 L 224.351562 244.410156 L 143.289062 259.507812 Z M 127.507812 174.761719 " clip-rule="nonzero"/></clipPath><clipPath id="2de0ae807e"><path d="M 158 216 L 193 216 L 193 226 L 158 226 Z M 158 216 " clip-rule="nonzero"/></clipPath><clipPath id="65a3994b21"><path d="M 127.507812 174.761719 L 208.570312 159.664062 L 224.351562 244.410156 L 143.289062 259.507812 Z M 127.507812 174.761719 " clip-rule="nonzero"/></clipPath><clipPath id="7af6cd54c3"><path d="M 127.507812 174.761719 L 208.570312 159.664062 L 224.351562 244.410156 L 143.289062 259.507812 Z M 127.507812 174.761719 " clip-rule="nonzero"/></clipPath><clipPath id="7bf58a7749"><path d="M 135 210 L 152 210 L 152 241 L 135 241 Z M 135 210 " clip-rule="nonzero"/></clipPath><clipPath id="5336e4c75b"><path d="M 127.507812 174.761719 L 208.570312 159.664062 L 224.351562 244.410156 L 143.289062 259.507812 Z M 127.507812 174.761719 " clip-rule="nonzero"/></clipPath><clipPath id="e32d6c3b1f"><path d="M 127.507812 174.761719 L 208.570312 159.664062 L 224.351562 244.410156 L 143.289062 259.507812 Z M 127.507812 174.761719 " clip-rule="nonzero"/></clipPath><clipPath id="9d184a6426"><path d="M 151 226 L 188 226 L 188 241 L 151 241 Z M 151 226 " clip-rule="nonzero"/></clipPath><clipPath id="216d18a3b4"><path d="M 127.507812 174.761719 L 208.570312 159.664062 L 224.351562 244.410156 L 143.289062 259.507812 Z M 127.507812 174.761719 " clip-rule="nonzero"/></clipPath><clipPath id="9b14569e13"><path d="M 127.507812 174.761719 L 208.570312 159.664062 L 224.351562 244.410156 L 143.289062 259.507812 Z M 127.507812 174.761719 " clip-rule="nonzero"/></clipPath><clipPath id="051e7f5a19"><path d="M 24 136 L 57 136 L 57 198 L 24 198 Z M 24 136 " clip-rule="nonzero"/></clipPath><clipPath id="6e0b94e862"><path d="M 18.707031 122.277344 L 72.820312 140.085938 L 54.074219 197.046875 L -0.0390625 179.238281 Z M 18.707031 122.277344 " clip-rule="nonzero"/></clipPath><clipPath id="fa743330be"><path d="M 73.167969 140.199219 L 19.050781 122.390625 L 0.304688 179.351562 L 54.417969 197.164062 Z M 73.167969 140.199219 " clip-rule="nonzero"/></clipPath><clipPath id="535645a513"><path d="M 17 125 L 32 125 L 32 145 L 17 145 Z M 17 125 " clip-rule="nonzero"/></clipPath><clipPath id="13e1d6abb2"><path d="M 18.707031 122.277344 L 72.820312 140.085938 L 54.074219 197.046875 L -0.0390625 179.238281 Z M 18.707031 122.277344 " clip-rule="nonzero"/></clipPath><clipPath id="a6ebdee0cd"><path d="M 73.167969 140.199219 L 19.050781 122.390625 L 0.304688 179.351562 L 54.417969 197.164062 Z M 73.167969 140.199219 " clip-rule="nonzero"/></clipPath><clipPath id="f46bb57ba5"><path d="M 37 133 L 44 133 L 44 154 L 37 154 Z M 37 133 " clip-rule="nonzero"/></clipPath><clipPath id="1c8e7559d6"><path d="M 18.707031 122.277344 L 72.820312 140.085938 L 54.074219 197.046875 L -0.0390625 179.238281 Z M 18.707031 122.277344 " clip-rule="nonzero"/></clipPath><clipPath id="51c918fb69"><path d="M 73.167969 140.199219 L 19.050781 122.390625 L 0.304688 179.351562 L 54.417969 197.164062 Z M 73.167969 140.199219 " clip-rule="nonzero"/></clipPath><clipPath id="61e5f44996"><path d="M 16 142 L 39 142 L 39 154 L 16 154 Z M 16 142 " clip-rule="nonzero"/></clipPath><clipPath id="4de97e39b1"><path d="M 18.707031 122.277344 L 72.820312 140.085938 L 54.074219 197.046875 L -0.0390625 179.238281 Z M 18.707031 122.277344 " clip-rule="nonzero"/></clipPath><clipPath id="c76115f9fd"><path d="M 73.167969 140.199219 L 19.050781 122.390625 L 0.304688 179.351562 L 54.417969 197.164062 Z M 73.167969 140.199219 " clip-rule="nonzero"/></clipPath><clipPath id="d976b94c10"><path d="M 43 143 L 53 143 L 53 164 L 43 164 Z M 43 143 " clip-rule="nonzero"/></clipPath><clipPath id="f773d9e109"><path d="M 18.707031 122.277344 L 72.820312 140.085938 L 54.074219 197.046875 L -0.0390625 179.238281 Z M 18.707031 122.277344 " clip-rule="nonzero"/></clipPath><clipPath id="992df39000"><path d="M 73.167969 140.199219 L 19.050781 122.390625 L 0.304688 179.351562 L 54.417969 197.164062 Z M 73.167969 140.199219 " clip-rule="nonzero"/></clipPath><clipPath id="629881faea"><path d="M 20 152 L 44 152 L 44 164 L 20 164 Z M 20 152 " clip-rule="nonzero"/></clipPath><clipPath id="cde86b6b46"><path d="M 18.707031 122.277344 L 72.820312 140.085938 L 54.074219 197.046875 L -0.0390625 179.238281 Z M 18.707031 122.277344 " clip-rule="nonzero"/></clipPath><clipPath id="9529712ab1"><path d="M 73.167969 140.199219 L 19.050781 122.390625 L 0.304688 179.351562 L 54.417969 197.164062 Z M 73.167969 140.199219 " clip-rule="nonzero"/></clipPath><clipPath id="cfcd9ad184"><path d="M 47 154 L 60 154 L 60 173 L 47 173 Z M 47 154 " clip-rule="nonzero"/></clipPath><clipPath id="9024caa4b0"><path d="M 18.707031 122.277344 L 72.820312 140.085938 L 54.074219 197.046875 L -0.0390625 179.238281 Z M 18.707031 122.277344 " clip-rule="nonzero"/></clipPath><clipPath id="dc7186a544"><path d="M 73.167969 140.199219 L 19.050781 122.390625 L 0.304688 179.351562 L 54.417969 197.164062 Z M 73.167969 140.199219 " clip-rule="nonzero"/></clipPath><clipPath id="82f1dacfe3"><path d="M 24 163 L 48 163 L 48 173 L 24 173 Z M 24 163 " clip-rule="nonzero"/></clipPath><clipPath id="0901b5996b"><path d="M 18.707031 122.277344 L 72.820312 140.085938 L 54.074219 197.046875 L -0.0390625 179.238281 Z M 18.707031 122.277344 " clip-rule="nonzero"/></clipPath><clipPath id="ccdfcacee4"><path d="M 73.167969 140.199219 L 19.050781 122.390625 L 0.304688 179.351562 L 54.417969 197.164062 Z M 73.167969 140.199219 " clip-rule="nonzero"/></clipPath><clipPath id="779b5178dd"><path d="M 50 163 L 65 163 L 65 184 L 50 184 Z M 50 163 " clip-rule="nonzero"/></clipPath><clipPath id="8a81806693"><path d="M 18.707031 122.277344 L 72.820312 140.085938 L 54.074219 197.046875 L -0.0390625 179.238281 Z M 18.707031 122.277344 " clip-rule="nonzero"/></clipPath><clipPath id="e56a66adfa"><path d="M 73.167969 140.199219 L 19.050781 122.390625 L 0.304688 179.351562 L 54.417969 197.164062 Z M 73.167969 140.199219 " clip-rule="nonzero"/></clipPath><clipPath id="4342d20e09"><path d="M 26 170 L 51 170 L 51 184 L 26 184 Z M 26 170 " clip-rule="nonzero"/></clipPath><clipPath id="296175dfde"><path d="M 18.707031 122.277344 L 72.820312 140.085938 L 54.074219 197.046875 L -0.0390625 179.238281 Z M 18.707031 122.277344 " clip-rule="nonzero"/></clipPath><clipPath id="a60b76af58"><path d="M 73.167969 140.199219 L 19.050781 122.390625 L 0.304688 179.351562 L 54.417969 197.164062 Z M 73.167969 140.199219 " clip-rule="nonzero"/></clipPath><clipPath id="95713ae9ab"><path d="M 110 0.09375 L 150 0.09375 L 150 30 L 110 30 Z M 110 0.09375 " clip-rule="nonzero"/></clipPath><clipPath id="6e6ac48469"><path d="M 182 0.09375 L 193 0.09375 L 193 19 L 182 19 Z M 182 0.09375 " clip-rule="nonzero"/></clipPath><clipPath id="0da606a151"><path d="M 192 21 L 211.320312 21 L 211.320312 34 L 192 34 Z M 192 21 " clip-rule="nonzero"/></clipPath><clipPath id="e6618e20e4"><path d="M 167.09375 13 L 187 13 L 187 25 L 167.09375 25 Z M 167.09375 13 " clip-rule="nonzero"/></clipPath></defs><g clip-path="url(#ea10cf8f8d)"><g clip-path="url(#37c0dd8f3c)"><g clip-path="url(#927e369526)"><path stroke-linecap="butt" transform="matrix(0.240646, -0.0448165, 0.0448165, 0.240646, 128.641025, 179.241922)" fill="none" stroke-linejoin="miter" d="M 14.293513 332.374074 C 56.287719 224.636887 137.00469 130.798917 241.994964 67.696669 " stroke="#4d704f" stroke-width="2" stroke-opacity="1" stroke-miterlimit="10"/></g></g></g><g clip-path="url(#cd5c8d9ece)"><g clip-path="url(#c51f3e4822)"><g clip-path="url(#9d9864b218)"><path fill="#0da487" d="M 185.910156 188.222656 C 187.109375 184.367188 188.863281 180.78125 191.175781 177.464844 C 192.703125 175.226562 206.078125 160.144531 209.171875 166.113281 C 210.132812 167.96875 207.96875 170.054688 206.996094 171.515625 C 205.539062 173.722656 203.34375 175.402344 201.222656 177.164062 C 196.363281 181.1875 191.261719 184.875 185.910156 188.222656 Z M 185.910156 188.222656 " fill-opacity="1" fill-rule="nonzero"/></g></g></g><g clip-path="url(#43a956e67d)"><g clip-path="url(#1a0a4a4290)"><g clip-path="url(#11185eb7bf)"><path fill="#0da487" d="M 174.535156 200.445312 C 172.074219 195.566406 170.964844 190.222656 170.625 184.925781 C 170.507812 183.058594 170.289062 171.59375 173.953125 171.769531 C 175.75 171.855469 176.285156 176.085938 176.421875 177.085938 C 176.847656 180.203125 176.867188 183.332031 176.886719 186.460938 C 176.917969 191.023438 176.820312 195.957031 174.535156 200.445312 Z M 174.535156 200.445312 " fill-opacity="1" fill-rule="nonzero"/></g></g></g><g clip-path="url(#5c52b76385)"><g clip-path="url(#42c887802a)"><g clip-path="url(#8bcaaeedca)"><path fill="#0da487" d="M 174.507812 200.90625 C 176.800781 196.429688 205.417969 184.28125 207.1875 190.089844 C 208.015625 192.816406 197.050781 195.511719 195.304688 196.0625 C 191.703125 197.191406 188.007812 197.863281 184.296875 198.652344 C 181.363281 199.289062 178.171875 200.328125 174.507812 200.90625 Z M 174.507812 200.90625 " fill-opacity="1" fill-rule="nonzero"/></g></g></g><g clip-path="url(#ba4494651a)"><g clip-path="url(#56ecdbacd1)"><g clip-path="url(#192e9a19f8)"><path fill="#0da487" d="M 165.128906 213.398438 C 160.648438 209.382812 158.195312 202.328125 156.957031 196.992188 C 156.507812 195.03125 154.234375 182.65625 160.335938 184.011719 C 162.550781 184.5 163.273438 188.578125 163.550781 190.199219 C 164.152344 193.679688 164.609375 197.207031 165.050781 200.707031 C 165.613281 205.078125 164.832031 210.636719 165.128906 213.398438 Z M 165.128906 213.398438 " fill-opacity="1" fill-rule="nonzero"/></g></g></g><g clip-path="url(#b200bf1052)"><g clip-path="url(#ebe8857fc2)"><g clip-path="url(#f7528ee188)"><path fill="#0da487" d="M 165.230469 213.386719 C 169.90625 209.253906 176.796875 206.835938 182.902344 204.914062 C 187.332031 203.519531 191.648438 202.507812 196.410156 202.585938 C 198.050781 202.609375 200.964844 202.644531 200.03125 204.574219 C 198.886719 206.941406 194.664062 207.921875 192.21875 208.808594 C 185.496094 211.242188 178.570312 212.691406 171.4375 213.15625 C 169.734375 213.28125 165.746094 214.035156 165.230469 213.386719 Z M 165.230469 213.386719 " fill-opacity="1" fill-rule="nonzero"/></g></g></g><g clip-path="url(#3f5c8ebb60)"><g clip-path="url(#25cf867333)"><g clip-path="url(#2f1c531216)"><path fill="#0da487" d="M 158.117188 225.851562 C 157.964844 225.265625 155.96875 224.359375 155.453125 223.933594 C 153.5 222.320312 152.136719 220.246094 150.898438 218.179688 C 149.65625 216.109375 139.539062 199.203125 144.835938 198.179688 C 146.671875 197.835938 148.6875 201.355469 149.410156 202.414062 C 151.464844 205.421875 152.714844 208.785156 153.914062 212.125 C 154.738281 214.410156 155.472656 216.722656 156.113281 219.0625 C 156.730469 221.347656 157.515625 223.566406 158.117188 225.851562 Z M 158.117188 225.851562 " fill-opacity="1" fill-rule="nonzero"/></g></g></g><g clip-path="url(#2de0ae807e)"><g clip-path="url(#65a3994b21)"><g clip-path="url(#7af6cd54c3)"><path fill="#0da487" d="M 158.117188 225.882812 C 160.199219 221.960938 165.78125 220.0625 170.089844 218.710938 C 174.101562 217.460938 178.199219 216.707031 182.394531 216.445312 C 184.347656 216.324219 186.300781 216.3125 188.253906 216.40625 C 189.351562 216.453125 191.925781 216.421875 192.53125 217.496094 C 194.929688 221.78125 171.277344 224.859375 169.230469 225.125 C 165.585938 225.609375 161.816406 226.21875 158.117188 225.882812 " fill-opacity="1" fill-rule="nonzero"/></g></g></g><g clip-path="url(#7bf58a7749)"><g clip-path="url(#5336e4c75b)"><g clip-path="url(#e32d6c3b1f)"><path fill="#0da487" d="M 151.679688 240.789062 C 145.046875 236.574219 139.785156 229.722656 137.28125 222.886719 C 136 219.375 135.050781 215.3125 135.429688 211.609375 C 135.566406 210.269531 135.332031 210.113281 136.429688 210.300781 C 138.378906 210.636719 141.199219 213.894531 142.203125 215.242188 C 144.394531 218.171875 145.8125 221.609375 147.113281 224.902344 C 149.152344 230.054688 151.3125 235.398438 151.679688 240.789062 Z M 151.679688 240.789062 " fill-opacity="1" fill-rule="nonzero"/></g></g></g><g clip-path="url(#9d184a6426)"><g clip-path="url(#216d18a3b4)"><g clip-path="url(#9b14569e13)"><path fill="#0da487" d="M 152.890625 239.773438 C 159.492188 234.035156 168.390625 230.339844 177.234375 228.019531 C 179.195312 227.507812 187.550781 225.390625 187.855469 228.804688 C 188.191406 232.519531 180.992188 233.960938 178.242188 234.675781 C 173.789062 235.835938 169.40625 237.144531 164.980469 238.332031 C 161.496094 239.265625 155.457031 241.503906 151.699219 240.632812 C 152.335938 240.3125 153.015625 240.023438 152.890625 239.773438 Z M 152.890625 239.773438 " fill-opacity="1" fill-rule="nonzero"/></g></g></g><g clip-path="url(#051e7f5a19)"><g clip-path="url(#6e0b94e862)"><g clip-path="url(#fa743330be)"><path stroke-linecap="butt" transform="matrix(-0.161648, -0.0531989, -0.0531989, 0.161648, 71.968761, 143.185258)" fill="none" stroke-linejoin="miter" d="M 14.292364 332.37258 C 56.294593 224.645023 137.009831 130.7938 241.992155 67.692507 " stroke="#4d704f" stroke-width="2" stroke-opacity="1" stroke-miterlimit="10"/></g></g></g><g clip-path="url(#535645a513)"><g clip-path="url(#13e1d6abb2)"><g clip-path="url(#a6ebdee0cd)"><path fill="#0da487" d="M 31.675781 144.0625 C 31.207031 141.292969 30.332031 138.660156 29.046875 136.160156 C 28.203125 134.476562 20.386719 122.84375 17.703125 126.671875 C 16.867188 127.859375 18.164062 129.496094 18.699219 130.59375 C 19.5 132.25 20.855469 133.613281 22.152344 135.019531 C 25.128906 138.246094 28.300781 141.257812 31.675781 144.0625 Z M 31.675781 144.0625 " fill-opacity="1" fill-rule="nonzero"/></g></g></g><g clip-path="url(#f46bb57ba5)"><g clip-path="url(#1c8e7559d6)"><g clip-path="url(#51c918fb69)"><path fill="#0da487" d="M 38.378906 153.539062 C 40.53125 150.40625 41.789062 146.824219 42.511719 143.207031 C 42.769531 141.929688 43.980469 134.054688 41.441406 133.832031 C 40.195312 133.726562 39.433594 136.589844 39.246094 137.269531 C 38.664062 139.375 38.363281 141.53125 38.058594 143.683594 C 37.613281 146.824219 37.222656 150.230469 38.378906 153.539062 Z M 38.378906 153.539062 " fill-opacity="1" fill-rule="nonzero"/></g></g></g><g clip-path="url(#61e5f44996)"><g clip-path="url(#4de97e39b1)"><g clip-path="url(#c76115f9fd)"><path fill="#0da487" d="M 38.359375 153.859375 C 37.191406 150.558594 18.601562 139.535156 16.84375 143.375 C 16.019531 145.175781 23.324219 148.050781 24.476562 148.589844 C 26.851562 149.703125 29.339844 150.507812 31.820312 151.398438 C 33.785156 152.105469 35.886719 153.121094 38.359375 153.859375 Z M 38.359375 153.859375 " fill-opacity="1" fill-rule="nonzero"/></g></g></g><g clip-path="url(#d976b94c10)"><g clip-path="url(#f773d9e109)"><g clip-path="url(#992df39000)"><path fill="#0da487" d="M 43.660156 163.335938 C 47.121094 160.984375 49.464844 156.351562 50.8125 152.789062 C 51.304688 151.480469 54.019531 143.164062 49.6875 143.53125 C 48.117188 143.664062 47.242188 146.40625 46.898438 147.496094 C 46.164062 149.839844 45.519531 152.230469 44.890625 154.597656 C 44.097656 157.558594 44.121094 161.460938 43.660156 163.335938 Z M 43.660156 163.335938 " fill-opacity="1" fill-rule="nonzero"/></g></g></g><g clip-path="url(#629881faea)"><g clip-path="url(#cde86b6b46)"><g clip-path="url(#9529712ab1)"><path fill="#0da487" d="M 43.59375 163.316406 C 40.753906 160.035156 36.230469 157.730469 32.203125 155.839844 C 29.277344 154.46875 26.398438 153.371094 23.109375 152.984375 C 21.980469 152.847656 19.96875 152.601562 20.429688 154.019531 C 21 155.753906 23.820312 156.820312 25.421875 157.660156 C 29.828125 159.960938 34.464844 161.601562 39.335938 162.582031 C 40.5 162.824219 43.175781 163.714844 43.59375 163.316406 Z M 43.59375 163.316406 " fill-opacity="1" fill-rule="nonzero"/></g></g></g><g clip-path="url(#cfcd9ad184)"><g clip-path="url(#9024caa4b0)"><g clip-path="url(#dc7186a544)"><path fill="#0da487" d="M 47.335938 172.566406 C 47.496094 172.175781 48.953125 171.738281 49.347656 171.488281 C 50.84375 170.5625 51.976562 169.257812 53.023438 167.949219 C 54.070312 166.636719 62.609375 155.929688 59.054688 154.730469 C 57.820312 154.324219 56.105469 156.5625 55.507812 157.226562 C 53.816406 159.105469 52.644531 161.308594 51.503906 163.496094 C 50.726562 164.996094 50.003906 166.523438 49.347656 168.074219 C 48.710938 169.589844 47.964844 171.046875 47.335938 172.566406 Z M 47.335938 172.566406 " fill-opacity="1" fill-rule="nonzero"/></g></g></g><g clip-path="url(#82f1dacfe3)"><g clip-path="url(#0901b5996b)"><g clip-path="url(#ccdfcacee4)"><path fill="#0da487" d="M 47.335938 172.589844 C 46.261719 169.691406 42.59375 167.867188 39.75 166.535156 C 37.101562 165.300781 34.347656 164.402344 31.484375 163.832031 C 30.148438 163.570312 28.804688 163.378906 27.449219 163.261719 C 26.6875 163.191406 24.914062 162.933594 24.398438 163.617188 C 22.351562 166.347656 38.363281 170.660156 39.746094 171.035156 C 42.214844 171.707031 44.753906 172.476562 47.335938 172.589844 " fill-opacity="1" fill-rule="nonzero"/></g></g></g><g clip-path="url(#779b5178dd)"><g clip-path="url(#8a81806693)"><g clip-path="url(#e56a66adfa)"><path fill="#0da487" d="M 50.386719 183.453125 C 55.347656 181.167969 59.609375 176.933594 61.96875 172.457031 C 63.175781 170.15625 64.207031 167.441406 64.289062 164.855469 C 64.320312 163.921875 64.496094 163.835938 63.722656 163.863281 C 62.347656 163.914062 60.101562 165.898438 59.285156 166.730469 C 57.503906 168.546875 56.207031 170.785156 55.007812 172.929688 C 53.121094 176.292969 51.140625 179.773438 50.386719 183.453125 Z M 50.386719 183.453125 " fill-opacity="1" fill-rule="nonzero"/></g></g></g><g clip-path="url(#4342d20e09)"><g clip-path="url(#296175dfde)"><g clip-path="url(#a60b76af58)"><path fill="#0da487" d="M 49.648438 182.644531 C 45.628906 178.074219 39.84375 174.707031 33.964844 172.285156 C 32.660156 171.753906 27.101562 169.515625 26.570312 171.84375 C 25.996094 174.371094 30.824219 176.03125 32.652344 176.777344 C 35.613281 177.992188 38.507812 179.300781 41.449219 180.527344 C 43.765625 181.492188 47.71875 183.597656 50.386719 183.34375 C 49.980469 183.066406 49.539062 182.804688 49.648438 182.644531 Z M 49.648438 182.644531 " fill-opacity="1" fill-rule="nonzero"/></g></g></g><path fill="#ffffff" d="M 117.878906 298.496094 C 117.390625 296.128906 116.707031 293.816406 115.679688 291.59375 C 114.257812 289.03125 112.402344 286.542969 109.886719 285.257812 C 107.679688 284.125 103.839844 286.203125 103.445312 288.625 C 103.039062 291.144531 105.261719 294.042969 106.171875 296.28125 C 107.824219 300.347656 110.304688 305.601562 107.996094 309.890625 C 106.980469 311.773438 105.109375 313.332031 103.578125 314.792969 C 100.625 317.617188 97.363281 319.410156 95.109375 321.941406 C 94.167969 323 94.371094 326.089844 94.371094 326.089844 C 102.855469 325.734375 110.945312 323.371094 118.648438 318.976562 C 118.816406 315.429688 119.183594 311.828125 119.046875 308.273438 C 119 307.03125 118.886719 305.789062 118.769531 304.550781 C 118.5625 302.511719 118.289062 300.484375 117.878906 298.496094 Z M 117.878906 298.496094 " fill-opacity="1" fill-rule="evenodd"/><path fill="#000000" d="M 94.371094 326.402344 C 94.207031 326.402344 94.070312 326.273438 94.0625 326.109375 C 94.050781 325.980469 93.859375 322.875 94.878906 321.734375 C 96.125 320.335938 97.65625 319.171875 99.277344 317.9375 C 100.628906 316.90625 102.03125 315.84375 103.363281 314.566406 C 103.617188 314.324219 103.882812 314.074219 104.15625 313.824219 C 105.503906 312.570312 106.902344 311.269531 107.722656 309.742188 C 109.796875 305.894531 107.832031 301.128906 106.253906 297.304688 L 105.886719 296.402344 C 105.628906 295.777344 105.273438 295.097656 104.890625 294.378906 C 103.925781 292.550781 102.832031 290.480469 103.136719 288.578125 C 103.34375 287.3125 104.421875 286.050781 105.953125 285.277344 C 107.417969 284.53125 108.941406 284.425781 110.03125 284.980469 C 112.21875 286.097656 114.15625 288.210938 115.953125 291.441406 C 116.914062 293.53125 117.640625 295.808594 118.183594 298.433594 C 118.554688 300.214844 118.835938 302.152344 119.082031 304.519531 C 119.191406 305.671875 119.3125 306.972656 119.359375 308.261719 C 119.457031 310.816406 119.292969 313.421875 119.132812 315.945312 C 119.070312 316.964844 119.007812 317.980469 118.957031 318.992188 C 118.953125 319.097656 118.894531 319.195312 118.800781 319.246094 C 111.109375 323.636719 102.894531 326.042969 94.382812 326.402344 C 94.378906 326.402344 94.375 326.402344 94.371094 326.402344 Z M 108.457031 285.25 C 107.765625 285.25 106.996094 285.445312 106.234375 285.828125 C 104.875 286.515625 103.925781 287.605469 103.753906 288.675781 C 103.476562 290.371094 104.523438 292.347656 105.441406 294.085938 C 105.828125 294.820312 106.195312 295.511719 106.457031 296.167969 L 106.828125 297.066406 C 108.457031 301.015625 110.480469 305.925781 108.269531 310.039062 C 107.402344 311.652344 105.964844 312.988281 104.578125 314.28125 C 104.308594 314.527344 104.046875 314.773438 103.792969 315.015625 C 102.429688 316.316406 101.019531 317.390625 99.652344 318.429688 C 98.054688 319.644531 96.542969 320.792969 95.339844 322.148438 C 94.710938 322.855469 94.636719 324.777344 94.664062 325.765625 C 102.910156 325.367188 110.875 323.023438 118.347656 318.789062 C 118.394531 317.832031 118.453125 316.867188 118.515625 315.902344 C 118.671875 313.398438 118.835938 310.804688 118.738281 308.285156 C 118.691406 307.011719 118.566406 305.722656 118.460938 304.578125 C 118.222656 302.234375 117.941406 300.320312 117.574219 298.554688 C 117.042969 295.984375 116.328125 293.746094 115.398438 291.722656 C 113.671875 288.625 111.820312 286.59375 109.746094 285.535156 C 109.375 285.339844 108.933594 285.25 108.453125 285.25 Z M 108.457031 285.25 " fill-opacity="1" fill-rule="nonzero"/><path fill="#ffffff" d="M 139.289062 311.0625 L 138.039062 343.378906 L 120.804688 343.378906 L 118.800781 339.714844 L 116.839844 343.328125 C 116.839844 343.328125 92.421875 344.199219 87.292969 342.164062 C 83.503906 340.667969 86.050781 331.117188 86.050781 331.117188 C 86.648438 326.839844 90.023438 324.566406 96.308594 324.398438 C 103.59375 324.179688 110.195312 322.304688 115.839844 318.113281 L 116.171875 310.71875 Z M 139.289062 311.0625 " fill-opacity="1" fill-rule="evenodd"/><path fill="#000000" d="M 105.492188 343.832031 C 98.355469 343.832031 89.996094 343.570312 87.175781 342.453125 C 83.179688 340.871094 85.644531 331.4375 85.75 331.035156 C 86.367188 326.609375 89.917969 324.257812 96.300781 324.089844 C 103.929688 323.859375 110.226562 321.851562 115.539062 317.953125 L 115.863281 310.703125 C 115.867188 310.539062 116.007812 310.40625 116.171875 310.40625 L 116.175781 310.40625 L 139.292969 310.75 C 139.375 310.75 139.457031 310.785156 139.511719 310.847656 C 139.570312 310.90625 139.601562 310.992188 139.597656 311.074219 L 138.347656 343.390625 C 138.34375 343.558594 138.207031 343.691406 138.039062 343.691406 L 120.808594 343.691406 C 120.695312 343.691406 120.589844 343.628906 120.535156 343.527344 L 118.800781 340.363281 L 117.113281 343.476562 C 117.058594 343.574219 116.960938 343.636719 116.851562 343.636719 C 116.402344 343.65625 111.359375 343.832031 105.492188 343.832031 Z M 116.46875 311.03125 L 116.148438 318.128906 C 116.144531 318.222656 116.101562 318.308594 116.023438 318.363281 C 110.585938 322.398438 104.136719 324.476562 96.316406 324.710938 C 90.199219 324.871094 86.941406 326.980469 86.355469 331.160156 C 86.324219 331.289062 83.917969 340.496094 87.40625 341.875 C 92.191406 343.777344 114.429688 343.101562 116.652344 343.023438 L 118.527344 339.566406 C 118.582031 339.464844 118.683594 339.40625 118.800781 339.402344 C 118.914062 339.402344 119.019531 339.464844 119.074219 339.5625 L 120.992188 343.066406 L 137.738281 343.066406 L 138.964844 311.367188 Z M 116.46875 311.03125 " fill-opacity="1" fill-rule="nonzero"/><path fill="#652fd3" d="M 88.703125 138.566406 L 156.277344 141.464844 L 156.792969 156.558594 C 155.785156 195.179688 151.144531 234.589844 149.277344 274.191406 C 148.703125 286.355469 148.894531 298.441406 148.722656 310.742188 C 133.878906 316.054688 120.324219 315.304688 107.671875 310.289062 L 108.667969 289.855469 C 105.210938 292.15625 102.246094 293.582031 100.628906 292.566406 C 100.628906 292.566406 59.328125 236.371094 62.929688 224.808594 C 66.109375 214.597656 88.703125 138.566406 88.703125 138.566406 Z M 112.285156 212.878906 L 106.613281 223.050781 L 110.902344 230.933594 L 112.285156 212.882812 Z M 112.285156 212.878906 " fill-opacity="1" fill-rule="evenodd"/><path fill="#000000" d="M 128.5625 314.734375 C 121.511719 314.734375 114.546875 313.347656 107.558594 310.574219 C 107.433594 310.527344 107.355469 310.402344 107.363281 310.273438 L 108.328125 290.449219 C 104.371094 293.015625 101.9375 293.75 100.464844 292.828125 C 100.433594 292.808594 100.402344 292.78125 100.378906 292.75 C 98.691406 290.449219 59.027344 236.292969 62.632812 224.714844 C 65.773438 214.625 88.179688 139.234375 88.40625 138.476562 C 88.445312 138.34375 88.5625 138.253906 88.703125 138.253906 C 88.707031 138.253906 88.710938 138.253906 88.714844 138.253906 L 156.292969 141.15625 C 156.453125 141.160156 156.585938 141.292969 156.589844 141.453125 L 157.105469 156.546875 C 156.539062 178.25 154.792969 200.617188 153.105469 222.253906 C 151.78125 239.253906 150.410156 256.835938 149.589844 274.203125 C 149.199219 282.496094 149.160156 290.921875 149.125 299.074219 C 149.109375 302.890625 149.089844 306.835938 149.039062 310.746094 C 149.035156 310.875 148.953125 310.992188 148.832031 311.035156 C 141.941406 313.5 135.214844 314.734375 128.5625 314.734375 Z M 107.996094 310.082031 C 121.292969 315.304688 134.519531 315.449219 148.417969 310.519531 C 148.46875 306.683594 148.484375 302.816406 148.503906 299.070312 C 148.539062 290.914062 148.578125 282.480469 148.96875 274.175781 C 149.785156 256.796875 151.160156 239.210938 152.484375 222.203125 C 154.171875 200.578125 155.917969 178.21875 156.484375 156.546875 L 155.976562 141.761719 L 88.929688 138.886719 C 87.546875 143.542969 66.28125 215.085938 63.226562 224.902344 C 59.757812 236.035156 99.417969 290.378906 100.84375 292.332031 C 102.539062 293.324219 106.019531 291.246094 108.496094 289.597656 C 108.597656 289.53125 108.71875 289.53125 108.824219 289.582031 C 108.921875 289.640625 108.984375 289.753906 108.976562 289.871094 Z M 110.902344 231.242188 C 110.792969 231.242188 110.683594 231.183594 110.628906 231.078125 L 106.339844 223.199219 C 106.289062 223.105469 106.289062 222.992188 106.34375 222.898438 L 112.015625 212.726562 C 112.089844 212.601562 112.246094 212.546875 112.375 212.582031 C 112.515625 212.625 112.609375 212.757812 112.597656 212.902344 L 111.210938 230.957031 C 111.203125 231.09375 111.101562 231.207031 110.96875 231.234375 C 110.945312 231.238281 110.925781 231.242188 110.902344 231.242188 Z M 106.96875 223.054688 L 110.675781 229.859375 L 111.867188 214.269531 Z M 106.96875 223.054688 " fill-opacity="1" fill-rule="nonzero"/><path fill="#f4a49a" d="M 144.613281 35.738281 C 144.308594 40.105469 143.632812 48.933594 143.632812 48.933594 C 143.632812 48.933594 146.058594 51.664062 147.367188 52.929688 C 144.28125 54.964844 141.378906 57.304688 138.351562 59.425781 C 136.308594 60.855469 133.738281 62.214844 132.105469 64.136719 C 130.691406 65.804688 130.375 68.222656 129.308594 70.113281 C 128.953125 70.742188 128.296875 71.816406 127.585938 72.078125 C 126.847656 72.347656 126.363281 71.933594 125.960938 71.339844 C 125.144531 70.121094 125.054688 68.742188 124.679688 67.375 C 124.414062 66.421875 124.058594 65.433594 123.914062 64.453125 C 123.8125 63.777344 123.808594 63.132812 123.582031 62.480469 C 123.214844 61.402344 122.429688 60.496094 122.226562 59.351562 C 121.785156 56.847656 122.398438 53.925781 123.320312 51.574219 C 123.664062 50.714844 124.898438 50.664062 125.679688 50.171875 C 125.648438 49.699219 125.71875 49.242188 125.71875 48.769531 C 125.71875 47.859375 125.671875 46.9375 125.761719 46.03125 C 127.335938 46.433594 128.972656 45.851562 130.441406 45.308594 C 133.941406 44.019531 137.277344 41.984375 139.71875 39.140625 C 140.738281 37.957031 141.648438 36.675781 142.769531 35.582031 C 143.144531 35.21875 144.679688 34.800781 144.613281 35.738281 Z M 144.613281 35.738281 " fill-opacity="1" fill-rule="evenodd"/><path fill="#000000" d="M 127.148438 72.472656 C 126.351562 72.472656 125.878906 71.773438 125.703125 71.511719 C 125.078125 70.582031 124.859375 69.5625 124.644531 68.578125 C 124.5625 68.207031 124.480469 67.832031 124.378906 67.457031 C 124.304688 67.1875 124.222656 66.917969 124.140625 66.644531 C 123.933594 65.945312 123.714844 65.222656 123.605469 64.5 C 123.574219 64.289062 123.550781 64.082031 123.53125 63.878906 C 123.480469 63.429688 123.433594 63.003906 123.289062 62.582031 C 123.144531 62.152344 122.929688 61.757812 122.703125 61.335938 C 122.378906 60.742188 122.046875 60.121094 121.921875 59.40625 C 121.527344 57.160156 121.929688 54.265625 123.03125 51.460938 C 123.304688 50.769531 124.019531 50.507812 124.652344 50.28125 C 124.90625 50.191406 125.148438 50.105469 125.363281 49.996094 C 125.359375 49.765625 125.371094 49.542969 125.382812 49.324219 C 125.394531 49.140625 125.40625 48.957031 125.40625 48.769531 C 125.40625 48.535156 125.402344 48.300781 125.402344 48.066406 C 125.394531 47.390625 125.382812 46.691406 125.449219 45.996094 C 125.457031 45.910156 125.503906 45.824219 125.582031 45.773438 C 125.65625 45.722656 125.753906 45.707031 125.835938 45.726562 C 127.351562 46.121094 129.003906 45.503906 130.335938 45.015625 C 134.09375 43.628906 137.257812 41.523438 139.484375 38.9375 C 139.824219 38.539062 140.15625 38.132812 140.484375 37.722656 C 141.128906 36.921875 141.796875 36.09375 142.554688 35.359375 C 142.910156 35.011719 143.921875 34.695312 144.476562 34.953125 C 144.789062 35.097656 144.949219 35.390625 144.921875 35.761719 C 144.640625 39.8125 144.039062 47.710938 143.953125 48.824219 C 144.398438 49.324219 146.4375 51.597656 147.585938 52.707031 C 147.652344 52.769531 147.683594 52.863281 147.675781 52.957031 C 147.667969 53.054688 147.617188 53.136719 147.539062 53.1875 C 145.734375 54.378906 143.964844 55.695312 142.25 56.964844 C 141.039062 57.867188 139.785156 58.800781 138.527344 59.679688 C 137.992188 60.058594 137.414062 60.429688 136.828125 60.808594 C 135.203125 61.863281 133.515625 62.953125 132.339844 64.335938 C 131.539062 65.28125 131.089844 66.523438 130.65625 67.726562 C 130.347656 68.582031 130.023438 69.46875 129.578125 70.265625 C 129.140625 71.027344 128.476562 72.082031 127.691406 72.367188 C 127.496094 72.441406 127.3125 72.472656 127.148438 72.472656 Z M 126.042969 46.40625 C 126.007812 46.953125 126.015625 47.515625 126.023438 48.058594 C 126.027344 48.296875 126.03125 48.535156 126.03125 48.769531 C 126.03125 48.96875 126.015625 49.164062 126.003906 49.363281 C 125.988281 49.625 125.972656 49.886719 125.988281 50.152344 C 125.996094 50.265625 125.941406 50.375 125.84375 50.433594 C 125.542969 50.621094 125.199219 50.746094 124.863281 50.867188 C 124.304688 51.066406 123.78125 51.257812 123.609375 51.6875 C 122.550781 54.390625 122.15625 57.164062 122.53125 59.296875 C 122.640625 59.914062 122.9375 60.464844 123.25 61.042969 C 123.480469 61.464844 123.714844 61.90625 123.875 62.378906 C 124.042969 62.863281 124.097656 63.347656 124.148438 63.8125 C 124.167969 64.007812 124.191406 64.207031 124.222656 64.40625 C 124.324219 65.085938 124.53125 65.789062 124.738281 66.464844 C 124.820312 66.742188 124.902344 67.019531 124.980469 67.292969 C 125.085938 67.675781 125.167969 68.0625 125.25 68.445312 C 125.460938 69.417969 125.664062 70.332031 126.21875 71.164062 C 126.640625 71.789062 126.996094 71.964844 127.476562 71.785156 C 127.917969 71.625 128.441406 71.011719 129.035156 69.957031 C 129.460938 69.210938 129.769531 68.351562 130.074219 67.515625 C 130.523438 66.261719 130.996094 64.964844 131.867188 63.9375 C 133.105469 62.484375 134.824219 61.367188 136.492188 60.289062 C 137.070312 59.914062 137.640625 59.546875 138.171875 59.171875 C 139.421875 58.296875 140.671875 57.367188 141.882812 56.472656 C 143.5 55.265625 145.171875 54.023438 146.878906 52.882812 C 145.539062 51.542969 143.425781 49.167969 143.402344 49.140625 C 143.347656 49.078125 143.320312 48.996094 143.324219 48.910156 C 143.324219 48.910156 144 40.085938 144.304688 35.71875 C 144.316406 35.5625 144.261719 35.535156 144.21875 35.519531 C 143.925781 35.378906 143.1875 35.609375 142.988281 35.804688 C 142.257812 36.515625 141.605469 37.328125 140.96875 38.113281 C 140.636719 38.527344 140.300781 38.941406 139.957031 39.339844 C 137.660156 42.011719 134.410156 44.175781 130.550781 45.601562 C 129.238281 46.085938 127.632812 46.675781 126.042969 46.40625 Z M 144.613281 35.738281 L 144.621094 35.738281 Z M 144.613281 35.738281 " fill-opacity="1" fill-rule="nonzero"/><path fill="#f4a49a" d="M 145.679688 27.429688 C 145.820312 26.609375 146.039062 25.785156 146.542969 25.113281 C 147.460938 23.878906 149.429688 23.164062 150.824219 24.011719 C 151.394531 24.359375 151.765625 25.027344 152.011719 25.632812 C 153.09375 28.320312 151.804688 31.386719 150.40625 33.691406 C 149.65625 34.929688 148.636719 36.105469 147.1875 36.496094 C 146.1875 36.765625 145.105469 36.628906 144.105469 36.4375 C 143.058594 37.820312 141.847656 39.066406 140.710938 40.371094 C 138.917969 42.425781 137.09375 44.519531 134.679688 45.859375 C 129.261719 48.859375 121.855469 47.339844 117.699219 42.929688 C 116.171875 41.304688 115.339844 39.390625 114.636719 37.335938 C 112.808594 31.988281 112.0625 26.460938 112.304688 20.832031 C 112.457031 17.257812 113.097656 13.605469 115.230469 10.628906 C 117.164062 7.925781 120.046875 6.097656 123.050781 4.730469 C 127.09375 2.890625 131.5 4.023438 134.90625 6.621094 C 137.253906 8.414062 139.300781 10.601562 140.730469 13.191406 C 141.433594 14.464844 141.789062 15.902344 142.542969 17.144531 C 143.085938 18.046875 144.035156 18.488281 144.601562 19.339844 C 145.332031 20.425781 145.679688 25.917969 145.628906 27.714844 L 145.683594 27.429688 Z M 145.679688 27.429688 " fill-opacity="1" fill-rule="evenodd"/><path fill="#000000" d="M 128.394531 47.714844 C 124.386719 47.71875 120.269531 46.109375 117.472656 43.140625 C 115.847656 41.417969 115.011719 39.382812 114.34375 37.4375 C 112.539062 32.15625 111.746094 26.566406 111.996094 20.820312 C 112.183594 16.324219 113.128906 13.027344 114.976562 10.453125 C 116.675781 8.074219 119.277344 6.109375 122.921875 4.449219 C 126.707031 2.726562 131.253906 3.445312 135.09375 6.375 C 137.652344 8.332031 139.640625 10.574219 141 13.042969 C 141.335938 13.648438 141.597656 14.292969 141.847656 14.921875 C 142.128906 15.617188 142.417969 16.339844 142.808594 16.984375 C 143.066406 17.414062 143.433594 17.734375 143.820312 18.074219 C 144.1875 18.394531 144.566406 18.726562 144.859375 19.167969 C 145.441406 20.035156 145.769531 23.261719 145.890625 25.601562 C 146 25.367188 146.132812 25.136719 146.292969 24.925781 C 147.296875 23.585938 149.421875 22.789062 150.984375 23.746094 C 151.515625 24.066406 151.957031 24.664062 152.300781 25.515625 C 153.207031 27.773438 152.660156 30.578125 150.667969 33.851562 C 149.683594 35.484375 148.570312 36.445312 147.265625 36.792969 C 146.261719 37.070312 145.183594 36.945312 144.238281 36.777344 C 143.539062 37.679688 142.769531 38.53125 142.027344 39.359375 C 141.664062 39.761719 141.300781 40.164062 140.945312 40.578125 C 139.144531 42.636719 137.289062 44.765625 134.828125 46.128906 C 132.894531 47.199219 130.664062 47.714844 128.398438 47.714844 Z M 127.222656 4.148438 C 125.824219 4.148438 124.453125 4.433594 123.183594 5.015625 C 119.636719 6.628906 117.117188 8.523438 115.480469 10.8125 C 113.710938 13.289062 112.800781 16.476562 112.613281 20.84375 C 112.371094 26.515625 113.152344 32.027344 114.929688 37.234375 C 115.574219 39.113281 116.382812 41.078125 117.925781 42.714844 C 122.117188 47.160156 129.40625 48.425781 134.527344 45.585938 C 136.894531 44.273438 138.710938 42.1875 140.46875 40.171875 C 140.832031 39.753906 141.199219 39.347656 141.566406 38.941406 C 142.339844 38.078125 143.144531 37.183594 143.859375 36.246094 C 143.933594 36.152344 144.050781 36.109375 144.164062 36.128906 C 145.085938 36.308594 146.160156 36.449219 147.105469 36.195312 C 148.25 35.886719 149.238281 35.019531 150.140625 33.53125 C 152.023438 30.433594 152.554688 27.8125 151.722656 25.746094 C 151.433594 25.023438 151.074219 24.527344 150.660156 24.273438 C 149.398438 23.507812 147.613281 24.199219 146.792969 25.296875 C 146.292969 25.960938 146.101562 26.8125 145.988281 27.480469 C 145.984375 27.523438 145.964844 27.566406 145.941406 27.601562 C 145.941406 27.644531 145.941406 27.6875 145.941406 27.722656 C 145.933594 27.894531 145.796875 28.027344 145.628906 28.027344 L 145.621094 28.027344 C 145.449219 28.019531 145.3125 27.878906 145.316406 27.707031 C 145.375 25.832031 145.003906 20.496094 144.34375 19.511719 C 144.097656 19.140625 143.765625 18.847656 143.410156 18.539062 C 143.003906 18.1875 142.585938 17.820312 142.277344 17.304688 C 141.859375 16.617188 141.5625 15.871094 141.273438 15.148438 C 141.03125 14.542969 140.777344 13.917969 140.460938 13.34375 C 139.136719 10.949219 137.207031 8.769531 134.71875 6.867188 C 132.371094 5.078125 129.746094 4.148438 127.222656 4.148438 Z M 127.222656 4.148438 " fill-opacity="1" fill-rule="nonzero"/><g clip-path="url(#95713ae9ab)"><path fill="#000000" d="M 149.835938 23.589844 C 149.992188 21.085938 149.75 16.242188 149.558594 13.742188 C 149.484375 12.777344 149.476562 11.753906 149.015625 10.878906 C 148.441406 9.78125 146.984375 9.09375 145.824219 8.898438 C 146.347656 6.992188 144.574219 4.703125 143.363281 3.46875 C 142.976562 3.074219 142.578125 2.691406 142.148438 2.34375 C 141.671875 1.960938 141.183594 1.53125 140.597656 1.351562 C 136.402344 0.0898438 131.96875 0.324219 127.699219 0.957031 C 122.246094 1.761719 117.46875 3.914062 112.351562 6.054688 C 110.828125 6.6875 109.664062 8.710938 110.261719 10.386719 C 110.464844 10.953125 110.953125 11.425781 111.3125 11.898438 C 109.648438 12.792969 110.046875 15.136719 110.195312 16.671875 C 110.363281 18.386719 110.695312 20.050781 110.992188 21.75 C 111.449219 24.351562 111.976562 26.929688 112.726562 29.46875 C 112.625 28.652344 112.914062 27.664062 113.175781 26.910156 C 113.785156 25.183594 114.589844 23.65625 115.847656 22.304688 C 115.648438 20.4375 115.660156 18.457031 115.882812 16.601562 C 121.324219 15.488281 126.925781 15.226562 132.453125 15.703125 C 134.113281 15.84375 135.785156 15.945312 137.421875 16.261719 C 137.503906 17.738281 137.65625 19.234375 137.789062 20.707031 C 141.402344 21.542969 142.410156 26.320312 142.675781 29.445312 C 143.574219 29.507812 144.417969 29.394531 145.3125 29.480469 C 145.359375 27.0625 145.761719 24.136719 148.609375 23.679688 C 148.996094 23.617188 149.449219 23.46875 149.835938 23.589844 Z M 149.835938 23.589844 " fill-opacity="1" fill-rule="evenodd"/></g><path fill="#ffffff" d="M 142.398438 145.96875 C 143.683594 145.9375 144.96875 145.957031 146.226562 146 C 148.738281 146.085938 151.402344 146.441406 153.769531 145.363281 C 156.046875 144.316406 157.4375 141.9375 158.40625 139.730469 C 160.445312 135.085938 161.050781 130.023438 162.417969 125.171875 C 165.0625 115.765625 170.648438 108.777344 176.632812 101.140625 C 183.796875 92.003906 180.917969 86.820312 180.144531 76.3125 C 179.847656 72.289062 179.921875 67.824219 177.8125 64.234375 C 175.152344 59.710938 169.015625 57.898438 164.324219 56.417969 C 161.023438 55.375 157.566406 54.734375 154.375 53.398438 C 151.835938 52.332031 149.121094 51.472656 146.804688 49.988281 C 145.917969 49.417969 145.308594 50.867188 144.835938 51.402344 C 144.574219 51.699219 144.285156 51.976562 144.007812 52.257812 C 143.71875 52.550781 143.414062 52.824219 143.105469 53.097656 C 141.527344 54.511719 139.703125 55.671875 137.964844 56.878906 C 135.550781 58.554688 131.949219 59.089844 130.507812 61.648438 C 129.824219 62.863281 129.296875 64.128906 128.726562 65.398438 C 128.164062 66.636719 127.59375 67.992188 127.511719 69.375 C 127.011719 68.195312 126.882812 66.949219 126.53125 65.734375 C 126.097656 64.25 125.511719 62.808594 125.15625 61.304688 C 124.289062 57.699219 124.390625 53.429688 125.242188 49.820312 C 123.929688 49.765625 122.617188 49.945312 121.308594 50.015625 C 119.039062 50.140625 116.773438 50.238281 114.511719 50.414062 C 109.925781 50.773438 105.375 50.910156 100.804688 51.457031 C 97.667969 51.839844 93.738281 52.25 91.46875 54.730469 C 89.664062 56.699219 88.777344 59.660156 87.523438 62 C 85.753906 65.300781 83.78125 68.507812 82.167969 71.894531 C 77.433594 81.808594 73.863281 92.867188 73.078125 103.867188 C 73.042969 104.289062 73.050781 104.710938 73.050781 105.132812 C 73.097656 112.371094 78.789062 126.34375 83.113281 125.46875 C 84.640625 125.15625 86.3125 124.789062 87.789062 124.109375 C 87.757812 127.367188 87.109375 130.515625 86.90625 133.757812 C 86.804688 135.347656 86.652344 137.003906 87.160156 138.546875 C 88.046875 141.238281 90.75 143.285156 93.234375 144.402344 C 98.707031 146.859375 104.992188 146.503906 110.847656 146.597656 C 117.925781 146.707031 125.007812 146.828125 132.082031 146.601562 C 135.53125 146.488281 138.960938 146.054688 142.398438 145.96875 Z M 142.398438 145.96875 " fill-opacity="1" fill-rule="evenodd"/><path fill="#000000" d="M 123.289062 147.042969 C 119.382812 147.042969 115.484375 146.980469 111.664062 146.921875 L 110.84375 146.910156 C 110.035156 146.894531 109.21875 146.890625 108.398438 146.886719 C 103.230469 146.859375 97.882812 146.832031 93.109375 144.6875 C 89.980469 143.28125 87.648438 141.023438 86.863281 138.644531 C 86.375 137.152344 86.476562 135.582031 86.574219 134.066406 L 86.597656 133.738281 C 86.683594 132.371094 86.851562 131.003906 87.011719 129.675781 C 87.210938 128.015625 87.421875 126.300781 87.46875 124.585938 C 86.089844 125.15625 84.59375 125.484375 83.171875 125.773438 C 82.355469 125.945312 81.449219 125.644531 80.515625 124.886719 C 76.554688 121.667969 72.777344 111.03125 72.738281 105.136719 C 72.738281 104.660156 72.734375 104.25 72.765625 103.84375 C 73.488281 93.714844 76.558594 82.921875 81.886719 71.761719 C 82.925781 69.582031 84.128906 67.449219 85.292969 65.382812 C 85.953125 64.210938 86.613281 63.039062 87.25 61.855469 C 87.648438 61.109375 88.003906 60.316406 88.378906 59.476562 C 89.167969 57.714844 89.980469 55.894531 91.238281 54.523438 C 93.523438 52.027344 97.394531 51.558594 100.503906 51.183594 L 100.765625 51.152344 C 103.753906 50.792969 106.785156 50.609375 109.714844 50.429688 C 111.304688 50.332031 112.890625 50.230469 114.484375 50.109375 C 116.15625 49.980469 117.855469 49.890625 119.5 49.804688 L 121.292969 49.710938 C 121.703125 49.6875 122.113281 49.652344 122.527344 49.621094 C 123.417969 49.546875 124.332031 49.472656 125.257812 49.511719 C 125.347656 49.519531 125.433594 49.5625 125.488281 49.636719 C 125.546875 49.710938 125.566406 49.804688 125.546875 49.894531 C 124.671875 53.59375 124.640625 57.832031 125.457031 61.234375 C 125.667969 62.121094 125.964844 63.003906 126.253906 63.859375 C 126.457031 64.453125 126.65625 65.046875 126.828125 65.648438 C 126.964844 66.109375 127.066406 66.578125 127.167969 67.039062 C 127.242188 67.390625 127.316406 67.730469 127.40625 68.0625 C 127.640625 67.097656 128.039062 66.164062 128.441406 65.273438 L 128.78125 64.511719 C 129.226562 63.515625 129.683594 62.484375 130.234375 61.5 C 131.210938 59.769531 133.105469 58.925781 134.941406 58.109375 C 135.925781 57.667969 136.949219 57.210938 137.789062 56.628906 C 138.15625 56.371094 138.53125 56.117188 138.90625 55.859375 C 140.265625 54.929688 141.671875 53.972656 142.898438 52.871094 C 143.238281 52.566406 143.519531 52.3125 143.785156 52.042969 L 144.035156 51.792969 C 144.226562 51.601562 144.421875 51.40625 144.605469 51.199219 C 144.703125 51.089844 144.808594 50.929688 144.921875 50.761719 C 145.335938 50.152344 146.019531 49.125 146.96875 49.730469 C 148.660156 50.8125 150.605469 51.574219 152.488281 52.308594 C 153.164062 52.574219 153.832031 52.835938 154.492188 53.113281 C 156.496094 53.953125 158.652344 54.527344 160.738281 55.082031 C 161.949219 55.40625 163.203125 55.742188 164.417969 56.125 L 164.855469 56.261719 C 169.574219 57.746094 175.441406 59.59375 178.078125 64.082031 C 179.90625 67.195312 180.125 70.882812 180.335938 74.453125 C 180.371094 75.074219 180.410156 75.6875 180.453125 76.292969 C 180.613281 78.484375 180.863281 80.40625 181.101562 82.261719 C 181.984375 89.082031 182.621094 94.007812 176.875 101.335938 L 176.503906 101.8125 C 170.738281 109.164062 165.289062 116.109375 162.714844 125.261719 C 162.246094 126.929688 161.859375 128.65625 161.484375 130.324219 C 160.773438 133.503906 160.035156 136.792969 158.691406 139.859375 C 157.839844 141.792969 156.417969 144.496094 153.898438 145.648438 C 151.835938 146.589844 149.582031 146.476562 147.414062 146.367188 C 147.011719 146.347656 146.613281 146.328125 146.214844 146.316406 C 144.820312 146.265625 143.574219 146.253906 142.40625 146.285156 C 140.636719 146.328125 138.839844 146.46875 137.097656 146.601562 C 135.457031 146.730469 133.765625 146.863281 132.089844 146.917969 C 129.167969 147.007812 126.226562 147.042969 123.289062 147.042969 Z M 87.789062 123.796875 C 87.847656 123.796875 87.90625 123.816406 87.957031 123.847656 C 88.046875 123.90625 88.101562 124.007812 88.101562 124.113281 C 88.082031 126.023438 87.851562 127.917969 87.628906 129.753906 C 87.46875 131.066406 87.300781 132.425781 87.214844 133.777344 L 87.195312 134.109375 C 87.097656 135.5625 87 137.074219 87.453125 138.449219 C 88.183594 140.664062 90.394531 142.785156 93.363281 144.121094 C 98.019531 146.210938 103.296875 146.242188 108.402344 146.265625 C 109.226562 146.269531 110.042969 146.273438 110.851562 146.285156 L 111.671875 146.300781 C 118.359375 146.402344 125.273438 146.511719 132.070312 146.289062 C 133.730469 146.238281 135.417969 146.105469 137.050781 145.980469 C 138.796875 145.84375 140.605469 145.703125 142.390625 145.65625 C 143.574219 145.628906 144.832031 145.640625 146.238281 145.691406 C 146.636719 145.703125 147.039062 145.722656 147.445312 145.742188 C 149.542969 145.847656 151.714844 145.957031 153.640625 145.078125 C 155.964844 144.015625 157.308594 141.445312 158.121094 139.605469 C 159.441406 136.59375 160.171875 133.335938 160.878906 130.183594 C 161.253906 128.507812 161.644531 126.773438 162.117188 125.085938 C 164.726562 115.820312 170.210938 108.828125 176.015625 101.425781 L 176.386719 100.949219 C 181.972656 93.828125 181.382812 89.257812 180.488281 82.339844 C 180.257812 80.558594 179.996094 78.542969 179.835938 76.335938 C 179.789062 75.726562 179.753906 75.109375 179.714844 74.484375 C 179.511719 70.992188 179.296875 67.378906 177.546875 64.394531 C 175.027344 60.109375 169.285156 58.304688 164.671875 56.851562 L 164.230469 56.710938 C 163.03125 56.332031 161.785156 56 160.578125 55.679688 C 158.472656 55.121094 156.296875 54.539062 154.253906 53.683594 C 153.601562 53.40625 152.933594 53.148438 152.261719 52.886719 C 150.355469 52.136719 148.378906 51.367188 146.636719 50.246094 C 146.273438 50.019531 145.96875 50.316406 145.4375 51.105469 C 145.308594 51.300781 145.1875 51.476562 145.070312 51.605469 C 144.878906 51.824219 144.675781 52.023438 144.476562 52.230469 L 144.230469 52.472656 C 143.953125 52.753906 143.660156 53.019531 143.367188 53.277344 C 142.058594 54.457031 140.632812 55.429688 139.257812 56.371094 C 138.882812 56.625 138.511719 56.878906 138.144531 57.132812 C 137.253906 57.75 136.207031 58.21875 135.191406 58.671875 C 133.371094 59.480469 131.652344 60.246094 130.777344 61.800781 C 130.242188 62.757812 129.789062 63.773438 129.351562 64.761719 L 129.007812 65.523438 C 128.453125 66.757812 127.902344 68.074219 127.820312 69.390625 C 127.8125 69.535156 127.707031 69.652344 127.566406 69.679688 C 127.429688 69.710938 127.285156 69.628906 127.226562 69.492188 C 126.902344 68.730469 126.730469 67.9375 126.5625 67.171875 C 126.464844 66.71875 126.367188 66.265625 126.234375 65.820312 C 126.0625 65.226562 125.863281 64.640625 125.667969 64.054688 C 125.375 63.1875 125.070312 62.289062 124.855469 61.378906 C 124.042969 58 124.046875 53.820312 124.855469 50.121094 C 124.082031 50.085938 123.324219 50.175781 122.578125 50.238281 C 122.160156 50.269531 121.742188 50.304688 121.324219 50.324219 L 119.535156 50.421875 C 117.894531 50.507812 116.199219 50.59375 114.535156 50.722656 C 112.941406 50.847656 111.347656 50.945312 109.753906 51.042969 C 106.835938 51.222656 103.8125 51.410156 100.839844 51.769531 L 100.582031 51.796875 C 97.574219 52.160156 93.828125 52.613281 91.699219 54.9375 C 90.507812 56.238281 89.714844 58.011719 88.949219 59.726562 C 88.585938 60.539062 88.207031 61.382812 87.796875 62.144531 C 87.164062 63.332031 86.5 64.511719 85.835938 65.6875 C 84.675781 67.742188 83.480469 69.867188 82.449219 72.027344 C 77.15625 83.113281 74.105469 93.832031 73.386719 103.886719 C 73.355469 104.277344 73.359375 104.667969 73.363281 105.058594 C 73.398438 110.773438 77.132812 121.335938 80.910156 124.402344 C 81.6875 125.035156 82.410156 125.296875 83.050781 125.160156 C 84.59375 124.851562 86.21875 124.488281 87.660156 123.828125 C 87.699219 123.804688 87.746094 123.796875 87.789062 123.796875 Z M 87.789062 123.796875 " fill-opacity="1" fill-rule="nonzero"/><path fill="#ffffff" d="M 151.824219 52.382812 C 151.109375 53.3125 150.398438 54.246094 149.691406 55.1875 C 145.644531 60.589844 141.53125 66.15625 136.753906 70.933594 C 136.230469 71.457031 135.851562 69.730469 135.652344 69.335938 C 134.832031 67.699219 133.84375 65.9375 132.683594 64.546875 C 132.003906 63.734375 131.207031 62.664062 130.3125 62.070312 C 130.304688 62.066406 130.296875 62.058594 130.289062 62.050781 C 130.359375 61.917969 130.433594 61.785156 130.507812 61.648438 C 131.949219 59.089844 135.550781 58.554688 137.964844 56.878906 C 139.703125 55.671875 141.53125 54.515625 143.109375 53.097656 C 143.414062 52.824219 143.71875 52.550781 144.007812 52.261719 C 144.285156 51.976562 144.574219 51.699219 144.839844 51.402344 C 145.3125 50.867188 145.917969 49.417969 146.804688 49.988281 C 148.359375 50.984375 150.089844 51.699219 151.824219 52.382812 Z M 151.824219 52.382812 " fill-opacity="1" fill-rule="evenodd"/><path fill="#000000" d="M 136.554688 71.339844 C 136.511719 71.339844 136.472656 71.335938 136.441406 71.328125 C 136.015625 71.230469 135.785156 70.636719 135.523438 69.875 C 135.464844 69.703125 135.417969 69.558594 135.378906 69.476562 C 134.339844 67.402344 133.40625 65.898438 132.441406 64.746094 L 132.113281 64.34375 C 131.523438 63.621094 130.855469 62.804688 130.140625 62.328125 C 130.007812 62.238281 129.9375 62.046875 130.015625 61.90625 C 130.109375 61.730469 130.171875 61.613281 130.238281 61.496094 C 131.210938 59.765625 133.109375 58.921875 134.941406 58.105469 C 135.929688 57.664062 136.949219 57.207031 137.789062 56.625 C 138.160156 56.371094 138.535156 56.113281 138.90625 55.855469 C 140.269531 54.929688 141.675781 53.96875 142.898438 52.867188 C 143.238281 52.566406 143.519531 52.308594 143.789062 52.039062 L 144.035156 51.792969 C 144.230469 51.597656 144.421875 51.402344 144.605469 51.195312 C 144.703125 51.085938 144.808594 50.929688 144.921875 50.757812 C 145.335938 50.148438 146.023438 49.121094 146.972656 49.726562 C 148.507812 50.710938 150.199219 51.40625 151.9375 52.09375 C 152.027344 52.128906 152.097656 52.207031 152.125 52.296875 C 152.148438 52.394531 152.128906 52.492188 152.070312 52.570312 C 151.355469 53.5 150.644531 54.433594 149.941406 55.371094 L 149.355469 56.152344 C 145.511719 61.285156 141.539062 66.585938 136.972656 71.152344 C 136.824219 71.300781 136.671875 71.339844 136.554688 71.339844 Z M 130.691406 61.960938 C 131.414062 62.507812 132.035156 63.269531 132.59375 63.953125 L 132.917969 64.347656 C 133.910156 65.539062 134.871094 67.082031 135.929688 69.195312 C 135.980469 69.296875 136.042969 69.46875 136.109375 69.671875 C 136.195312 69.914062 136.398438 70.515625 136.554688 70.6875 C 141.089844 66.148438 145.039062 60.878906 148.859375 55.78125 L 149.441406 55 C 150.066406 54.167969 150.695312 53.339844 151.324219 52.519531 C 149.691406 51.867188 148.105469 51.1875 146.636719 50.246094 C 146.269531 50.015625 145.96875 50.316406 145.4375 51.105469 C 145.304688 51.296875 145.183594 51.476562 145.070312 51.605469 C 144.878906 51.820312 144.675781 52.023438 144.476562 52.226562 L 144.230469 52.472656 C 143.949219 52.753906 143.660156 53.015625 143.367188 53.277344 C 142.058594 54.457031 140.632812 55.429688 139.253906 56.367188 C 138.882812 56.625 138.511719 56.875 138.144531 57.132812 C 137.253906 57.75 136.207031 58.21875 135.191406 58.671875 C 133.371094 59.480469 131.652344 60.246094 130.777344 61.800781 C 130.75 61.851562 130.71875 61.90625 130.691406 61.957031 Z M 130.691406 61.960938 " fill-opacity="1" fill-rule="nonzero"/><path fill="#ffffff" d="M 119.308594 50.121094 C 119.972656 50.085938 120.640625 50.054688 121.308594 50.019531 C 122.617188 49.945312 123.929688 49.765625 125.242188 49.820312 C 124.394531 53.429688 124.289062 57.699219 125.15625 61.308594 C 125.175781 61.402344 125.203125 61.5 125.226562 61.59375 C 123.859375 62.558594 122.511719 63.519531 121.398438 64.863281 C 120.722656 65.671875 120.054688 66.507812 119.460938 67.375 C 119.277344 67.640625 119.117188 67.910156 118.917969 68.171875 C 118.84375 68.269531 118.785156 68.566406 118.699219 68.46875 C 118.597656 68.355469 118.773438 67.445312 118.777344 67.273438 C 118.804688 66.09375 118.777344 64.894531 118.722656 63.714844 C 118.621094 61.5625 118.769531 59.390625 118.765625 57.265625 C 118.765625 55.183594 118.742188 53.085938 119.167969 51.042969 C 119.234375 50.738281 119.273438 50.429688 119.308594 50.125 Z M 119.308594 50.121094 " fill-opacity="1" fill-rule="evenodd"/><path fill="#000000" d="M 118.746094 68.796875 C 118.648438 68.796875 118.527344 68.742188 118.464844 68.671875 C 118.320312 68.519531 118.328125 68.273438 118.433594 67.53125 C 118.449219 67.410156 118.464844 67.308594 118.464844 67.265625 C 118.488281 66.1875 118.46875 65.027344 118.410156 63.726562 C 118.347656 62.378906 118.382812 61.011719 118.417969 59.6875 C 118.4375 58.878906 118.457031 58.066406 118.453125 57.265625 L 118.453125 56.996094 C 118.453125 55.015625 118.449219 52.964844 118.867188 50.976562 C 118.929688 50.683594 118.964844 50.382812 119 50.085938 C 119.015625 49.9375 119.140625 49.820312 119.292969 49.8125 L 121.292969 49.707031 C 121.703125 49.683594 122.117188 49.652344 122.53125 49.617188 C 123.421875 49.546875 124.335938 49.46875 125.257812 49.511719 C 125.347656 49.515625 125.4375 49.558594 125.492188 49.632812 C 125.546875 49.707031 125.566406 49.804688 125.546875 49.890625 C 124.675781 53.589844 124.644531 57.832031 125.457031 61.234375 L 125.53125 61.511719 C 125.5625 61.636719 125.511719 61.769531 125.40625 61.84375 C 124.101562 62.765625 122.753906 63.71875 121.636719 65.058594 C 121.082031 65.726562 120.359375 66.617188 119.714844 67.546875 C 119.648438 67.644531 119.585938 67.742188 119.523438 67.839844 C 119.410156 68.015625 119.292969 68.1875 119.167969 68.355469 C 119.160156 68.371094 119.148438 68.402344 119.132812 68.4375 C 119.074219 68.574219 118.996094 68.761719 118.785156 68.792969 C 118.773438 68.796875 118.761719 68.796875 118.75 68.796875 Z M 119.585938 50.421875 C 119.554688 50.648438 119.519531 50.878906 119.472656 51.105469 C 119.070312 53.027344 119.074219 55.042969 119.074219 56.996094 L 119.078125 57.265625 C 119.078125 58.070312 119.058594 58.886719 119.039062 59.703125 C 119.003906 61.015625 118.96875 62.371094 119.03125 63.695312 C 119.09375 65.011719 119.113281 66.183594 119.089844 67.277344 C 119.089844 67.300781 119.085938 67.335938 119.082031 67.378906 C 119.121094 67.320312 119.164062 67.257812 119.207031 67.195312 C 119.863281 66.242188 120.59375 65.339844 121.160156 64.660156 C 122.273438 63.320312 123.644531 62.332031 124.875 61.460938 L 124.851562 61.378906 C 124.042969 58 124.046875 53.820312 124.859375 50.121094 C 124.097656 50.082031 123.328125 50.175781 122.578125 50.238281 C 122.160156 50.273438 121.742188 50.304688 121.328125 50.328125 L 119.585938 50.417969 Z M 119.585938 50.421875 " fill-opacity="1" fill-rule="nonzero"/><path fill="#f4a49a" d="M 73.550781 104.234375 C 70.941406 103.503906 64.929688 102.707031 62.257812 102.234375 C 61.636719 106.394531 61.558594 111.066406 62.152344 115.226562 C 62.464844 117.425781 62.976562 119.671875 64.234375 121.542969 C 65.789062 123.859375 68.414062 125.582031 70.925781 126.703125 C 72.21875 127.285156 73.605469 127.761719 75.027344 127.882812 C 78.34375 128.167969 81.414062 126.449219 83.851562 124.351562 C 84.980469 123.378906 86.066406 122.265625 86.6875 120.890625 C 87.445312 119.203125 87.316406 117.300781 86.992188 115.53125 C 86.226562 111.355469 84.019531 107.683594 80.167969 105.707031 C 78.042969 104.617188 75.863281 104.527344 73.546875 104.234375 Z M 73.550781 104.234375 " fill-opacity="1" fill-rule="evenodd"/><path fill="#000000" d="M 75.757812 128.222656 C 75.503906 128.222656 75.25 128.214844 75 128.191406 C 73.730469 128.082031 72.394531 127.699219 70.796875 126.988281 C 68.660156 126.03125 65.742188 124.339844 63.976562 121.714844 C 62.609375 119.6875 62.117188 117.207031 61.84375 115.273438 C 61.261719 111.199219 61.300781 106.554688 61.949219 102.1875 C 61.964844 102.101562 62.007812 102.03125 62.074219 101.980469 C 62.148438 101.933594 62.230469 101.910156 62.3125 101.925781 C 63.113281 102.070312 64.214844 102.242188 65.4375 102.429688 C 68.253906 102.871094 71.761719 103.417969 73.609375 103.929688 C 73.964844 103.972656 74.316406 104.011719 74.667969 104.054688 C 76.621094 104.277344 78.46875 104.484375 80.308594 105.429688 C 83.976562 107.3125 86.457031 110.878906 87.296875 115.472656 C 87.589844 117.066406 87.816406 119.136719 86.96875 121.015625 C 86.28125 122.550781 85.050781 123.730469 84.054688 124.585938 C 81.25 127 78.460938 128.222656 75.761719 128.222656 Z M 62.519531 102.59375 C 61.921875 106.808594 61.898438 111.265625 62.457031 115.183594 C 62.742188 117.167969 63.203125 119.457031 64.492188 121.367188 C 65.804688 123.324219 68.132812 125.117188 71.050781 126.421875 C 72.578125 127.101562 73.851562 127.46875 75.054688 127.574219 C 77.785156 127.804688 80.707031 126.644531 83.648438 124.117188 C 84.59375 123.300781 85.765625 122.183594 86.402344 120.761719 C 87.179688 119.035156 86.960938 117.089844 86.6875 115.589844 C 85.882812 111.183594 83.515625 107.773438 80.023438 105.984375 C 78.28125 105.089844 76.492188 104.886719 74.59375 104.671875 C 74.238281 104.628906 73.875 104.589844 73.507812 104.542969 C 73.492188 104.539062 73.480469 104.539062 73.464844 104.535156 C 71.65625 104.03125 68.15625 103.484375 65.339844 103.046875 C 64.265625 102.878906 63.285156 102.726562 62.515625 102.59375 Z M 62.519531 102.59375 " fill-opacity="1" fill-rule="nonzero"/><path fill="#f4a49a" d="M 151.644531 168.925781 C 143.996094 162.144531 144.117188 151.25 144.117188 151.25 C 144.117188 151.25 149.855469 140.890625 152.953125 135.957031 C 153.644531 134.859375 154.328125 133.75 154.949219 132.613281 C 155.449219 131.691406 155.6875 130.785156 156.800781 130.535156 C 160.613281 129.675781 165.882812 128.339844 169.167969 129.976562 C 172.03125 131.40625 175 132.582031 178.019531 133.632812 C 175.566406 137.285156 171.097656 144.0625 168.441406 147.558594 C 165.335938 151.644531 162.257812 155.777344 159.246094 159.929688 C 156.941406 163.101562 154.746094 166.457031 151.652344 168.929688 C 151.648438 168.925781 151.648438 168.925781 151.644531 168.925781 Z M 151.644531 168.925781 " fill-opacity="1" fill-rule="evenodd"/><path fill="#000000" d="M 151.652344 169.242188 C 151.574219 169.242188 151.492188 169.210938 151.433594 169.152344 L 151.429688 169.152344 C 151.410156 169.136719 151.402344 169.125 151.394531 169.117188 C 143.773438 162.316406 143.804688 151.355469 143.804688 151.246094 C 143.808594 151.195312 143.820312 151.144531 143.847656 151.097656 C 143.902344 150.996094 149.621094 140.675781 152.691406 135.789062 C 153.347656 134.742188 154.046875 133.613281 154.675781 132.464844 C 154.761719 132.308594 154.839844 132.148438 154.914062 131.996094 C 155.285156 131.246094 155.667969 130.472656 156.730469 130.230469 L 157.378906 130.085938 C 161.269531 129.203125 166.105469 128.101562 169.304688 129.703125 C 171.882812 130.988281 174.683594 132.144531 178.125 133.339844 C 178.210938 133.375 178.285156 133.445312 178.316406 133.535156 C 178.347656 133.628906 178.332031 133.726562 178.277344 133.808594 L 176.910156 135.851562 C 174.375 139.636719 170.90625 144.820312 168.6875 147.746094 C 165.492188 151.949219 162.402344 156.109375 159.496094 160.113281 C 159.1875 160.535156 158.878906 160.964844 158.574219 161.394531 C 156.601562 164.152344 154.558594 167.003906 151.847656 169.171875 C 151.789062 169.21875 151.722656 169.242188 151.652344 169.242188 Z M 144.429688 151.328125 C 144.4375 152.300781 144.730469 162.203125 151.664062 168.519531 C 154.207031 166.425781 156.171875 163.683594 158.070312 161.035156 C 158.378906 160.605469 158.683594 160.171875 158.996094 159.75 C 161.898438 155.742188 164.992188 151.578125 168.191406 147.367188 C 170.402344 144.457031 173.863281 139.285156 176.390625 135.507812 L 177.539062 133.792969 C 174.246094 132.636719 171.535156 131.507812 169.027344 130.257812 C 166.023438 128.757812 161.105469 129.875 157.515625 130.691406 L 156.867188 130.839844 C 156.09375 131.011719 155.832031 131.539062 155.472656 132.269531 C 155.394531 132.429688 155.3125 132.597656 155.222656 132.761719 C 154.582031 133.925781 153.878906 135.0625 153.21875 136.121094 C 150.292969 140.777344 144.941406 150.40625 144.429688 151.328125 Z M 144.429688 151.328125 " fill-opacity="1" fill-rule="nonzero"/><path fill="#ffffff" d="M 156.882812 81.222656 C 157.25 85.089844 156.910156 88.941406 156.800781 92.820312 C 156.71875 95.621094 156.773438 98.417969 156.757812 101.222656 C 156.742188 104.261719 156.925781 107.351562 156.996094 110.394531 C 157.046875 112.78125 157.132812 115.164062 157.15625 117.554688 C 155.171875 117.828125 152.203125 118.207031 151.804688 120.640625 C 151.644531 121.613281 152.347656 122.523438 152.105469 123.492188 C 151.878906 124.378906 150.957031 124.675781 150.511719 125.40625 C 149.824219 126.53125 151.144531 127.695312 151.933594 128.316406 C 154.394531 130.25 157.414062 131.308594 160.367188 132.242188 C 162.921875 133.050781 165.488281 133.832031 168.054688 134.609375 C 169.480469 135.039062 170.917969 135.445312 172.316406 135.949219 C 173.886719 136.515625 175.398438 137.15625 177.054688 137.421875 C 177.78125 137.542969 178.527344 137.597656 179.265625 137.511719 C 182.683594 137.125 183.726562 133.582031 184.640625 130.792969 C 184.976562 129.761719 185.316406 128.730469 185.792969 127.761719 C 187.113281 125.082031 189.121094 122.589844 187.761719 119.472656 C 187.550781 118.988281 187.261719 118.542969 186.910156 118.148438 C 186.46875 117.652344 185.933594 117.246094 185.351562 116.921875 C 185.339844 114.96875 184.929688 113.054688 184.667969 111.128906 C 184.308594 108.476562 184.007812 105.820312 183.617188 103.171875 C 182.292969 94.261719 180.804688 85.300781 180.144531 76.3125 C 179.84375 72.289062 179.917969 67.824219 177.8125 64.234375 C 175.152344 59.710938 169.015625 57.898438 164.324219 56.417969 Z M 156.882812 81.222656 " fill-opacity="1" fill-rule="evenodd"/><path fill="#000000" d="M 178.535156 137.863281 C 178.0625 137.863281 177.554688 137.820312 177.003906 137.730469 C 175.617188 137.503906 174.316406 137.023438 173.054688 136.554688 C 172.773438 136.449219 172.492188 136.34375 172.210938 136.242188 C 171.117188 135.847656 169.976562 135.507812 168.875 135.179688 L 167.964844 134.90625 C 165.394531 134.128906 162.828125 133.347656 160.273438 132.539062 C 157.335938 131.609375 154.257812 130.535156 151.738281 128.5625 C 151.152344 128.097656 149.359375 126.691406 150.246094 125.242188 C 150.453125 124.898438 150.742188 124.652344 151.023438 124.414062 C 151.382812 124.105469 151.691406 123.839844 151.800781 123.414062 C 151.910156 122.988281 151.792969 122.550781 151.667969 122.085938 C 151.539062 121.613281 151.410156 121.125 151.496094 120.589844 C 151.917969 118.046875 154.8125 117.566406 156.839844 117.28125 C 156.820312 115.785156 156.785156 114.289062 156.746094 112.792969 C 156.722656 111.996094 156.703125 111.199219 156.683594 110.398438 C 156.660156 109.308594 156.621094 108.210938 156.578125 107.109375 C 156.507812 105.175781 156.433594 103.171875 156.445312 101.222656 C 156.449219 100.289062 156.445312 99.355469 156.445312 98.421875 C 156.4375 96.582031 156.433594 94.683594 156.488281 92.8125 C 156.515625 91.851562 156.554688 90.890625 156.597656 89.929688 C 156.71875 87.082031 156.847656 84.140625 156.574219 81.25 C 156.558594 81.082031 156.683594 80.929688 156.855469 80.914062 C 156.863281 80.914062 156.875 80.910156 156.882812 80.910156 C 157.042969 80.910156 157.175781 81.03125 157.195312 81.195312 C 157.46875 84.125 157.339844 87.089844 157.21875 89.957031 C 157.175781 90.914062 157.136719 91.871094 157.109375 92.828125 C 157.054688 94.691406 157.0625 96.585938 157.066406 98.421875 C 157.070312 99.355469 157.074219 100.289062 157.070312 101.226562 C 157.054688 103.164062 157.128906 105.160156 157.199219 107.085938 C 157.242188 108.191406 157.28125 109.289062 157.308594 110.382812 C 157.324219 111.183594 157.34375 111.980469 157.367188 112.773438 C 157.40625 114.367188 157.449219 115.957031 157.464844 117.550781 C 157.464844 117.707031 157.351562 117.839844 157.195312 117.859375 L 157.117188 117.871094 C 155.152344 118.144531 152.46875 118.515625 152.113281 120.691406 C 152.046875 121.089844 152.152344 121.496094 152.269531 121.925781 C 152.410156 122.445312 152.554688 122.980469 152.40625 123.566406 C 152.25 124.183594 151.8125 124.554688 151.429688 124.886719 C 151.175781 125.101562 150.9375 125.304688 150.777344 125.566406 C 150.375 126.226562 150.816406 127.042969 152.125 128.070312 C 154.558594 129.984375 157.578125 131.035156 160.457031 131.949219 C 163.015625 132.753906 165.578125 133.535156 168.144531 134.3125 L 169.054688 134.582031 C 170.164062 134.914062 171.3125 135.257812 172.421875 135.660156 C 172.707031 135.761719 172.992188 135.867188 173.273438 135.972656 C 174.5625 136.449219 175.777344 136.902344 177.105469 137.117188 C 177.90625 137.25 178.605469 137.28125 179.230469 137.203125 C 182.339844 136.851562 183.359375 133.726562 184.257812 130.964844 L 184.34375 130.695312 C 184.660156 129.726562 185.019531 128.632812 185.515625 127.621094 C 185.75 127.148438 186.003906 126.679688 186.257812 126.210938 C 187.429688 124.058594 188.535156 122.027344 187.476562 119.597656 C 187.28125 119.148438 187.011719 118.730469 186.679688 118.355469 C 186.285156 117.914062 185.789062 117.523438 185.199219 117.191406 C 185.105469 117.140625 185.042969 117.035156 185.042969 116.925781 C 185.035156 115.515625 184.808594 114.089844 184.59375 112.714844 C 184.511719 112.199219 184.429688 111.683594 184.359375 111.171875 C 184.214844 110.117188 184.082031 109.066406 183.953125 108.011719 C 183.75 106.4375 183.546875 104.8125 183.308594 103.21875 C 183.101562 101.796875 182.882812 100.371094 182.667969 98.941406 C 181.546875 91.546875 180.390625 83.898438 179.835938 76.335938 C 179.789062 75.726562 179.753906 75.109375 179.714844 74.484375 C 179.511719 70.992188 179.296875 67.378906 177.546875 64.394531 C 175.027344 60.109375 169.285156 58.304688 164.671875 56.851562 L 164.230469 56.710938 C 164.066406 56.660156 163.976562 56.488281 164.03125 56.324219 C 164.082031 56.160156 164.253906 56.066406 164.417969 56.121094 L 164.859375 56.257812 C 169.574219 57.742188 175.441406 59.589844 178.078125 64.078125 C 179.90625 67.191406 180.125 70.878906 180.335938 74.449219 C 180.375 75.070312 180.410156 75.683594 180.453125 76.289062 C 181.007812 83.828125 182.164062 91.464844 183.28125 98.847656 C 183.5 100.273438 183.710938 101.699219 183.925781 103.125 C 184.160156 104.726562 184.367188 106.355469 184.566406 107.929688 C 184.699219 108.984375 184.832031 110.035156 184.972656 111.085938 C 185.046875 111.597656 185.125 112.105469 185.203125 112.617188 C 185.417969 113.957031 185.636719 115.34375 185.660156 116.742188 C 186.242188 117.085938 186.738281 117.488281 187.144531 117.941406 C 187.519531 118.363281 187.824219 118.839844 188.046875 119.351562 C 189.226562 122.054688 187.996094 124.316406 186.800781 126.507812 C 186.554688 126.96875 186.300781 127.429688 186.074219 127.894531 C 185.597656 128.863281 185.261719 129.890625 184.9375 130.886719 L 184.847656 131.15625 C 183.9375 133.949219 182.808594 137.421875 179.296875 137.820312 C 179.054688 137.847656 178.800781 137.863281 178.535156 137.863281 Z M 178.535156 137.863281 " fill-opacity="1" fill-rule="nonzero"/><path fill="#f46451" d="M 62.691406 70.726562 L 78.332031 69.207031 L 88.992188 101.730469 L 74.449219 102.496094 Z M 62.691406 70.726562 " fill-opacity="1" fill-rule="evenodd"/><path fill="#000000" d="M 74.449219 102.808594 C 74.320312 102.808594 74.203125 102.726562 74.160156 102.601562 L 62.402344 70.832031 C 62.367188 70.746094 62.378906 70.644531 62.429688 70.5625 C 62.480469 70.480469 62.566406 70.425781 62.664062 70.417969 L 78.300781 68.898438 C 78.441406 68.894531 78.582031 68.972656 78.628906 69.109375 L 89.285156 101.632812 C 89.316406 101.726562 89.300781 101.828125 89.246094 101.90625 C 89.191406 101.984375 89.105469 102.035156 89.007812 102.042969 L 74.46875 102.804688 C 74.460938 102.808594 74.457031 102.808594 74.449219 102.808594 Z M 63.125 70.996094 L 74.664062 102.175781 L 88.570312 101.441406 L 78.113281 69.539062 L 63.121094 70.996094 Z M 63.125 70.996094 " fill-opacity="1" fill-rule="nonzero"/><path fill="#f4a49a" d="M 72.320312 110.058594 C 73.707031 109.371094 74.804688 108.296875 75.097656 106.726562 C 75.320312 105.515625 75.113281 104.222656 75.5625 103.050781 C 76.113281 101.609375 77.640625 100.648438 78.75 99.660156 C 79.347656 99.121094 79.824219 98.488281 80.355469 97.890625 C 80.917969 97.253906 81.570312 96.6875 81.8125 95.84375 C 82.042969 95.039062 81.761719 94.117188 80.90625 93.859375 C 80.621094 93.773438 80.320312 93.746094 80.023438 93.738281 C 81.160156 92.449219 79.71875 90.425781 78.714844 89.597656 C 79.621094 88.679688 80.277344 86.023438 78.515625 85.53125 C 77.609375 85.28125 76.585938 85.492188 75.660156 85.535156 C 73.785156 85.621094 71.902344 85.765625 70.023438 85.8125 C 70.308594 85.4375 70.601562 85.066406 70.902344 84.707031 C 72.667969 82.605469 75.03125 80.488281 74.929688 77.5 C 74.917969 77.222656 74.878906 76.949219 74.792969 76.683594 C 74.207031 74.863281 72.460938 76.53125 71.710938 77.179688 C 71.503906 77.359375 71.28125 77.519531 71.058594 77.679688 C 69.460938 78.828125 67.253906 79.625 66.257812 81.378906 C 65.273438 83.109375 64.296875 84.824219 63.3125 86.554688 C 61.242188 90.207031 61.78125 94.621094 61.753906 98.648438 C 61.746094 100.667969 61.488281 102.863281 62.15625 104.808594 C 62.683594 106.332031 63.75 107.617188 64.765625 108.84375 C 65.519531 109.757812 66.210938 110.941406 67.433594 111.242188 Z M 72.320312 110.058594 " fill-opacity="1" fill-rule="evenodd"/><path fill="#000000" d="M 67.433594 111.554688 C 67.410156 111.554688 67.386719 111.550781 67.359375 111.546875 C 66.257812 111.277344 65.554688 110.363281 64.933594 109.5625 C 64.796875 109.386719 64.664062 109.210938 64.527344 109.046875 C 63.480469 107.78125 62.40625 106.488281 61.867188 104.914062 C 61.316406 103.320312 61.367188 101.59375 61.417969 99.925781 C 61.429688 99.496094 61.441406 99.070312 61.445312 98.652344 C 61.449219 97.941406 61.4375 97.222656 61.421875 96.496094 C 61.359375 93.050781 61.296875 89.484375 63.042969 86.40625 L 65.988281 81.226562 C 66.726562 79.925781 68.0625 79.140625 69.355469 78.386719 C 69.898438 78.066406 70.414062 77.765625 70.878906 77.425781 C 71.089844 77.273438 71.308594 77.117188 71.507812 76.945312 L 71.636719 76.832031 C 72.273438 76.273438 73.332031 75.351562 74.207031 75.589844 C 74.617188 75.703125 74.910156 76.039062 75.089844 76.589844 C 75.175781 76.871094 75.226562 77.171875 75.238281 77.488281 C 75.332031 80.144531 73.546875 82.164062 71.976562 83.945312 C 71.6875 84.265625 71.40625 84.589844 71.140625 84.910156 C 70.980469 85.097656 70.828125 85.289062 70.675781 85.484375 C 71.613281 85.449219 72.558594 85.394531 73.476562 85.339844 C 74.203125 85.300781 74.925781 85.257812 75.644531 85.226562 C 75.882812 85.214844 76.128906 85.195312 76.375 85.171875 C 77.109375 85.105469 77.875 85.035156 78.597656 85.234375 C 79.238281 85.414062 79.671875 85.855469 79.847656 86.511719 C 80.113281 87.515625 79.722656 88.8125 79.148438 89.566406 C 79.898438 90.269531 80.660156 91.390625 80.742188 92.429688 C 80.773438 92.808594 80.714844 93.160156 80.570312 93.472656 C 80.722656 93.492188 80.859375 93.523438 80.996094 93.5625 C 82.0625 93.882812 82.367188 95.019531 82.109375 95.929688 C 81.894531 96.691406 81.386719 97.234375 80.898438 97.757812 C 80.792969 97.867188 80.6875 97.980469 80.585938 98.09375 C 80.433594 98.269531 80.28125 98.445312 80.132812 98.621094 C 79.769531 99.050781 79.398438 99.496094 78.960938 99.890625 C 78.707031 100.117188 78.433594 100.339844 78.152344 100.570312 C 77.214844 101.332031 76.25 102.121094 75.851562 103.160156 C 75.601562 103.820312 75.570312 104.523438 75.539062 105.269531 C 75.519531 105.765625 75.496094 106.28125 75.402344 106.785156 C 75.125 108.292969 74.105469 109.519531 72.460938 110.335938 C 72.304688 110.40625 72.121094 110.351562 72.042969 110.195312 C 71.96875 110.042969 72.03125 109.855469 72.183594 109.777344 C 73.667969 109.042969 74.546875 107.996094 74.792969 106.671875 C 74.875 106.207031 74.898438 105.738281 74.917969 105.242188 C 74.949219 104.480469 74.984375 103.691406 75.273438 102.9375 C 75.730469 101.746094 76.808594 100.863281 77.757812 100.085938 C 78.03125 99.863281 78.300781 99.644531 78.546875 99.425781 C 78.949219 99.0625 79.292969 98.652344 79.65625 98.21875 C 79.8125 98.039062 79.964844 97.859375 80.121094 97.679688 C 80.226562 97.558594 80.335938 97.445312 80.445312 97.332031 C 80.90625 96.839844 81.335938 96.375 81.511719 95.757812 C 81.695312 95.117188 81.511719 94.363281 80.816406 94.15625 C 80.597656 94.09375 80.339844 94.058594 80.019531 94.050781 C 79.898438 94.046875 79.789062 93.976562 79.738281 93.863281 C 79.691406 93.753906 79.710938 93.625 79.792969 93.535156 C 80.050781 93.242188 80.160156 92.894531 80.125 92.476562 C 80.050781 91.550781 79.261719 90.445312 78.519531 89.832031 C 78.453125 89.777344 78.410156 89.699219 78.40625 89.609375 C 78.402344 89.523438 78.433594 89.4375 78.496094 89.375 C 79.042969 88.820312 79.484375 87.546875 79.25 86.667969 C 79.128906 86.226562 78.863281 85.949219 78.433594 85.828125 C 77.816406 85.660156 77.113281 85.726562 76.433594 85.789062 C 76.179688 85.808594 75.921875 85.835938 75.675781 85.84375 C 74.957031 85.875 74.238281 85.917969 73.515625 85.960938 C 72.375 86.023438 71.191406 86.09375 70.03125 86.121094 L 70.023438 86.121094 C 69.90625 86.121094 69.796875 86.054688 69.746094 85.949219 C 69.691406 85.84375 69.703125 85.714844 69.777344 85.621094 C 70.070312 85.246094 70.363281 84.871094 70.664062 84.507812 C 70.9375 84.183594 71.226562 83.859375 71.515625 83.53125 C 73.082031 81.753906 74.703125 79.917969 74.621094 77.507812 C 74.613281 77.242188 74.570312 77.003906 74.5 76.777344 C 74.394531 76.4375 74.238281 76.242188 74.046875 76.183594 C 73.503906 76.027344 72.519531 76.886719 72.050781 77.296875 L 71.917969 77.414062 C 71.703125 77.597656 71.476562 77.765625 71.246094 77.929688 C 70.753906 78.28125 70.203125 78.605469 69.671875 78.917969 C 68.449219 79.632812 67.1875 80.375 66.527344 81.53125 L 63.585938 86.710938 C 61.921875 89.640625 61.984375 93.117188 62.046875 96.480469 C 62.058594 97.214844 62.074219 97.9375 62.070312 98.652344 C 62.066406 99.074219 62.054688 99.503906 62.042969 99.941406 C 61.992188 101.554688 61.941406 103.222656 62.453125 104.707031 C 62.960938 106.175781 64 107.425781 65 108.636719 C 65.148438 108.816406 65.289062 108.996094 65.425781 109.179688 C 66.011719 109.9375 66.617188 110.722656 67.511719 110.941406 C 67.675781 110.980469 67.777344 111.148438 67.738281 111.316406 C 67.703125 111.457031 67.574219 111.554688 67.4375 111.554688 Z M 67.433594 111.554688 " fill-opacity="1" fill-rule="nonzero"/><path fill="#000000" d="M 93.386719 106.527344 C 93.34375 106.527344 93.304688 106.519531 93.265625 106.503906 C 93.105469 106.4375 93.03125 106.253906 93.101562 106.097656 C 94.222656 103.445312 94.886719 100.554688 95.527344 97.757812 C 95.742188 96.800781 95.964844 95.847656 96.199219 94.910156 C 97.261719 90.65625 97.976562 86.324219 98.589844 82.28125 C 98.683594 81.65625 98.78125 81.027344 98.882812 80.394531 C 99.414062 76.972656 99.96875 73.4375 100.011719 69.960938 C 100.011719 69.789062 100.140625 69.671875 100.324219 69.652344 C 100.496094 69.65625 100.636719 69.796875 100.632812 69.96875 C 100.589844 73.488281 100.03125 77.046875 99.496094 80.492188 C 99.398438 81.121094 99.300781 81.746094 99.207031 82.371094 C 98.589844 86.433594 97.871094 90.785156 96.800781 95.058594 C 96.566406 95.996094 96.347656 96.941406 96.132812 97.894531 C 95.484375 100.71875 94.816406 103.636719 93.671875 106.339844 C 93.621094 106.457031 93.507812 106.527344 93.386719 106.527344 Z M 93.386719 106.527344 " fill-opacity="1" fill-rule="nonzero"/><path fill="#000000" d="M 87.25 124.667969 C 87.140625 124.667969 87.035156 124.609375 86.976562 124.511719 C 86.894531 124.359375 86.949219 124.171875 87.097656 124.085938 C 91.175781 121.808594 93.128906 117.125 94.046875 113.597656 L 94.167969 113.140625 C 94.511719 111.867188 94.9375 110.277344 94.625 109.089844 C 94.207031 107.480469 93.191406 106.667969 92.019531 105.730469 C 91.707031 105.480469 91.382812 105.222656 91.058594 104.9375 C 90.746094 104.664062 90.46875 104.355469 90.203125 104.054688 C 89.957031 103.78125 89.722656 103.519531 89.457031 103.28125 C 88.804688 102.6875 88.058594 102.355469 87.417969 102.109375 C 87.257812 102.046875 87.175781 101.867188 87.238281 101.707031 C 87.300781 101.546875 87.476562 101.46875 87.640625 101.53125 C 88.335938 101.792969 89.148438 102.15625 89.875 102.820312 C 90.164062 103.078125 90.417969 103.367188 90.667969 103.640625 C 90.933594 103.9375 91.183594 104.21875 91.46875 104.46875 C 91.785156 104.746094 92.101562 105 92.410156 105.246094 C 93.617188 106.214844 94.753906 107.125 95.230469 108.929688 C 95.582031 110.277344 95.132812 111.957031 94.769531 113.300781 L 94.652344 113.753906 C 93.699219 117.402344 91.671875 122.246094 87.402344 124.628906 C 87.351562 124.65625 87.300781 124.671875 87.25 124.671875 Z M 87.25 124.667969 " fill-opacity="1" fill-rule="nonzero"/><path fill="#000000" d="M 70.3125 100.425781 C 70.207031 100.425781 70.101562 100.367188 70.046875 100.265625 C 69.960938 100.121094 70.011719 99.929688 70.160156 99.84375 C 71.007812 99.359375 71.660156 98.617188 72.347656 97.832031 C 72.957031 97.144531 73.582031 96.429688 74.355469 95.914062 C 75.371094 95.226562 76.535156 94.65625 77.8125 94.214844 C 78.109375 94.117188 78.417969 94.035156 78.722656 93.953125 C 79.191406 93.828125 79.632812 93.714844 80.046875 93.527344 C 80.1875 93.449219 80.382812 93.519531 80.457031 93.675781 C 80.527344 93.832031 80.460938 94.015625 80.304688 94.089844 C 79.84375 94.304688 79.355469 94.429688 78.878906 94.554688 C 78.589844 94.628906 78.296875 94.707031 78.015625 94.800781 C 76.789062 95.226562 75.671875 95.773438 74.699219 96.425781 C 73.996094 96.902344 73.421875 97.554688 72.816406 98.242188 C 72.121094 99.03125 71.40625 99.84375 70.46875 100.382812 C 70.417969 100.410156 70.367188 100.421875 70.3125 100.421875 Z M 70.3125 100.425781 " fill-opacity="1" fill-rule="nonzero"/><path fill="#000000" d="M 67.726562 95.421875 C 67.578125 95.421875 67.445312 95.316406 67.421875 95.164062 C 67.390625 94.996094 67.5 94.835938 67.671875 94.804688 C 68.128906 94.722656 68.503906 94.3125 68.863281 93.914062 L 69.054688 93.710938 C 69.296875 93.449219 69.527344 93.179688 69.761719 92.90625 C 70.398438 92.167969 71.054688 91.402344 71.921875 90.875 C 72.957031 90.246094 73.972656 89.890625 75.203125 89.722656 C 75.644531 89.660156 76.105469 89.640625 76.550781 89.621094 C 77.257812 89.582031 77.992188 89.550781 78.636719 89.363281 C 78.800781 89.3125 78.972656 89.410156 79.019531 89.578125 C 79.066406 89.742188 78.972656 89.914062 78.804688 89.960938 C 78.09375 90.167969 77.324219 90.203125 76.578125 90.238281 C 76.125 90.261719 75.699219 90.28125 75.289062 90.335938 C 74.140625 90.496094 73.203125 90.824219 72.246094 91.40625 C 71.460938 91.882812 70.839844 92.609375 70.234375 93.3125 C 69.992188 93.589844 69.753906 93.871094 69.503906 94.136719 L 69.324219 94.332031 C 68.914062 94.785156 68.449219 95.296875 67.78125 95.417969 C 67.761719 95.421875 67.742188 95.421875 67.726562 95.421875 Z M 67.726562 95.421875 " fill-opacity="1" fill-rule="nonzero"/><path fill="#000000" d="M 64.957031 91.457031 C 64.828125 91.457031 64.707031 91.375 64.664062 91.246094 C 64.605469 91.082031 64.691406 90.90625 64.855469 90.851562 C 65.511719 90.621094 66.023438 89.851562 66.472656 89.167969 C 66.648438 88.90625 66.8125 88.65625 66.980469 88.445312 L 67.175781 88.183594 C 67.816406 87.351562 68.609375 86.3125 69.597656 85.855469 C 70.1875 85.589844 70.894531 85.546875 71.519531 85.507812 L 71.8125 85.492188 C 72.019531 85.476562 72.132812 85.609375 72.144531 85.777344 C 72.15625 85.949219 72.027344 86.097656 71.855469 86.109375 L 71.554688 86.128906 C 70.984375 86.164062 70.339844 86.203125 69.859375 86.421875 C 69.011719 86.8125 68.269531 87.785156 67.671875 88.566406 L 67.46875 88.824219 C 67.3125 89.027344 67.15625 89.265625 66.992188 89.511719 C 66.488281 90.277344 65.914062 91.140625 65.058594 91.4375 C 65.023438 91.453125 64.992188 91.457031 64.957031 91.457031 Z M 64.957031 91.457031 " fill-opacity="1" fill-rule="nonzero"/><path fill="#000000" d="M 155.601562 118.175781 C 155.457031 118.175781 155.328125 118.074219 155.300781 117.925781 C 155.261719 117.757812 155.371094 117.59375 155.539062 117.558594 C 162.503906 116.101562 169.488281 115.917969 175.394531 115.9375 L 175.4375 115.9375 C 176.199219 115.9375 176.976562 115.902344 177.796875 115.863281 C 180.464844 115.742188 183.222656 115.609375 185.601562 116.730469 C 185.757812 116.800781 185.824219 116.988281 185.753906 117.140625 C 185.683594 117.296875 185.496094 117.371094 185.339844 117.292969 C 183.097656 116.238281 180.417969 116.363281 177.828125 116.484375 C 176.984375 116.523438 176.199219 116.527344 175.394531 116.558594 C 175.171875 116.558594 174.949219 116.558594 174.726562 116.558594 C 168.992188 116.558594 162.316406 116.777344 155.664062 118.164062 C 155.644531 118.171875 155.625 118.171875 155.601562 118.171875 Z M 155.601562 118.175781 " fill-opacity="1" fill-rule="nonzero"/><path fill="#000000" d="M 160.335938 115.3125 C 160.203125 115.3125 160.078125 115.222656 160.039062 115.085938 C 159.992188 114.917969 160.089844 114.746094 160.253906 114.703125 C 163.257812 113.875 166.339844 113.550781 169.324219 113.234375 C 170.777344 113.082031 172.28125 112.921875 173.757812 112.707031 C 173.921875 112.675781 174.085938 112.800781 174.109375 112.96875 C 174.132812 113.140625 174.015625 113.296875 173.84375 113.320312 C 172.355469 113.539062 170.847656 113.699219 169.390625 113.851562 C 166.429688 114.164062 163.371094 114.488281 160.421875 115.300781 C 160.390625 115.308594 160.363281 115.316406 160.335938 115.316406 Z M 160.335938 115.3125 " fill-opacity="1" fill-rule="nonzero"/><path fill="#000000" d="M 163.976562 111.125 C 163.824219 111.125 163.6875 111.011719 163.667969 110.855469 C 163.644531 110.683594 163.765625 110.527344 163.9375 110.507812 C 165.582031 110.285156 167.242188 109.914062 168.847656 109.554688 C 170.351562 109.214844 171.90625 108.867188 173.460938 108.640625 C 173.628906 108.609375 173.789062 108.730469 173.8125 108.902344 C 173.835938 109.074219 173.71875 109.230469 173.550781 109.253906 C 172.019531 109.480469 170.476562 109.824219 168.984375 110.160156 C 167.367188 110.523438 165.691406 110.898438 164.015625 111.121094 C 164.003906 111.125 163.988281 111.125 163.976562 111.125 Z M 163.976562 111.125 " fill-opacity="1" fill-rule="nonzero"/><path fill="#000000" d="M 114.5 172.769531 C 114.460938 172.769531 114.417969 172.761719 114.375 172.742188 C 111.714844 171.597656 109.636719 169.136719 109.085938 166.464844 C 108.832031 165.246094 108.863281 163.949219 108.894531 162.691406 C 108.90625 162.289062 108.914062 161.890625 108.914062 161.5 C 108.914062 159.914062 108.964844 158.296875 109.015625 156.734375 C 109.085938 154.472656 109.160156 152.136719 109.082031 149.847656 C 109.078125 149.675781 109.210938 149.53125 109.382812 149.523438 L 109.390625 149.523438 C 109.558594 149.523438 109.695312 149.65625 109.703125 149.824219 C 109.78125 152.136719 109.707031 154.484375 109.632812 156.753906 C 109.585938 158.3125 109.535156 159.921875 109.535156 161.5 C 109.535156 161.894531 109.523438 162.300781 109.515625 162.707031 C 109.484375 163.929688 109.453125 165.191406 109.691406 166.339844 C 110.203125 168.816406 112.140625 171.105469 114.621094 172.171875 C 114.78125 172.238281 114.851562 172.421875 114.785156 172.578125 C 114.734375 172.695312 114.617188 172.765625 114.5 172.765625 Z M 114.5 172.769531 " fill-opacity="1" fill-rule="nonzero"/><path fill="#000000" d="M 111.976562 217.125 C 111.957031 217.125 111.9375 217.125 111.917969 217.121094 C 111.746094 217.085938 111.640625 216.921875 111.671875 216.753906 C 112.03125 214.976562 114.863281 160.230469 114.730469 157.582031 C 114.722656 157.414062 114.855469 157.265625 115.027344 157.257812 C 115.03125 157.257812 115.039062 157.257812 115.042969 157.257812 C 115.207031 157.257812 115.34375 157.386719 115.351562 157.550781 C 115.484375 160.207031 112.640625 215.09375 112.28125 216.875 C 112.253906 217.023438 112.125 217.125 111.976562 217.125 Z M 111.976562 217.125 " fill-opacity="1" fill-rule="nonzero"/><path fill="#000000" d="M 108.671875 290.292969 C 108.503906 290.292969 108.367188 290.160156 108.359375 289.992188 C 108.332031 289.3125 108.886719 275.648438 109.480469 261.175781 C 110.078125 246.460938 110.699219 231.25 110.667969 230.570312 C 110.660156 230.398438 110.792969 230.253906 110.960938 230.246094 C 110.96875 230.242188 110.972656 230.242188 110.976562 230.242188 C 111.140625 230.242188 111.28125 230.371094 111.289062 230.539062 C 111.324219 231.246094 110.730469 245.796875 110.101562 261.203125 C 109.535156 275.023438 108.953125 289.3125 108.980469 289.96875 C 108.988281 290.140625 108.855469 290.285156 108.683594 290.289062 C 108.679688 290.292969 108.675781 290.292969 108.671875 290.292969 Z M 108.671875 290.292969 " fill-opacity="1" fill-rule="nonzero"/><path fill="#000000" d="M 98.023438 234.820312 C 97.972656 234.820312 97.921875 234.808594 97.878906 234.78125 C 97.726562 234.699219 97.671875 234.507812 97.753906 234.359375 C 98.867188 232.308594 100.285156 230.296875 101.960938 228.382812 C 102.394531 227.886719 102.863281 227.414062 103.316406 226.957031 C 103.984375 226.28125 104.671875 225.585938 105.246094 224.820312 C 105.644531 224.285156 105.976562 223.667969 106.296875 223.070312 C 106.433594 222.816406 106.570312 222.5625 106.707031 222.3125 C 106.796875 222.164062 106.988281 222.121094 107.132812 222.195312 C 107.28125 222.28125 107.332031 222.472656 107.25 222.621094 C 107.109375 222.863281 106.976562 223.113281 106.84375 223.363281 C 106.511719 223.980469 106.171875 224.621094 105.746094 225.191406 C 105.144531 225.992188 104.4375 226.703125 103.757812 227.394531 C 103.3125 227.84375 102.851562 228.308594 102.429688 228.789062 C 100.785156 230.667969 99.394531 232.644531 98.300781 234.65625 C 98.242188 234.761719 98.136719 234.820312 98.027344 234.820312 Z M 98.023438 234.820312 " fill-opacity="1" fill-rule="nonzero"/><path fill="#000000" d="M 102.28125 233.839844 C 102.226562 233.839844 102.171875 233.824219 102.125 233.796875 C 101.976562 233.710938 101.925781 233.519531 102.011719 233.371094 C 102.492188 232.539062 102.945312 231.65625 103.382812 230.804688 C 103.941406 229.714844 104.523438 228.585938 105.175781 227.523438 C 105.265625 227.378906 105.453125 227.335938 105.601562 227.425781 C 105.75 227.515625 105.792969 227.707031 105.703125 227.851562 C 105.0625 228.890625 104.488281 230.007812 103.933594 231.089844 C 103.492188 231.945312 103.039062 232.835938 102.546875 233.683594 C 102.492188 233.78125 102.386719 233.839844 102.28125 233.839844 Z M 102.28125 233.839844 " fill-opacity="1" fill-rule="nonzero"/><path fill="#000000" d="M 154.019531 171.003906 C 153.96875 171.003906 153.917969 170.992188 153.871094 170.964844 C 152.679688 170.316406 151.429688 169.277344 150.054688 167.785156 C 149.9375 167.660156 149.945312 167.460938 150.070312 167.34375 C 150.195312 167.230469 150.394531 167.234375 150.511719 167.363281 C 151.839844 168.804688 153.035156 169.804688 154.167969 170.417969 C 154.316406 170.503906 154.371094 170.691406 154.292969 170.839844 C 154.234375 170.945312 154.128906 171.003906 154.019531 171.003906 Z M 154.019531 171.003906 " fill-opacity="1" fill-rule="nonzero"/><path fill="#000000" d="M 144.171875 153.210938 C 144.011719 153.210938 143.875 153.082031 143.863281 152.921875 C 143.730469 151.226562 143.800781 149.542969 144.070312 147.761719 C 144.097656 147.59375 144.261719 147.480469 144.425781 147.503906 C 144.597656 147.527344 144.714844 147.6875 144.6875 147.855469 C 144.421875 149.589844 144.355469 151.226562 144.480469 152.871094 C 144.496094 153.042969 144.367188 153.195312 144.195312 153.207031 C 144.1875 153.207031 144.179688 153.207031 144.171875 153.207031 Z M 144.171875 153.210938 " fill-opacity="1" fill-rule="nonzero"/><path fill="#000000" d="M 126.25 32.523438 C 126.234375 32.523438 126.226562 32.523438 126.214844 32.523438 C 125.816406 32.476562 125.476562 32.382812 125.179688 32.230469 C 123.324219 31.285156 124.09375 29.75 124.714844 28.515625 C 124.890625 28.167969 125.054688 27.839844 125.175781 27.519531 C 125.484375 26.683594 125.753906 25.78125 126.046875 24.59375 C 126.089844 24.429688 126.261719 24.332031 126.425781 24.367188 C 126.589844 24.410156 126.691406 24.578125 126.652344 24.746094 C 126.351562 25.953125 126.074219 26.875 125.757812 27.734375 C 125.628906 28.085938 125.445312 28.445312 125.269531 28.796875 C 124.582031 30.167969 124.21875 31.046875 125.460938 31.675781 C 125.6875 31.792969 125.960938 31.867188 126.285156 31.902344 C 126.457031 31.925781 126.578125 32.078125 126.558594 32.246094 C 126.539062 32.40625 126.40625 32.523438 126.25 32.523438 Z M 126.25 32.523438 " fill-opacity="1" fill-rule="nonzero"/><path fill="#000000" d="M 127.019531 36.753906 C 125.734375 36.753906 123.238281 35.855469 123.132812 35.816406 C 122.972656 35.761719 122.886719 35.582031 122.945312 35.421875 C 123.003906 35.261719 123.1875 35.171875 123.34375 35.234375 C 123.367188 35.242188 125.839844 36.128906 127.019531 36.128906 C 128.199219 36.128906 130.535156 35.816406 130.816406 35.699219 C 131.167969 35.550781 133.09375 34.886719 133.179688 34.859375 C 133.34375 34.800781 133.515625 34.886719 133.574219 35.050781 C 133.628906 35.210938 133.542969 35.390625 133.378906 35.445312 C 132.691406 35.679688 131.324219 36.160156 131.058594 36.269531 C 130.648438 36.445312 128.246094 36.753906 127.019531 36.753906 Z M 127.019531 36.753906 " fill-opacity="1" fill-rule="nonzero"/><g clip-path="url(#6e6ac48469)"><path fill="#0da487" d="M 187.570312 18.59375 C 185.925781 16.429688 184.804688 13.914062 184.023438 11.328125 C 183.246094 8.738281 182.476562 5.761719 183.433594 3.125 C 184.019531 1.503906 185.511719 0.113281 187.234375 0.113281 C 188.402344 0.113281 189.515625 0.757812 190.296875 1.636719 C 192.066406 3.648438 192.667969 6.890625 192.824219 9.484375 C 193.027344 12.546875 192.535156 15.496094 191.347656 18.328125 " fill-opacity="1" fill-rule="nonzero"/></g><path fill="#0da487" d="M 191.71875 18.679688 C 193.285156 16.222656 195.015625 13.832031 197.210938 11.914062 C 199.40625 9.992188 202.105469 8.5625 205.015625 8.292969 C 206.761719 8.136719 208.789062 8.554688 209.652344 10.078125 C 210.640625 11.816406 209.585938 14.058594 208.136719 15.441406 C 204.554688 18.863281 198.328125 20.527344 193.476562 21.242188 " fill-opacity="1" fill-rule="nonzero"/><g clip-path="url(#0da606a151)"><path fill="#0da487" d="M 193.773438 21.511719 C 196.6875 21.511719 199.636719 21.679688 202.433594 22.492188 C 205.234375 23.308594 207.886719 24.816406 209.679688 27.121094 C 210.753906 28.507812 211.492188 30.441406 210.671875 31.992188 C 209.734375 33.757812 207.285156 34.074219 205.335938 33.597656 C 200.523438 32.425781 195.773438 28.070312 192.554688 24.371094 " fill-opacity="1" fill-rule="nonzero"/></g><path fill="#0da487" d="M 192.464844 25.015625 C 194.144531 27.394531 195.707031 29.902344 196.652344 32.660156 C 197.597656 35.417969 197.894531 38.464844 197.042969 41.253906 C 196.53125 42.929688 195.375 44.648438 193.636719 44.871094 C 191.648438 45.125 189.980469 43.300781 189.246094 41.433594 C 187.4375 36.824219 188.257812 30.433594 189.433594 25.671875 " fill-opacity="1" fill-rule="nonzero"/><path fill="#0da487" d="M 188.574219 25.460938 C 187.878906 28.292969 187.011719 31.113281 185.546875 33.636719 C 184.085938 36.15625 181.980469 38.382812 179.320312 39.570312 C 177.71875 40.285156 175.660156 40.535156 174.351562 39.367188 C 172.859375 38.035156 173.140625 35.578125 174.066406 33.804688 C 176.363281 29.410156 181.722656 25.839844 186.089844 23.601562 " fill-opacity="1" fill-rule="nonzero"/><g clip-path="url(#e6618e20e4)"><path fill="#0da487" d="M 185.875 23.242188 C 184.386719 23.96875 182.699219 24.144531 181.046875 24.285156 C 179.59375 24.410156 178.128906 24.519531 176.675781 24.382812 C 175.304688 24.246094 173.992188 23.902344 172.730469 23.347656 C 171.472656 22.792969 170.328125 22.058594 169.304688 21.136719 C 168.785156 20.664062 168.292969 20.144531 168 19.507812 C 167.089844 17.535156 168.441406 15.082031 170.402344 14.148438 C 172.363281 13.214844 174.679688 13.464844 176.777344 14.023438 C 180.496094 15.015625 183.78125 16.800781 186.632812 19.382812 " fill-opacity="1" fill-rule="nonzero"/></g><path fill="#fabf7a" d="M 193.46875 21.925781 C 193.46875 22.414062 193.375 22.886719 193.1875 23.335938 C 193 23.789062 192.734375 24.1875 192.386719 24.535156 C 192.042969 24.878906 191.640625 25.148438 191.191406 25.335938 C 190.738281 25.523438 190.265625 25.617188 189.777344 25.617188 C 189.289062 25.617188 188.816406 25.523438 188.363281 25.335938 C 187.914062 25.148438 187.511719 24.878906 187.167969 24.535156 C 186.820312 24.1875 186.554688 23.789062 186.367188 23.335938 C 186.179688 22.886719 186.085938 22.414062 186.085938 21.925781 C 186.085938 21.433594 186.179688 20.964844 186.367188 20.511719 C 186.554688 20.058594 186.820312 19.660156 187.167969 19.3125 C 187.511719 18.96875 187.914062 18.703125 188.363281 18.515625 C 188.816406 18.328125 189.289062 18.234375 189.777344 18.234375 C 190.265625 18.234375 190.738281 18.328125 191.191406 18.515625 C 191.640625 18.703125 192.042969 18.96875 192.386719 19.3125 C 192.734375 19.660156 193 20.058594 193.1875 20.511719 C 193.375 20.964844 193.46875 21.433594 193.46875 21.925781 Z M 193.46875 21.925781 " fill-opacity="1" fill-rule="nonzero"/></svg>