<svg xmlns="http://www.w3.org/2000/svg" xmlns:xlink="http://www.w3.org/1999/xlink" width="318" zoomAndPan="magnify" viewBox="0 0 238.5 343.500003" height="458" preserveAspectRatio="xMidYMid meet" version="1.0"><defs><clipPath id="fc16ef6b0d"><path d="M 162 208 L 215 208 L 215 281 L 162 281 Z M 162 208 " clip-rule="nonzero"/></clipPath><clipPath id="b18ee6a515"><path d="M 152.785156 205.207031 L 225.085938 192.871094 L 237.925781 268.125 L 165.625 280.460938 Z M 152.785156 205.207031 " clip-rule="nonzero"/></clipPath><clipPath id="5b342aed0d"><path d="M 152.785156 205.207031 L 225.085938 192.871094 L 237.925781 268.125 L 165.625 280.460938 Z M 152.785156 205.207031 " clip-rule="nonzero"/></clipPath><clipPath id="a71cd3b785"><path d="M 204 197 L 226 197 L 226 218 L 204 218 Z M 204 197 " clip-rule="nonzero"/></clipPath><clipPath id="0acb3b1a0a"><path d="M 152.785156 205.207031 L 225.085938 192.871094 L 237.925781 268.125 L 165.625 280.460938 Z M 152.785156 205.207031 " clip-rule="nonzero"/></clipPath><clipPath id="0ba41a08de"><path d="M 152.785156 205.207031 L 225.085938 192.871094 L 237.925781 268.125 L 165.625 280.460938 Z M 152.785156 205.207031 " clip-rule="nonzero"/></clipPath><clipPath id="66ff233015"><path d="M 190 203 L 197 203 L 197 229 L 190 229 Z M 190 203 " clip-rule="nonzero"/></clipPath><clipPath id="ff62a10756"><path d="M 152.785156 205.207031 L 225.085938 192.871094 L 237.925781 268.125 L 165.625 280.460938 Z M 152.785156 205.207031 " clip-rule="nonzero"/></clipPath><clipPath id="e9f7917988"><path d="M 152.785156 205.207031 L 225.085938 192.871094 L 237.925781 268.125 L 165.625 280.460938 Z M 152.785156 205.207031 " clip-rule="nonzero"/></clipPath><clipPath id="f662cc5f80"><path d="M 194 218 L 224 218 L 224 229 L 194 229 Z M 194 218 " clip-rule="nonzero"/></clipPath><clipPath id="d7c06de972"><path d="M 152.785156 205.207031 L 225.085938 192.871094 L 237.925781 268.125 L 165.625 280.460938 Z M 152.785156 205.207031 " clip-rule="nonzero"/></clipPath><clipPath id="ca885aebb4"><path d="M 152.785156 205.207031 L 225.085938 192.871094 L 237.925781 268.125 L 165.625 280.460938 Z M 152.785156 205.207031 " clip-rule="nonzero"/></clipPath><clipPath id="6d7d113c4f"><path d="M 177 213 L 186 213 L 186 240 L 177 240 Z M 177 213 " clip-rule="nonzero"/></clipPath><clipPath id="3772d66e02"><path d="M 152.785156 205.207031 L 225.085938 192.871094 L 237.925781 268.125 L 165.625 280.460938 Z M 152.785156 205.207031 " clip-rule="nonzero"/></clipPath><clipPath id="619c58045e"><path d="M 152.785156 205.207031 L 225.085938 192.871094 L 237.925781 268.125 L 165.625 280.460938 Z M 152.785156 205.207031 " clip-rule="nonzero"/></clipPath><clipPath id="6c42b2bfc7"><path d="M 185 230 L 217 230 L 217 241 L 185 241 Z M 185 230 " clip-rule="nonzero"/></clipPath><clipPath id="30358a11c3"><path d="M 152.785156 205.207031 L 225.085938 192.871094 L 237.925781 268.125 L 165.625 280.460938 Z M 152.785156 205.207031 " clip-rule="nonzero"/></clipPath><clipPath id="6b1d67f8be"><path d="M 152.785156 205.207031 L 225.085938 192.871094 L 237.925781 268.125 L 165.625 280.460938 Z M 152.785156 205.207031 " clip-rule="nonzero"/></clipPath><clipPath id="a0952a8ee7"><path d="M 166 226 L 180 226 L 180 251 L 166 251 Z M 166 226 " clip-rule="nonzero"/></clipPath><clipPath id="2f08aaa370"><path d="M 152.785156 205.207031 L 225.085938 192.871094 L 237.925781 268.125 L 165.625 280.460938 Z M 152.785156 205.207031 " clip-rule="nonzero"/></clipPath><clipPath id="09d43bee45"><path d="M 152.785156 205.207031 L 225.085938 192.871094 L 237.925781 268.125 L 165.625 280.460938 Z M 152.785156 205.207031 " clip-rule="nonzero"/></clipPath><clipPath id="03344d189f"><path d="M 179 242 L 210 242 L 210 252 L 179 252 Z M 179 242 " clip-rule="nonzero"/></clipPath><clipPath id="f087fc78b0"><path d="M 152.785156 205.207031 L 225.085938 192.871094 L 237.925781 268.125 L 165.625 280.460938 Z M 152.785156 205.207031 " clip-rule="nonzero"/></clipPath><clipPath id="d5af1bccb6"><path d="M 152.785156 205.207031 L 225.085938 192.871094 L 237.925781 268.125 L 165.625 280.460938 Z M 152.785156 205.207031 " clip-rule="nonzero"/></clipPath><clipPath id="972f3338e1"><path d="M 159 236 L 174 236 L 174 265 L 159 265 Z M 159 236 " clip-rule="nonzero"/></clipPath><clipPath id="011876b780"><path d="M 152.785156 205.207031 L 225.085938 192.871094 L 237.925781 268.125 L 165.625 280.460938 Z M 152.785156 205.207031 " clip-rule="nonzero"/></clipPath><clipPath id="f7d3ee6856"><path d="M 152.785156 205.207031 L 225.085938 192.871094 L 237.925781 268.125 L 165.625 280.460938 Z M 152.785156 205.207031 " clip-rule="nonzero"/></clipPath><clipPath id="3d8faa2d08"><path d="M 173 252 L 206 252 L 206 265 L 173 265 Z M 173 252 " clip-rule="nonzero"/></clipPath><clipPath id="3506971df6"><path d="M 152.785156 205.207031 L 225.085938 192.871094 L 237.925781 268.125 L 165.625 280.460938 Z M 152.785156 205.207031 " clip-rule="nonzero"/></clipPath><clipPath id="19356abd9b"><path d="M 152.785156 205.207031 L 225.085938 192.871094 L 237.925781 268.125 L 165.625 280.460938 Z M 152.785156 205.207031 " clip-rule="nonzero"/></clipPath><clipPath id="3725bf360b"><path d="M 21 68 L 55 68 L 55 125 L 21 125 Z M 21 68 " clip-rule="nonzero"/></clipPath><clipPath id="86c1aa339d"><path d="M 15.832031 55.335938 L 67.558594 70.441406 L 51.820312 124.324219 L 0.0976562 109.21875 Z M 15.832031 55.335938 " clip-rule="nonzero"/></clipPath><clipPath id="007b8739e2"><path d="M 67.769531 70.503906 L 16.046875 55.398438 L 0.308594 109.28125 L 52.035156 124.386719 Z M 67.769531 70.503906 " clip-rule="nonzero"/></clipPath><clipPath id="30e36d0c82"><path d="M 14 58 L 29 58 L 29 76 L 14 76 Z M 14 58 " clip-rule="nonzero"/></clipPath><clipPath id="3525d4fa56"><path d="M 15.832031 55.335938 L 67.558594 70.441406 L 51.820312 124.324219 L 0.0976562 109.21875 Z M 15.832031 55.335938 " clip-rule="nonzero"/></clipPath><clipPath id="d3de5ff394"><path d="M 67.769531 70.503906 L 16.046875 55.398438 L 0.308594 109.28125 L 52.035156 124.386719 Z M 67.769531 70.503906 " clip-rule="nonzero"/></clipPath><clipPath id="cb830ee9a0"><path d="M 34 65 L 40 65 L 40 85 L 34 85 Z M 34 65 " clip-rule="nonzero"/></clipPath><clipPath id="3496ba8c68"><path d="M 15.832031 55.335938 L 67.558594 70.441406 L 51.820312 124.324219 L 0.0976562 109.21875 Z M 15.832031 55.335938 " clip-rule="nonzero"/></clipPath><clipPath id="60f373d776"><path d="M 67.769531 70.503906 L 16.046875 55.398438 L 0.308594 109.28125 L 52.035156 124.386719 Z M 67.769531 70.503906 " clip-rule="nonzero"/></clipPath><clipPath id="e8bf77490b"><path d="M 14 74 L 36 74 L 36 85 L 14 85 Z M 14 74 " clip-rule="nonzero"/></clipPath><clipPath id="72ec314af7"><path d="M 15.832031 55.335938 L 67.558594 70.441406 L 51.820312 124.324219 L 0.0976562 109.21875 Z M 15.832031 55.335938 " clip-rule="nonzero"/></clipPath><clipPath id="c88fe8c4dc"><path d="M 67.769531 70.503906 L 16.046875 55.398438 L 0.308594 109.28125 L 52.035156 124.386719 Z M 67.769531 70.503906 " clip-rule="nonzero"/></clipPath><clipPath id="87c6c5e5eb"><path d="M 40 74 L 49 74 L 49 94 L 40 94 Z M 40 74 " clip-rule="nonzero"/></clipPath><clipPath id="0a402f8706"><path d="M 15.832031 55.335938 L 67.558594 70.441406 L 51.820312 124.324219 L 0.0976562 109.21875 Z M 15.832031 55.335938 " clip-rule="nonzero"/></clipPath><clipPath id="6743b0ae8c"><path d="M 67.769531 70.503906 L 16.046875 55.398438 L 0.308594 109.28125 L 52.035156 124.386719 Z M 67.769531 70.503906 " clip-rule="nonzero"/></clipPath><clipPath id="19c70aed36"><path d="M 18 84 L 41 84 L 41 94 L 18 94 Z M 18 84 " clip-rule="nonzero"/></clipPath><clipPath id="6506c3784f"><path d="M 15.832031 55.335938 L 67.558594 70.441406 L 51.820312 124.324219 L 0.0976562 109.21875 Z M 15.832031 55.335938 " clip-rule="nonzero"/></clipPath><clipPath id="e54d817b87"><path d="M 67.769531 70.503906 L 16.046875 55.398438 L 0.308594 109.28125 L 52.035156 124.386719 Z M 67.769531 70.503906 " clip-rule="nonzero"/></clipPath><clipPath id="5cf25f6ed5"><path d="M 44 84 L 56 84 L 56 102 L 44 102 Z M 44 84 " clip-rule="nonzero"/></clipPath><clipPath id="b59fc8abcb"><path d="M 15.832031 55.335938 L 67.558594 70.441406 L 51.820312 124.324219 L 0.0976562 109.21875 Z M 15.832031 55.335938 " clip-rule="nonzero"/></clipPath><clipPath id="c3954bb5ae"><path d="M 67.769531 70.503906 L 16.046875 55.398438 L 0.308594 109.28125 L 52.035156 124.386719 Z M 67.769531 70.503906 " clip-rule="nonzero"/></clipPath><clipPath id="428f22d889"><path d="M 22 93 L 45 93 L 45 102 L 22 102 Z M 22 93 " clip-rule="nonzero"/></clipPath><clipPath id="5b2a4fbb80"><path d="M 15.832031 55.335938 L 67.558594 70.441406 L 51.820312 124.324219 L 0.0976562 109.21875 Z M 15.832031 55.335938 " clip-rule="nonzero"/></clipPath><clipPath id="0246ea14ff"><path d="M 67.769531 70.503906 L 16.046875 55.398438 L 0.308594 109.28125 L 52.035156 124.386719 Z M 67.769531 70.503906 " clip-rule="nonzero"/></clipPath><clipPath id="27ef4b5090"><path d="M 47 93 L 61 93 L 61 113 L 47 113 Z M 47 93 " clip-rule="nonzero"/></clipPath><clipPath id="0e9e070e6f"><path d="M 15.832031 55.335938 L 67.558594 70.441406 L 51.820312 124.324219 L 0.0976562 109.21875 Z M 15.832031 55.335938 " clip-rule="nonzero"/></clipPath><clipPath id="ebff575a63"><path d="M 67.769531 70.503906 L 16.046875 55.398438 L 0.308594 109.28125 L 52.035156 124.386719 Z M 67.769531 70.503906 " clip-rule="nonzero"/></clipPath><clipPath id="bb73b0b163"><path d="M 24 100 L 48 100 L 48 112 L 24 112 Z M 24 100 " clip-rule="nonzero"/></clipPath><clipPath id="7720552009"><path d="M 15.832031 55.335938 L 67.558594 70.441406 L 51.820312 124.324219 L 0.0976562 109.21875 Z M 15.832031 55.335938 " clip-rule="nonzero"/></clipPath><clipPath id="ca732d322d"><path d="M 67.769531 70.503906 L 16.046875 55.398438 L 0.308594 109.28125 L 52.035156 124.386719 Z M 67.769531 70.503906 " clip-rule="nonzero"/></clipPath><clipPath id="0b493c653f"><path d="M 31 192.921875 L 42 192.921875 L 42 212 L 31 212 Z M 31 192.921875 " clip-rule="nonzero"/></clipPath><clipPath id="7796eb8cb8"><path d="M 41 214 L 59.992188 214 L 59.992188 227 L 41 227 Z M 41 214 " clip-rule="nonzero"/></clipPath><clipPath id="6c7db86c20"><path d="M 36 217 L 47 217 L 47 237.828125 L 36 237.828125 Z M 36 217 " clip-rule="nonzero"/></clipPath><clipPath id="930810cc04"><path d="M 112 307 L 153 307 L 153 342.144531 L 112 342.144531 Z M 112 307 " clip-rule="nonzero"/></clipPath><clipPath id="5c976f8e24"><path d="M 74 59 L 168.246094 59 L 168.246094 151 L 74 151 Z M 74 59 " clip-rule="nonzero"/></clipPath><clipPath id="de7f5152b2"><path d="M 38.015625 111 L 125 111 L 125 144 L 38.015625 144 Z M 38.015625 111 " clip-rule="nonzero"/></clipPath><clipPath id="85db6499aa"><path d="M 38.015625 111 L 126 111 L 126 144 L 38.015625 144 Z M 38.015625 111 " clip-rule="nonzero"/></clipPath><clipPath id="bc9dbaefa2"><path d="M 101 0.109375 L 152 0.109375 L 152 42 L 101 42 Z M 101 0.109375 " clip-rule="nonzero"/></clipPath><clipPath id="13eb22b658"><path d="M 101 0.109375 L 152 0.109375 L 152 43 L 101 43 Z M 101 0.109375 " clip-rule="nonzero"/></clipPath></defs><g clip-path="url(#fc16ef6b0d)"><g clip-path="url(#b18ee6a515)"><g clip-path="url(#5b342aed0d)"><path stroke-linecap="butt" transform="matrix(0.213752, -0.0364713, 0.0364713, 0.213752, 153.727639, 209.19018)" fill="none" stroke-linejoin="miter" d="M 14.298905 332.376117 C 56.290743 224.648173 136.995959 130.798977 242.006863 67.686542 " stroke="#4d704f" stroke-width="2" stroke-opacity="1" stroke-miterlimit="10"/></g></g></g><g clip-path="url(#a71cd3b785)"><g clip-path="url(#0acb3b1a0a)"><g clip-path="url(#0ba41a08de)"><path fill="#0e947a" d="M 204.335938 217.914062 C 205.449219 214.511719 207.050781 211.359375 209.140625 208.453125 C 210.523438 206.492188 222.570312 193.3125 225.230469 198.640625 C 226.058594 200.296875 224.117188 202.113281 223.234375 203.398438 C 221.914062 205.332031 219.945312 206.792969 218.046875 208.320312 C 213.6875 211.820312 209.117188 215.019531 204.335938 217.914062 Z M 204.335938 217.914062 " fill-opacity="1" fill-rule="nonzero"/></g></g></g><g clip-path="url(#66ff233015)"><g clip-path="url(#ff62a10756)"><g clip-path="url(#e9f7917988)"><path fill="#0e947a" d="M 194.09375 228.585938 C 191.980469 224.230469 191.070312 219.484375 190.839844 214.789062 C 190.761719 213.132812 190.71875 202.976562 193.960938 203.179688 C 195.550781 203.277344 195.972656 207.03125 196.078125 207.921875 C 196.414062 210.6875 196.386719 213.457031 196.363281 216.230469 C 196.328125 220.273438 196.179688 224.640625 194.09375 228.585938 Z M 194.09375 228.585938 " fill-opacity="1" fill-rule="nonzero"/></g></g></g><g clip-path="url(#f662cc5f80)"><g clip-path="url(#d7c06de972)"><g clip-path="url(#ca885aebb4)"><path fill="#0e947a" d="M 194.0625 228.996094 C 196.15625 225.058594 221.664062 214.683594 223.152344 219.851562 C 223.851562 222.277344 214.105469 224.519531 212.550781 224.980469 C 209.34375 225.933594 206.0625 226.480469 202.761719 227.128906 C 200.15625 227.652344 197.316406 228.53125 194.0625 228.996094 Z M 194.0625 228.996094 " fill-opacity="1" fill-rule="nonzero"/></g></g></g><g clip-path="url(#6d7d113c4f)"><g clip-path="url(#3772d66e02)"><g clip-path="url(#619c58045e)"><path fill="#0e947a" d="M 185.589844 239.933594 C 181.671875 236.316406 179.59375 230.035156 178.570312 225.292969 C 178.199219 223.550781 176.351562 212.558594 181.738281 213.839844 C 183.691406 214.300781 184.277344 217.925781 184.503906 219.363281 C 184.988281 222.457031 185.34375 225.585938 185.691406 228.691406 C 186.132812 232.570312 185.363281 237.484375 185.589844 239.933594 Z M 185.589844 239.933594 " fill-opacity="1" fill-rule="nonzero"/></g></g></g><g clip-path="url(#6c42b2bfc7)"><g clip-path="url(#30358a11c3)"><g clip-path="url(#6b1d67f8be)"><path fill="#0e947a" d="M 185.679688 239.925781 C 189.875 236.328125 196.011719 234.277344 201.445312 232.65625 C 205.386719 231.480469 209.226562 230.644531 213.441406 230.773438 C 214.894531 230.820312 217.472656 230.886719 216.621094 232.585938 C 215.574219 234.667969 211.824219 235.476562 209.644531 236.230469 C 203.660156 238.296875 197.503906 239.488281 191.179688 239.804688 C 189.671875 239.890625 186.128906 240.503906 185.679688 239.925781 Z M 185.679688 239.925781 " fill-opacity="1" fill-rule="nonzero"/></g></g></g><g clip-path="url(#a0952a8ee7)"><g clip-path="url(#2f08aaa370)"><g clip-path="url(#09d43bee45)"><path fill="#0e947a" d="M 179.210938 250.871094 C 179.082031 250.347656 177.328125 249.519531 176.878906 249.132812 C 175.167969 247.679688 173.988281 245.824219 172.917969 243.976562 C 171.847656 242.128906 163.113281 227.015625 167.820312 226.179688 C 169.449219 225.902344 171.1875 229.046875 171.8125 229.992188 C 173.59375 232.683594 174.652344 235.679688 175.671875 238.65625 C 176.371094 240.691406 176.992188 242.75 177.527344 244.828125 C 178.042969 246.859375 178.707031 248.835938 179.210938 250.871094 Z M 179.210938 250.871094 " fill-opacity="1" fill-rule="nonzero"/></g></g></g><g clip-path="url(#03344d189f)"><g clip-path="url(#f087fc78b0)"><g clip-path="url(#d5af1bccb6)"><path fill="#0e947a" d="M 179.210938 250.898438 C 181.109375 247.449219 186.078125 245.84375 189.914062 244.707031 C 193.480469 243.652344 197.125 243.039062 200.839844 242.863281 C 202.570312 242.785156 204.300781 242.796875 206.03125 242.90625 C 207.003906 242.960938 209.285156 242.972656 209.804688 243.929688 C 211.871094 247.757812 190.878906 250.164062 189.0625 250.375 C 185.828125 250.753906 182.484375 251.246094 179.210938 250.898438 " fill-opacity="1" fill-rule="nonzero"/></g></g></g><g clip-path="url(#972f3338e1)"><g clip-path="url(#011876b780)"><g clip-path="url(#f7d3ee6856)"><path fill="#0e947a" d="M 173.3125 264.015625 C 167.488281 260.191406 162.921875 254.050781 160.792969 247.964844 C 159.707031 244.835938 158.921875 241.226562 159.304688 237.949219 C 159.445312 236.765625 159.238281 236.625 160.210938 236.804688 C 161.933594 237.128906 164.386719 240.054688 165.257812 241.257812 C 167.160156 243.882812 168.367188 246.949219 169.476562 249.878906 C 171.214844 254.472656 173.054688 259.234375 173.3125 264.015625 Z M 173.3125 264.015625 " fill-opacity="1" fill-rule="nonzero"/></g></g></g><g clip-path="url(#3d8faa2d08)"><g clip-path="url(#3506971df6)"><g clip-path="url(#19356abd9b)"><path fill="#0e947a" d="M 174.394531 263.132812 C 180.320312 258.136719 188.25 254.984375 196.117188 253.046875 C 197.859375 252.621094 205.285156 250.855469 205.515625 253.886719 C 205.761719 257.179688 199.363281 258.359375 196.917969 258.953125 C 192.960938 259.921875 189.0625 261.023438 185.125 262.015625 C 182.023438 262.796875 176.644531 264.699219 173.328125 263.875 C 173.894531 263.601562 174.503906 263.355469 174.394531 263.132812 Z M 174.394531 263.132812 " fill-opacity="1" fill-rule="nonzero"/></g></g></g><g clip-path="url(#3725bf360b)"><g clip-path="url(#86c1aa339d)"><g clip-path="url(#007b8739e2)"><path stroke-linecap="butt" transform="matrix(-0.154169, -0.045025, -0.045025, 0.154169, 66.737469, 73.357572)" fill="none" stroke-linejoin="miter" d="M 14.281718 332.378936 C 56.284987 224.647717 137.001183 130.807021 242.009512 67.7007 " stroke="#4d704f" stroke-width="2" stroke-opacity="1" stroke-miterlimit="10"/></g></g></g><g clip-path="url(#30e36d0c82)"><g clip-path="url(#3525d4fa56)"><g clip-path="url(#d3de5ff394)"><path fill="#0da487" d="M 28.761719 75.46875 C 28.230469 72.871094 27.320312 70.414062 26.027344 68.101562 C 25.175781 66.539062 17.433594 55.816406 15.023438 59.511719 C 14.277344 60.660156 15.550781 62.160156 16.089844 63.179688 C 16.898438 64.714844 18.21875 65.957031 19.488281 67.246094 C 22.398438 70.191406 25.488281 72.933594 28.761719 75.46875 Z M 28.761719 75.46875 " fill-opacity="1" fill-rule="nonzero"/></g></g></g><g clip-path="url(#cb830ee9a0)"><g clip-path="url(#3496ba8c68)"><g clip-path="url(#60f373d776)"><path fill="#0da487" d="M 35.386719 84.195312 C 37.3125 81.167969 38.386719 77.753906 38.953125 74.316406 C 39.15625 73.105469 40.046875 65.636719 37.644531 65.511719 C 36.46875 65.449219 35.839844 68.175781 35.683594 68.820312 C 35.203125 70.828125 34.988281 72.867188 34.769531 74.910156 C 34.449219 77.886719 34.1875 81.113281 35.386719 84.195312 Z M 35.386719 84.195312 " fill-opacity="1" fill-rule="nonzero"/></g></g></g><g clip-path="url(#e8bf77490b)"><g clip-path="url(#72ec314af7)"><g clip-path="url(#c88fe8c4dc)"><path fill="#0da487" d="M 35.375 84.496094 C 34.167969 81.421875 16.285156 71.617188 14.75 75.292969 C 14.027344 77.019531 21.011719 79.496094 22.113281 79.96875 C 24.390625 80.945312 26.761719 81.625 29.132812 82.382812 C 31.003906 82.988281 33.019531 83.878906 35.375 84.496094 Z M 35.375 84.496094 " fill-opacity="1" fill-rule="nonzero"/></g></g></g><g clip-path="url(#87c6c5e5eb)"><g clip-path="url(#0a402f8706)"><g clip-path="url(#6743b0ae8c)"><path fill="#0da487" d="M 40.679688 93.265625 C 43.867188 90.9375 45.929688 86.496094 47.085938 83.089844 C 47.511719 81.839844 49.804688 73.910156 45.730469 74.394531 C 44.257812 74.570312 43.515625 77.183594 43.226562 78.222656 C 42.609375 80.457031 42.078125 82.730469 41.558594 84.984375 C 40.90625 87.800781 41.054688 91.484375 40.679688 93.265625 Z M 40.679688 93.265625 " fill-opacity="1" fill-rule="nonzero"/></g></g></g><g clip-path="url(#19c70aed36)"><g clip-path="url(#6506c3784f)"><g clip-path="url(#e54d817b87)"><path fill="#0da487" d="M 40.613281 93.25 C 37.832031 90.246094 33.488281 88.21875 29.632812 86.5625 C 26.828125 85.363281 24.078125 84.417969 20.964844 84.15625 C 19.894531 84.066406 17.988281 83.898438 18.46875 85.21875 C 19.0625 86.839844 21.753906 87.753906 23.292969 88.496094 C 27.523438 90.523438 31.949219 91.921875 36.574219 92.695312 C 37.679688 92.886719 40.234375 93.640625 40.613281 93.25 Z M 40.613281 93.25 " fill-opacity="1" fill-rule="nonzero"/></g></g></g><g clip-path="url(#5cf25f6ed5)"><g clip-path="url(#b59fc8abcb)"><g clip-path="url(#c3954bb5ae)"><path fill="#0da487" d="M 44.441406 101.855469 C 44.578125 101.484375 45.941406 101.023438 46.304688 100.777344 C 47.683594 99.851562 48.710938 98.585938 49.65625 97.320312 C 50.601562 96.050781 58.316406 85.675781 54.921875 84.660156 C 53.746094 84.316406 52.203125 86.480469 51.660156 87.125 C 50.121094 88.953125 49.085938 91.066406 48.082031 93.167969 C 47.394531 94.609375 46.765625 96.070312 46.195312 97.554688 C 45.640625 99.003906 44.984375 100.402344 44.441406 101.855469 Z M 44.441406 101.855469 " fill-opacity="1" fill-rule="nonzero"/></g></g></g><g clip-path="url(#428f22d889)"><g clip-path="url(#5b2a4fbb80)"><g clip-path="url(#0246ea14ff)"><path fill="#0da487" d="M 44.4375 101.875 C 43.335938 99.179688 39.816406 97.574219 37.089844 96.410156 C 34.554688 95.332031 31.929688 94.570312 29.207031 94.125 C 27.941406 93.917969 26.667969 93.78125 25.382812 93.714844 C 24.664062 93.671875 22.984375 93.484375 22.519531 94.148438 C 20.675781 96.785156 35.914062 100.34375 37.234375 100.652344 C 39.582031 101.207031 42 101.851562 44.4375 101.875 " fill-opacity="1" fill-rule="nonzero"/></g></g></g><g clip-path="url(#27ef4b5090)"><g clip-path="url(#0e9e070e6f)"><g clip-path="url(#ebff575a63)"><path fill="#0da487" d="M 47.664062 112.027344 C 52.273438 109.710938 56.15625 105.582031 58.238281 101.285156 C 59.304688 99.078125 60.1875 96.484375 60.1875 94.042969 C 60.183594 93.160156 60.347656 93.074219 59.617188 93.125 C 58.324219 93.214844 56.269531 95.160156 55.523438 95.96875 C 53.902344 97.742188 52.753906 99.890625 51.6875 101.957031 C 50.015625 105.1875 48.257812 108.535156 47.664062 112.027344 Z M 47.664062 112.027344 " fill-opacity="1" fill-rule="nonzero"/></g></g></g><g clip-path="url(#bb73b0b163)"><g clip-path="url(#7720552009)"><g clip-path="url(#ca732d322d)"><path fill="#0da487" d="M 46.941406 111.289062 C 43.003906 107.105469 37.441406 104.113281 31.816406 102.019531 C 30.570312 101.554688 25.253906 99.625 24.832031 101.835938 C 24.367188 104.238281 28.976562 105.652344 30.722656 106.296875 C 33.554688 107.347656 36.328125 108.488281 39.140625 109.550781 C 41.355469 110.390625 45.152344 112.246094 47.660156 111.925781 C 47.269531 111.675781 46.84375 111.441406 46.941406 111.289062 Z M 46.941406 111.289062 " fill-opacity="1" fill-rule="nonzero"/></g></g></g><g clip-path="url(#0b493c653f)"><path fill="#0da487" d="M 36.292969 211.40625 C 34.652344 209.246094 33.527344 206.730469 32.75 204.148438 C 31.972656 201.5625 31.203125 198.585938 32.15625 195.949219 C 32.742188 194.332031 34.234375 192.941406 35.957031 192.941406 C 37.125 192.941406 38.238281 193.585938 39.019531 194.464844 C 40.785156 196.472656 41.386719 199.714844 41.542969 202.304688 C 41.746094 205.367188 41.253906 208.3125 40.070312 211.144531 " fill-opacity="1" fill-rule="nonzero"/></g><path fill="#0da487" d="M 40.441406 211.496094 C 42.003906 209.039062 43.730469 206.648438 45.925781 204.734375 C 48.121094 202.816406 50.820312 201.386719 53.726562 201.117188 C 55.46875 200.957031 57.496094 201.375 58.359375 202.898438 C 59.34375 204.636719 58.289062 206.875 56.84375 208.257812 C 53.265625 211.679688 47.042969 213.339844 42.195312 214.054688 " fill-opacity="1" fill-rule="nonzero"/><g clip-path="url(#7796eb8cb8)"><path fill="#0da487" d="M 42.492188 214.324219 C 45.402344 214.324219 48.347656 214.488281 51.144531 215.304688 C 53.941406 216.117188 56.597656 217.628906 58.386719 219.929688 C 59.460938 221.3125 60.199219 223.246094 59.375 224.796875 C 58.441406 226.558594 55.992188 226.875 54.046875 226.402344 C 49.238281 225.226562 44.488281 220.878906 41.273438 217.179688 " fill-opacity="1" fill-rule="nonzero"/></g><g clip-path="url(#6c7db86c20)"><path fill="#0da487" d="M 41.183594 217.824219 C 42.863281 220.203125 44.421875 222.707031 45.367188 225.460938 C 46.3125 228.21875 46.609375 231.265625 45.761719 234.050781 C 45.25 235.726562 44.09375 237.441406 42.355469 237.664062 C 40.367188 237.917969 38.699219 236.097656 37.96875 234.230469 C 36.160156 229.625 36.976562 223.238281 38.152344 218.480469 " fill-opacity="1" fill-rule="nonzero"/></g><path fill="#0da487" d="M 37.296875 218.269531 C 36.601562 221.101562 35.734375 223.917969 34.273438 226.4375 C 32.8125 228.957031 30.707031 231.179688 28.046875 232.367188 C 26.449219 233.082031 24.394531 233.332031 23.085938 232.167969 C 21.59375 230.832031 21.875 228.378906 22.800781 226.605469 C 25.09375 222.214844 30.449219 218.648438 34.8125 216.414062 " fill-opacity="1" fill-rule="nonzero"/><path fill="#0da487" d="M 34.601562 216.054688 C 33.113281 216.78125 31.425781 216.953125 29.777344 217.097656 C 28.324219 217.21875 26.859375 217.332031 25.40625 217.191406 C 24.039062 217.058594 22.726562 216.714844 21.464844 216.160156 C 20.207031 215.605469 19.066406 214.867188 18.042969 213.949219 C 17.523438 213.476562 17.03125 212.957031 16.738281 212.320312 C 15.828125 210.351562 17.179688 207.898438 19.136719 206.96875 C 21.097656 206.035156 23.414062 206.285156 25.511719 206.839844 C 29.222656 207.832031 32.507812 209.617188 35.355469 212.195312 " fill-opacity="1" fill-rule="nonzero"/><path fill="#fabf7a" d="M 42.1875 214.734375 C 42.1875 215.226562 42.09375 215.695312 41.90625 216.148438 C 41.71875 216.601562 41.453125 217 41.105469 217.34375 C 40.761719 217.691406 40.363281 217.957031 39.910156 218.144531 C 39.457031 218.332031 38.988281 218.425781 38.5 218.425781 C 38.007812 218.425781 37.539062 218.332031 37.085938 218.144531 C 36.632812 217.957031 36.234375 217.691406 35.890625 217.34375 C 35.542969 217 35.277344 216.601562 35.089844 216.148438 C 34.902344 215.695312 34.808594 215.226562 34.808594 214.734375 C 34.808594 214.246094 34.902344 213.777344 35.089844 213.324219 C 35.277344 212.871094 35.542969 212.472656 35.890625 212.128906 C 36.234375 211.78125 36.632812 211.515625 37.085938 211.328125 C 37.539062 211.140625 38.007812 211.046875 38.5 211.046875 C 38.988281 211.046875 39.457031 211.140625 39.910156 211.328125 C 40.363281 211.515625 40.761719 211.78125 41.105469 212.128906 C 41.453125 212.472656 41.71875 212.871094 41.90625 213.324219 C 42.09375 213.777344 42.1875 214.246094 42.1875 214.734375 Z M 42.1875 214.734375 " fill-opacity="1" fill-rule="nonzero"/><path fill="#545454" d="M 145.191406 23.617188 C 145.472656 26.0625 145.277344 28.695312 144.980469 31.132812 C 144.871094 32.007812 144.78125 32.917969 144.5625 33.777344 C 144.488281 34.058594 144.390625 34.332031 144.285156 34.605469 C 144.234375 34.738281 144.207031 35.101562 144.113281 34.996094 C 143.269531 34.023438 143.253906 32.425781 143.113281 31.222656 C 142.917969 29.550781 142.316406 27.972656 141.917969 26.351562 C 141.5625 24.921875 141.605469 23.09375 145.191406 23.617188 Z M 145.191406 23.617188 " fill-opacity="1" fill-rule="evenodd"/><path fill="#000000" d="M 144.164062 35.328125 C 144.058594 35.328125 143.941406 35.277344 143.875 35.203125 C 143.089844 34.300781 142.964844 32.984375 142.855469 31.820312 C 142.835938 31.628906 142.816406 31.4375 142.796875 31.257812 C 142.667969 30.167969 142.355469 29.085938 142.054688 28.042969 C 141.898438 27.503906 141.742188 26.96875 141.609375 26.425781 C 141.328125 25.292969 141.433594 24.476562 141.933594 23.921875 C 142.53125 23.269531 143.617188 23.066406 145.238281 23.300781 C 145.382812 23.320312 145.496094 23.433594 145.511719 23.578125 C 145.820312 26.296875 145.535156 29.210938 145.292969 31.171875 L 145.238281 31.613281 C 145.152344 32.355469 145.058594 33.121094 144.871094 33.855469 C 144.792969 34.148438 144.691406 34.4375 144.582031 34.71875 C 144.574219 34.746094 144.566406 34.789062 144.554688 34.835938 C 144.511719 35.035156 144.464844 35.261719 144.230469 35.320312 C 144.210938 35.324219 144.1875 35.328125 144.164062 35.328125 Z M 144.046875 23.84375 C 143.261719 23.84375 142.710938 24.011719 142.40625 24.351562 C 142.058594 24.734375 142 25.363281 142.226562 26.273438 C 142.359375 26.808594 142.511719 27.335938 142.664062 27.867188 C 142.972656 28.9375 143.296875 30.042969 143.429688 31.183594 C 143.449219 31.371094 143.46875 31.5625 143.488281 31.761719 C 143.570312 32.632812 143.664062 33.601562 144.050781 34.332031 C 144.125 34.121094 144.195312 33.910156 144.253906 33.695312 C 144.433594 33.003906 144.523438 32.257812 144.605469 31.539062 L 144.664062 31.09375 C 144.890625 29.226562 145.160156 26.476562 144.902344 23.898438 C 144.59375 23.863281 144.304688 23.84375 144.046875 23.84375 Z M 144.046875 23.84375 " fill-opacity="1" fill-rule="nonzero"/><path fill="#545454" d="M 109.851562 306.339844 L 107.058594 337.136719 C 103.371094 338.269531 98.277344 338.164062 93.207031 338.078125 L 91.773438 334.894531 L 87.683594 337.6875 C 87.683594 337.6875 68.609375 339.503906 64.75 337.410156 C 61.152344 335.457031 62.074219 328.804688 65.035156 325.976562 C 69.238281 321.957031 81.308594 323.152344 89.976562 313.304688 L 90.625 305.3125 L 109.855469 306.339844 Z M 109.851562 306.339844 " fill-opacity="1" fill-rule="evenodd"/><path fill="#000000" d="M 73.484375 338.738281 C 69.609375 338.738281 66.070312 338.484375 64.597656 337.6875 C 63.253906 336.957031 62.414062 335.59375 62.164062 333.742188 C 61.789062 330.929688 62.90625 327.570312 64.8125 325.746094 C 66.476562 324.152344 69.308594 323.359375 72.589844 322.4375 C 77.847656 320.960938 84.386719 319.125 89.667969 313.175781 L 90.308594 305.289062 C 90.320312 305.121094 90.457031 304.992188 90.625 304.992188 C 90.628906 304.992188 90.632812 304.992188 90.640625 304.996094 L 109.871094 306.023438 C 109.957031 306.027344 110.039062 306.066406 110.09375 306.128906 C 110.148438 306.195312 110.179688 306.28125 110.171875 306.367188 L 107.375 337.164062 C 107.363281 337.292969 107.277344 337.402344 107.152344 337.4375 C 103.46875 338.570312 98.363281 338.488281 93.429688 338.398438 L 93.203125 338.398438 C 93.078125 338.394531 92.96875 338.320312 92.917969 338.210938 L 91.640625 335.371094 L 87.863281 337.949219 C 87.816406 337.980469 87.765625 338 87.714844 338.003906 C 87.226562 338.050781 79.890625 338.738281 73.484375 338.738281 Z M 90.917969 305.644531 L 90.292969 313.332031 C 90.289062 313.398438 90.261719 313.464844 90.214844 313.515625 C 84.796875 319.667969 78.125 321.542969 72.761719 323.050781 C 69.5625 323.949219 66.804688 324.722656 65.253906 326.207031 C 63.480469 327.902344 62.449219 331.03125 62.796875 333.65625 C 62.949219 334.800781 63.4375 336.332031 64.902344 337.128906 C 68.511719 339.085938 86.210938 337.503906 87.570312 337.378906 L 91.59375 334.632812 C 91.671875 334.578125 91.765625 334.5625 91.863281 334.589844 C 91.949219 334.613281 92.023438 334.679688 92.066406 334.765625 L 93.441406 337.765625 C 98.222656 337.84375 103.1875 337.925781 106.761719 336.890625 L 109.507812 306.640625 Z M 90.917969 305.644531 " fill-opacity="1" fill-rule="nonzero"/><path fill="#545454" d="M 115.382812 307.828125 L 113.230469 336.574219 C 115.796875 339.066406 120.976562 341.175781 125.324219 341.632812 C 131.519531 342.28125 144.519531 341.585938 149.164062 340.21875 C 151.589844 339.503906 153.550781 335.144531 151.96875 333.175781 C 150.867188 331.800781 146.820312 330.636719 143.113281 328.441406 C 138.792969 325.882812 136.058594 322.613281 136.058594 322.613281 L 135.054688 312.585938 L 115.386719 307.828125 Z M 115.382812 307.828125 " fill-opacity="1" fill-rule="evenodd"/><g clip-path="url(#930810cc04)"><path fill="#000000" d="M 131.195312 342.199219 C 128.972656 342.199219 126.921875 342.121094 125.292969 341.953125 C 120.753906 341.476562 115.589844 339.308594 113.007812 336.804688 C 112.941406 336.738281 112.90625 336.644531 112.914062 336.554688 L 115.066406 307.804688 C 115.074219 307.714844 115.121094 307.625 115.199219 307.570312 C 115.273438 307.519531 115.371094 307.5 115.457031 307.519531 L 135.128906 312.28125 C 135.261719 312.3125 135.359375 312.421875 135.371094 312.558594 L 136.363281 322.480469 C 136.796875 322.976562 139.410156 325.875 143.273438 328.167969 C 144.871094 329.113281 146.535156 329.867188 148 330.53125 C 149.980469 331.429688 151.546875 332.140625 152.21875 332.976562 C 152.917969 333.847656 153.050781 335.199219 152.582031 336.6875 C 152.089844 338.253906 150.871094 340.046875 149.253906 340.519531 C 145.886719 341.515625 137.777344 342.199219 131.195312 342.199219 Z M 113.558594 336.449219 C 116.046875 338.785156 121.082031 340.871094 125.359375 341.316406 C 131.765625 341.984375 144.621094 341.226562 149.078125 339.914062 C 150.261719 339.5625 151.453125 338.160156 151.976562 336.5 C 152.378906 335.21875 152.285156 334.078125 151.722656 333.375 C 151.144531 332.660156 149.566406 331.941406 147.738281 331.113281 C 146.257812 330.441406 144.578125 329.679688 142.953125 328.714844 C 138.636719 326.15625 135.84375 322.851562 135.8125 322.816406 C 135.773438 322.765625 135.75 322.707031 135.742188 322.644531 L 134.761719 312.84375 L 115.671875 308.226562 Z M 113.558594 336.449219 " fill-opacity="1" fill-rule="nonzero"/></g><path fill="#004aad" d="M 92.789062 147.644531 L 79.320312 301.609375 C 89.203125 307.75 99.765625 310.5625 111.589844 307.125 C 121.949219 315.347656 134.140625 316.640625 148.003906 311.625 C 151.367188 261.964844 155.242188 213.03125 156.363281 163.515625 C 156.515625 156.746094 155.535156 150.007812 155.675781 143.234375 Z M 92.789062 147.644531 " fill-opacity="1" fill-rule="evenodd"/><path fill="#000000" d="M 132.59375 314.878906 C 124.832031 314.878906 117.785156 312.40625 111.519531 307.476562 C 100.757812 310.5625 90.164062 308.726562 79.152344 301.878906 C 79.050781 301.816406 78.992188 301.699219 79.003906 301.582031 L 92.46875 147.617188 C 92.484375 147.460938 92.609375 147.335938 92.765625 147.328125 L 155.652344 142.917969 C 155.742188 142.90625 155.828125 142.945312 155.894531 143.003906 C 155.960938 143.066406 155.996094 143.152344 155.996094 143.242188 C 155.925781 146.597656 156.132812 150.007812 156.335938 153.304688 C 156.546875 156.648438 156.757812 160.109375 156.679688 163.527344 C 155.746094 204.773438 152.839844 246.472656 150.035156 286.800781 C 149.457031 295.066406 148.882812 303.347656 148.320312 311.648438 C 148.3125 311.773438 148.230469 311.882812 148.109375 311.925781 C 142.671875 313.894531 137.488281 314.878906 132.59375 314.878906 Z M 111.589844 306.808594 C 111.660156 306.808594 111.730469 306.832031 111.789062 306.878906 C 121.796875 314.824219 133.875 316.34375 147.699219 311.394531 C 148.257812 303.164062 148.828125 294.953125 149.398438 286.753906 C 152.207031 246.433594 155.109375 204.742188 156.042969 163.511719 C 156.121094 160.121094 155.90625 156.671875 155.703125 153.339844 C 155.503906 150.144531 155.300781 146.84375 155.351562 143.578125 L 93.082031 147.941406 L 79.652344 301.441406 C 90.496094 308.136719 100.917969 309.898438 111.5 306.820312 C 111.527344 306.8125 111.558594 306.808594 111.589844 306.808594 Z M 111.589844 306.808594 " fill-opacity="1" fill-rule="nonzero"/><path fill="#f4a49a" d="M 113.730469 45.894531 C 113.722656 46.039062 113.742188 46.199219 113.757812 46.328125 C 113.910156 47.589844 114.320312 48.808594 114.511719 50.066406 C 114.8125 52.09375 114.890625 54.144531 115.039062 56.1875 C 115.121094 57.285156 115.363281 58.882812 114.667969 59.835938 C 114.308594 60.328125 113.628906 60.609375 113.097656 60.847656 C 111.699219 61.480469 110.136719 61.992188 108.660156 62.390625 C 109.398438 64.171875 110.550781 65.820312 111.527344 67.476562 C 114.332031 72.230469 117.535156 77.015625 122.9375 78.984375 C 124.410156 79.523438 126.007812 79.605469 127.5625 79.492188 C 131.589844 79.195312 136.492188 77.726562 138.816406 74.1875 C 140.75 71.238281 142.902344 66.601562 140.386719 63.367188 C 138.800781 61.324219 135.5 61.453125 134.160156 59.277344 C 133.492188 58.199219 133.8125 56.605469 133.628906 55.382812 C 132.039062 55.886719 130.335938 55.378906 128.800781 54.90625 C 125.15625 53.777344 121.628906 51.878906 118.976562 49.105469 C 117.871094 47.953125 116.867188 46.691406 115.664062 45.636719 C 115.324219 45.339844 114.152344 45.050781 113.851562 45.53125 C 113.765625 45.628906 113.730469 45.761719 113.726562 45.894531 Z M 113.730469 45.894531 " fill-opacity="1" fill-rule="evenodd"/><path fill="#000000" d="M 126.398438 79.851562 C 125.050781 79.851562 123.871094 79.664062 122.828125 79.28125 C 117.296875 77.261719 114.078125 72.421875 111.257812 67.636719 C 111 67.203125 110.730469 66.769531 110.460938 66.332031 C 109.703125 65.109375 108.921875 63.847656 108.367188 62.511719 C 108.332031 62.425781 108.335938 62.328125 108.375 62.246094 C 108.414062 62.164062 108.488281 62.105469 108.578125 62.078125 C 110.257812 61.628906 111.734375 61.113281 112.96875 60.554688 L 113.066406 60.511719 C 113.5625 60.292969 114.121094 60.039062 114.410156 59.648438 C 114.953125 58.898438 114.84375 57.628906 114.753906 56.609375 L 114.722656 56.210938 C 114.6875 55.730469 114.65625 55.25 114.625 54.769531 C 114.527344 53.238281 114.425781 51.652344 114.195312 50.109375 C 114.113281 49.546875 113.976562 48.972656 113.847656 48.421875 C 113.6875 47.753906 113.527344 47.066406 113.441406 46.367188 C 113.425781 46.214844 113.402344 46.042969 113.414062 45.878906 C 113.421875 45.65625 113.488281 45.46875 113.605469 45.324219 C 113.675781 45.210938 113.867188 45.023438 114.25 44.96875 C 114.820312 44.886719 115.574219 45.125 115.875 45.394531 C 116.6875 46.105469 117.417969 46.914062 118.117188 47.695312 C 118.476562 48.09375 118.835938 48.496094 119.207031 48.882812 C 121.625 51.410156 124.976562 53.386719 128.898438 54.597656 C 130.285156 55.027344 132.011719 55.554688 133.535156 55.078125 C 133.625 55.046875 133.722656 55.0625 133.800781 55.113281 C 133.878906 55.160156 133.933594 55.242188 133.945312 55.335938 C 134.011719 55.769531 134.015625 56.246094 134.019531 56.710938 C 134.027344 57.574219 134.035156 58.46875 134.433594 59.109375 C 135.074219 60.152344 136.226562 60.628906 137.445312 61.136719 C 138.617188 61.621094 139.824219 62.121094 140.640625 63.167969 C 143.371094 66.679688 140.835938 71.6875 139.082031 74.359375 C 136.144531 78.84375 129.539062 79.660156 127.585938 79.804688 C 127.175781 79.835938 126.78125 79.851562 126.398438 79.851562 Z M 109.097656 62.597656 C 109.621094 63.769531 110.320312 64.902344 111.003906 66 C 111.273438 66.4375 111.546875 66.875 111.804688 67.316406 C 114.566406 72 117.710938 76.738281 123.046875 78.683594 C 124.300781 79.144531 125.773438 79.304688 127.539062 79.175781 C 129.417969 79.035156 135.769531 78.253906 138.550781 74.011719 C 140.210938 71.484375 142.625 66.761719 140.136719 63.5625 C 139.425781 62.648438 138.34375 62.199219 137.199219 61.726562 C 135.941406 61.203125 134.640625 60.664062 133.886719 59.445312 C 133.402344 58.65625 133.390625 57.671875 133.382812 56.71875 C 133.378906 56.394531 133.378906 56.078125 133.355469 55.785156 C 131.746094 56.148438 130.074219 55.632812 128.710938 55.207031 C 124.6875 53.964844 121.242188 51.929688 118.746094 49.324219 C 118.371094 48.933594 118.007812 48.527344 117.644531 48.125 C 116.953125 47.355469 116.238281 46.5625 115.453125 45.875 C 115.285156 45.730469 114.710938 45.550781 114.339844 45.601562 C 114.226562 45.617188 114.148438 45.652344 114.117188 45.699219 C 114.066406 45.765625 114.046875 45.824219 114.042969 45.90625 C 114.039062 46.035156 114.058594 46.167969 114.074219 46.277344 C 114.152344 46.953125 114.3125 47.625 114.464844 48.277344 C 114.597656 48.84375 114.734375 49.429688 114.824219 50.019531 C 115.058594 51.585938 115.160156 53.183594 115.257812 54.730469 C 115.289062 55.210938 115.320312 55.6875 115.355469 56.167969 L 115.386719 56.558594 C 115.484375 57.683594 115.609375 59.082031 114.921875 60.023438 C 114.535156 60.554688 113.863281 60.855469 113.324219 61.097656 L 113.226562 61.140625 C 112.054688 61.671875 110.664062 62.164062 109.09375 62.601562 Z M 109.097656 62.597656 " fill-opacity="1" fill-rule="nonzero"/><path fill="#545454" d="M 112.035156 60.269531 C 104.46875 72.183594 135.085938 70.726562 138.539062 60.605469 C 138.539062 60.605469 142.855469 61.25 148.003906 62.058594 C 154.171875 63.027344 161.480469 64.488281 163.304688 68.863281 C 165.621094 74.398438 167.59375 86.148438 167.855469 97.863281 C 168.117188 109.363281 166.695312 120.832031 166.027344 126.410156 C 165.601562 129.949219 156.03125 135.941406 156.03125 135.941406 C 156.335938 137.21875 156.449219 139.085938 156.566406 140.382812 C 156.710938 141.949219 156.652344 143.53125 156.550781 145.117188 C 133.996094 149.515625 94.917969 151.707031 91.9375 148.152344 C 91.304688 146.894531 91.101562 146.054688 90.976562 145 C 90.105469 137.640625 94.152344 131.871094 95.914062 125.804688 L 74.839844 114.445312 L 74.515625 107.285156 L 78.148438 102.730469 C 78.148438 102.730469 78.105469 87.660156 80.167969 77.6875 C 81.136719 73 82.746094 71.464844 84.714844 69.488281 C 85.796875 68.402344 87.839844 66.855469 90.265625 65.855469 C 98.582031 62.429688 112.035156 60.269531 112.035156 60.269531 Z M 112.035156 60.269531 " fill-opacity="1" fill-rule="evenodd"/><g clip-path="url(#5c976f8e24)"><path fill="#000000" d="M 106.015625 150.257812 C 98.335938 150.257812 92.804688 149.683594 91.691406 148.355469 C 90.988281 146.976562 90.785156 146.101562 90.660156 145.035156 C 90.042969 139.816406 91.851562 135.40625 93.601562 131.144531 C 94.328125 129.367188 95.015625 127.6875 95.535156 125.960938 L 74.691406 114.722656 C 74.59375 114.671875 74.527344 114.570312 74.523438 114.457031 L 74.195312 107.300781 C 74.191406 107.222656 74.21875 107.148438 74.265625 107.085938 L 77.828125 102.621094 C 77.832031 101.214844 77.90625 87.058594 79.855469 77.625 C 80.824219 72.9375 82.464844 71.289062 84.371094 69.382812 L 84.488281 69.261719 C 85.609375 68.136719 87.683594 66.574219 90.144531 65.5625 C 98.402344 62.160156 111.851562 59.976562 111.984375 59.953125 C 112.113281 59.933594 112.234375 59.988281 112.300781 60.09375 C 112.371094 60.199219 112.371094 60.332031 112.304688 60.4375 C 111.042969 62.429688 110.816406 64.101562 111.640625 65.414062 C 113.113281 67.761719 118.082031 68.871094 123.996094 68.1875 C 130.019531 67.488281 136.761719 64.839844 138.242188 60.503906 C 138.289062 60.359375 138.410156 60.269531 138.589844 60.289062 C 138.589844 60.289062 142.90625 60.933594 148.054688 61.742188 C 154.589844 62.769531 161.722656 64.242188 163.601562 68.742188 C 166.039062 74.574219 167.917969 86.546875 168.175781 97.855469 C 168.429688 109.082031 167.109375 120.089844 166.398438 126.007812 L 166.34375 126.449219 C 165.933594 129.851562 157.792969 135.195312 156.394531 136.089844 C 156.613281 137.132812 156.726562 138.492188 156.820312 139.597656 L 156.886719 140.355469 C 157.035156 142.023438 156.960938 143.710938 156.867188 145.140625 C 156.859375 145.285156 156.753906 145.40625 156.609375 145.433594 C 142.078125 148.265625 120.320312 150.257812 106.015625 150.257812 Z M 75.148438 114.25 L 96.0625 125.523438 C 96.195312 125.59375 96.261719 125.75 96.21875 125.890625 C 95.683594 127.738281 94.921875 129.589844 94.1875 131.382812 C 92.46875 135.570312 90.691406 139.902344 91.292969 144.960938 C 91.410156 145.957031 91.601562 146.773438 92.21875 148.007812 C 94.894531 151.183594 133.101562 149.324219 156.246094 144.851562 C 156.332031 143.503906 156.390625 141.941406 156.25 140.410156 L 156.183594 139.648438 C 156.085938 138.484375 155.96875 137.035156 155.726562 136.015625 C 155.691406 135.882812 155.75 135.742188 155.863281 135.671875 C 155.957031 135.613281 165.308594 129.71875 165.710938 126.371094 L 165.765625 125.929688 C 166.472656 120.03125 167.792969 109.050781 167.539062 97.871094 C 167.285156 86.628906 165.421875 74.753906 163.011719 68.984375 C 161.34375 64.988281 154.789062 63.445312 147.953125 62.371094 C 143.546875 61.679688 139.75 61.105469 138.75 60.957031 C 136.914062 65.707031 129.734375 68.160156 124.066406 68.816406 C 117.820312 69.550781 112.726562 68.339844 111.101562 65.753906 C 110.222656 64.355469 110.328125 62.65625 111.410156 60.695312 C 108.582031 61.183594 97.515625 63.210938 90.386719 66.148438 C 88.011719 67.125 86.019531 68.628906 84.941406 69.710938 L 84.820312 69.832031 C 82.914062 71.742188 81.40625 73.25 80.476562 77.75 C 78.445312 87.574219 78.464844 102.578125 78.464844 102.730469 C 78.464844 102.800781 78.441406 102.871094 78.394531 102.929688 L 74.835938 107.390625 Z M 75.148438 114.25 " fill-opacity="1" fill-rule="nonzero"/></g><path fill="#f4a49a" d="M 111.6875 39.878906 C 111.390625 39.082031 111.011719 38.296875 110.382812 37.714844 C 109.242188 36.648438 107.171875 36.296875 105.972656 37.410156 C 105.480469 37.871094 105.246094 38.609375 105.125 39.261719 C 104.59375 42.167969 106.460938 45.007812 108.289062 47.058594 C 109.265625 48.164062 110.496094 49.152344 111.996094 49.273438 C 113.027344 49.355469 114.066406 49.011719 115.007812 48.632812 C 116.308594 49.824219 117.738281 50.851562 119.113281 51.949219 C 121.269531 53.675781 123.472656 55.4375 126.105469 56.328125 C 132.011719 58.324219 138.972656 55.40625 142.179688 50.195312 C 143.359375 48.273438 143.796875 46.195312 144.082031 44 C 144.820312 38.28125 144.464844 32.589844 143.117188 26.976562 C 142.265625 23.417969 140.917969 19.867188 138.242188 17.277344 C 135.8125 14.921875 132.625 13.628906 129.40625 12.820312 C 125.082031 11.734375 120.980469 13.695312 118.15625 16.949219 C 116.207031 19.191406 114.628906 21.773438 113.738281 24.644531 C 113.300781 26.054688 113.234375 27.566406 112.738281 28.957031 C 112.382812 29.964844 111.542969 30.585938 111.152344 31.546875 C 110.652344 32.777344 111.390625 38.363281 111.796875 40.15625 Z M 111.6875 39.878906 " fill-opacity="1" fill-rule="evenodd"/><path fill="#000000" d="M 129.988281 57.269531 C 128.628906 57.269531 127.285156 57.0625 126.003906 56.628906 C 123.320312 55.722656 121.082031 53.933594 118.921875 52.207031 C 118.492188 51.859375 118.058594 51.527344 117.632812 51.195312 C 116.734375 50.5 115.804688 49.78125 114.941406 49.003906 C 114.046875 49.351562 113 49.667969 111.972656 49.589844 C 110.625 49.484375 109.339844 48.726562 108.046875 47.273438 C 105.453125 44.355469 104.367188 41.640625 104.8125 39.203125 C 104.980469 38.289062 105.296875 37.605469 105.753906 37.179688 C 107.109375 35.921875 109.351562 36.320312 110.601562 37.480469 C 110.792969 37.65625 110.960938 37.851562 111.109375 38.054688 C 110.769531 35.6875 110.457031 32.40625 110.859375 31.429688 C 111.058594 30.933594 111.367188 30.527344 111.664062 30.132812 C 111.972656 29.722656 112.269531 29.332031 112.4375 28.851562 C 112.695312 28.128906 112.839844 27.347656 112.976562 26.59375 C 113.097656 25.921875 113.226562 25.222656 113.433594 24.550781 C 114.285156 21.8125 115.792969 19.183594 117.914062 16.742188 C 121.105469 13.074219 125.441406 11.496094 129.484375 12.511719 C 133.386719 13.492188 136.324219 14.976562 138.464844 17.046875 C 140.777344 19.289062 142.355469 22.421875 143.425781 26.90625 C 144.800781 32.628906 145.125 38.394531 144.394531 44.039062 C 144.125 46.121094 143.703125 48.324219 142.449219 50.363281 C 139.8125 54.648438 134.828125 57.269531 129.988281 57.269531 Z M 115.007812 48.316406 C 115.085938 48.316406 115.164062 48.34375 115.222656 48.398438 C 116.109375 49.210938 117.082031 49.964844 118.019531 50.691406 C 118.453125 51.027344 118.882812 51.359375 119.3125 51.703125 C 121.4375 53.402344 123.628906 55.15625 126.207031 56.027344 C 131.789062 57.914062 138.679688 55.273438 141.90625 50.027344 C 143.101562 48.09375 143.503906 45.96875 143.765625 43.957031 C 144.488281 38.390625 144.164062 32.699219 142.808594 27.050781 C 141.765625 22.691406 140.246094 19.660156 138.019531 17.503906 C 135.964844 15.515625 133.121094 14.082031 129.332031 13.128906 C 125.5 12.167969 121.421875 13.675781 118.394531 17.160156 C 116.332031 19.535156 114.867188 22.085938 114.042969 24.738281 C 113.84375 25.375 113.722656 26.050781 113.601562 26.707031 C 113.460938 27.488281 113.3125 28.292969 113.039062 29.066406 C 112.835938 29.636719 112.5 30.085938 112.171875 30.515625 C 111.886719 30.890625 111.617188 31.246094 111.445312 31.667969 C 110.992188 32.78125 111.683594 38.214844 112.109375 40.085938 C 112.148438 40.257812 112.039062 40.429688 111.867188 40.46875 C 111.679688 40.507812 111.523438 40.398438 111.488281 40.226562 C 111.476562 40.1875 111.46875 40.144531 111.460938 40.101562 C 111.429688 40.070312 111.40625 40.03125 111.390625 39.992188 C 111.148438 39.339844 110.789062 38.523438 110.167969 37.945312 C 109.152344 37 107.265625 36.640625 106.191406 37.644531 C 105.832031 37.972656 105.582031 38.539062 105.441406 39.320312 C 105.03125 41.550781 106.066406 44.085938 108.527344 46.847656 C 109.703125 48.171875 110.84375 48.859375 112.023438 48.953125 C 112.988281 49.027344 114.019531 48.6875 114.890625 48.339844 C 114.925781 48.324219 114.96875 48.316406 115.007812 48.316406 Z M 115.007812 48.316406 " fill-opacity="1" fill-rule="nonzero"/><path fill="#f4a49a" d="M 80.109375 101.050781 C 79.890625 100.582031 79.691406 100.125 79.269531 99.707031 C 79.011719 99.449219 78.777344 99.164062 78.492188 98.933594 C 76.800781 97.5625 74.292969 95.996094 72.027344 96.21875 C 71.390625 96.28125 70.753906 96.519531 70.140625 96.675781 C 68.898438 96.988281 67.445312 97.433594 66.605469 98.484375 C 66.144531 99.058594 66.195312 99.652344 65.886719 100.246094 C 65.585938 100.824219 65.195312 101.355469 65.054688 102.003906 C 64.878906 102.828125 65.269531 103.65625 65.105469 104.4375 C 64.980469 105.042969 64.515625 105.535156 64.351562 106.140625 C 63.742188 108.386719 64.285156 110.414062 65.652344 112.28125 C 66.058594 112.832031 66.484375 113.433594 67.039062 113.84375 C 68.882812 115.203125 71.449219 115.152344 73.628906 115.371094 C 74.484375 115.460938 75.257812 115.398438 76.105469 115.277344 C 76.34375 115.246094 76.691406 115.292969 76.882812 115.109375 C 77.207031 114.789062 77.183594 114.269531 77.132812 113.859375 C 77.027344 112.914062 76.746094 111.96875 76.292969 111.136719 C 76.167969 110.917969 75.730469 110.507812 75.707031 110.273438 C 75.699219 110.148438 75.992188 109.898438 76.054688 109.816406 C 76.265625 109.539062 76.410156 109.246094 76.480469 108.90625 C 76.632812 108.148438 76.519531 107.332031 76.347656 106.585938 C 76.230469 106.082031 75.914062 105.636719 76.265625 105.164062 C 76.652344 104.648438 77.28125 106.089844 77.425781 106.34375 C 77.949219 107.296875 78.65625 109.28125 80.042969 108.417969 C 80.21875 108.308594 80.398438 108.1875 80.550781 108.042969 C 81.261719 107.375 81.273438 106.320312 81.191406 105.417969 C 81.078125 104.167969 80.742188 102.960938 80.382812 101.761719 C 80.300781 101.496094 80.207031 101.265625 80.109375 101.050781 Z M 80.109375 101.050781 " fill-opacity="1" fill-rule="evenodd"/><path fill="#000000" d="M 74.453125 115.734375 C 74.179688 115.734375 73.894531 115.71875 73.59375 115.691406 C 73.230469 115.652344 72.855469 115.625 72.472656 115.59375 C 70.589844 115.449219 68.453125 115.285156 66.851562 114.097656 C 66.292969 113.6875 65.855469 113.09375 65.46875 112.570312 L 65.398438 112.472656 C 63.898438 110.425781 63.445312 108.265625 64.046875 106.054688 C 64.132812 105.734375 64.289062 105.449219 64.441406 105.175781 C 64.59375 104.902344 64.738281 104.644531 64.796875 104.371094 C 64.863281 104.039062 64.816406 103.679688 64.765625 103.296875 C 64.703125 102.859375 64.644531 102.410156 64.746094 101.9375 C 64.859375 101.414062 65.113281 100.96875 65.355469 100.542969 C 65.441406 100.398438 65.527344 100.25 65.605469 100.097656 C 65.714844 99.882812 65.773438 99.664062 65.839844 99.433594 C 65.933594 99.078125 66.042969 98.675781 66.355469 98.285156 C 67.222656 97.203125 68.648438 96.722656 70.058594 96.367188 C 70.246094 96.320312 70.433594 96.265625 70.621094 96.210938 C 71.066406 96.082031 71.527344 95.949219 71.996094 95.902344 C 74.410156 95.660156 76.964844 97.285156 78.691406 98.683594 C 78.890625 98.84375 79.0625 99.027344 79.234375 99.210938 C 79.320312 99.300781 79.40625 99.390625 79.496094 99.480469 C 79.925781 99.910156 80.140625 100.367188 80.347656 100.808594 L 80.398438 100.917969 C 80.503906 101.144531 80.597656 101.386719 80.6875 101.667969 C 81.039062 102.839844 81.390625 104.085938 81.507812 105.390625 C 81.59375 106.332031 81.589844 107.507812 80.769531 108.277344 C 80.597656 108.441406 80.398438 108.570312 80.210938 108.6875 C 79.816406 108.933594 79.425781 109.007812 79.050781 108.902344 C 78.246094 108.675781 77.757812 107.707031 77.367188 106.929688 C 77.292969 106.773438 77.21875 106.628906 77.144531 106.5 L 77.0625 106.339844 C 76.757812 105.726562 76.582031 105.496094 76.488281 105.410156 C 76.375 105.605469 76.429688 105.789062 76.542969 106.121094 C 76.585938 106.25 76.628906 106.378906 76.660156 106.515625 C 76.886719 107.511719 76.929688 108.289062 76.792969 108.96875 C 76.71875 109.339844 76.558594 109.679688 76.308594 110.007812 C 76.285156 110.039062 76.246094 110.082031 76.195312 110.136719 C 76.160156 110.167969 76.09375 110.238281 76.046875 110.292969 C 76.101562 110.378906 76.234375 110.539062 76.308594 110.628906 C 76.417969 110.761719 76.519531 110.890625 76.574219 110.984375 C 77.03125 111.832031 77.335938 112.8125 77.453125 113.824219 C 77.488281 114.136719 77.574219 114.875 77.105469 115.335938 C 76.878906 115.558594 76.558594 115.570312 76.328125 115.582031 C 76.265625 115.585938 76.203125 115.585938 76.148438 115.59375 C 75.625 115.667969 75.066406 115.734375 74.453125 115.734375 Z M 72.464844 96.515625 C 72.328125 96.515625 72.195312 96.523438 72.058594 96.535156 C 71.644531 96.574219 71.214844 96.699219 70.800781 96.820312 C 70.601562 96.878906 70.410156 96.933594 70.214844 96.984375 C 68.914062 97.3125 67.605469 97.746094 66.855469 98.683594 C 66.625 98.96875 66.546875 99.261719 66.453125 99.597656 C 66.382812 99.855469 66.3125 100.117188 66.167969 100.390625 C 66.089844 100.550781 66 100.707031 65.910156 100.859375 C 65.679688 101.265625 65.460938 101.644531 65.367188 102.070312 C 65.289062 102.433594 65.34375 102.8125 65.398438 103.210938 C 65.453125 103.628906 65.511719 104.0625 65.417969 104.503906 C 65.34375 104.867188 65.167969 105.183594 65 105.484375 C 64.863281 105.738281 64.730469 105.976562 64.660156 106.222656 C 64.105469 108.265625 64.515625 110.1875 65.914062 112.097656 L 65.984375 112.191406 C 66.359375 112.703125 66.75 113.230469 67.230469 113.589844 C 68.6875 114.664062 70.636719 114.816406 72.523438 114.960938 C 72.910156 114.992188 73.292969 115.019531 73.660156 115.054688 C 74.5625 115.148438 75.347656 115.0625 76.058594 114.964844 C 76.132812 114.953125 76.21875 114.949219 76.300781 114.945312 C 76.429688 114.941406 76.609375 114.933594 76.664062 114.882812 C 76.878906 114.667969 76.863281 114.265625 76.820312 113.894531 C 76.714844 112.964844 76.433594 112.0625 76.015625 111.289062 C 75.976562 111.222656 75.898438 111.132812 75.820312 111.035156 C 75.613281 110.785156 75.417969 110.550781 75.394531 110.304688 C 75.375 110.0625 75.570312 109.863281 75.742188 109.691406 C 75.765625 109.664062 75.792969 109.636719 75.804688 109.621094 C 75.996094 109.371094 76.113281 109.117188 76.167969 108.84375 C 76.289062 108.253906 76.246094 107.5625 76.039062 106.65625 C 76.011719 106.542969 75.972656 106.433594 75.9375 106.324219 C 75.808594 105.941406 75.648438 105.464844 76.011719 104.976562 C 76.1875 104.746094 76.402344 104.722656 76.503906 104.738281 C 76.957031 104.777344 77.308594 105.410156 77.632812 106.054688 L 77.703125 106.191406 C 77.777344 106.324219 77.855469 106.480469 77.9375 106.640625 C 78.253906 107.273438 78.691406 108.136719 79.222656 108.289062 C 79.421875 108.339844 79.636719 108.296875 79.878906 108.148438 C 80.035156 108.046875 80.203125 107.9375 80.335938 107.8125 C 80.953125 107.230469 80.949219 106.242188 80.875 105.445312 C 80.761719 104.203125 80.421875 102.988281 80.078125 101.851562 C 80.003906 101.605469 79.917969 101.386719 79.824219 101.1875 L 79.773438 101.078125 C 79.582031 100.667969 79.398438 100.277344 79.046875 99.929688 C 78.953125 99.839844 78.863281 99.742188 78.773438 99.648438 C 78.621094 99.484375 78.464844 99.320312 78.292969 99.175781 C 77.03125 98.15625 74.660156 96.515625 72.464844 96.515625 Z M 72.464844 96.515625 " fill-opacity="1" fill-rule="nonzero"/><g clip-path="url(#de7f5152b2)"><path fill="#ccb9f4" d="M 38.394531 114.207031 L 100.804688 111.371094 L 124.875 142.414062 L 64.417969 143.46875 Z M 38.394531 114.207031 " fill-opacity="1" fill-rule="evenodd"/></g><g clip-path="url(#85db6499aa)"><path fill="#000000" d="M 64.417969 143.789062 C 64.328125 143.789062 64.238281 143.75 64.179688 143.679688 L 38.152344 114.417969 C 38.074219 114.324219 38.050781 114.195312 38.097656 114.082031 C 38.148438 113.96875 38.257812 113.890625 38.378906 113.886719 L 100.792969 111.054688 C 100.871094 111.046875 100.992188 111.097656 101.054688 111.175781 L 125.125 142.21875 C 125.199219 142.316406 125.214844 142.441406 125.164062 142.550781 C 125.109375 142.660156 125 142.730469 124.882812 142.730469 L 64.421875 143.785156 L 64.417969 143.785156 Z M 39.074219 114.492188 L 64.558594 143.148438 L 124.234375 142.109375 L 100.65625 111.695312 Z M 39.074219 114.492188 " fill-opacity="1" fill-rule="nonzero"/></g><g clip-path="url(#bc9dbaefa2)"><path fill="#545454" d="M 122.601562 26.457031 C 121.015625 26.226562 119.417969 26.070312 117.820312 25.933594 C 116.878906 25.851562 115.886719 25.6875 114.945312 25.859375 C 114.875 26.910156 114.808594 27.996094 114.890625 29.050781 C 114.945312 29.738281 115.183594 30.570312 115.078125 31.265625 C 114.96875 31.949219 114.558594 32.535156 114.3125 33.167969 C 113.695312 34.769531 113.769531 36.78125 114.050781 38.445312 C 114.148438 39.03125 114.792969 40.636719 114.414062 41.15625 C 114.050781 41.644531 112.789062 41.941406 112.332031 41.507812 C 111.792969 40.996094 111.535156 39.960938 111.226562 39.304688 C 110.804688 38.40625 110.003906 37.445312 109.148438 36.921875 C 108.480469 36.515625 107.765625 36.382812 107.03125 36.65625 C 106.535156 36.835938 105.878906 37.527344 105.453125 37.078125 C 104.648438 36.230469 104.210938 35.074219 103.703125 34.050781 C 101.859375 30.355469 101.386719 25.730469 101.378906 21.667969 C 101.371094 19.625 101.910156 16.527344 104.230469 15.929688 C 103.945312 13.378906 105.828125 11.871094 107.574219 10.332031 C 109.703125 8.453125 112.132812 6.992188 114.59375 5.59375 C 116.59375 4.457031 118.589844 3.292969 120.6875 2.332031 C 122.121094 1.671875 123.554688 1.046875 125.097656 0.695312 C 125.550781 0.589844 126.109375 0.417969 126.589844 0.476562 C 127.179688 0.546875 127.320312 1.082031 127.289062 1.605469 C 127.242188 2.511719 126.570312 3.355469 126.226562 4.175781 C 126.117188 4.445312 125.753906 4.945312 126.027344 5.21875 C 126.554688 5.746094 127.667969 5.644531 128.339844 5.648438 C 132.964844 5.683594 137.578125 6.5 142.023438 7.75 C 143.328125 8.117188 145.871094 8.46875 146.5 9.871094 C 147.03125 11.054688 145.367188 12.371094 144.417969 12.738281 C 144.191406 12.824219 143.066406 13.144531 143.085938 13.453125 C 143.136719 14.132812 144.042969 14.644531 144.53125 14.980469 C 146.589844 16.40625 148.621094 17.976562 150.101562 20.019531 C 150.566406 20.660156 151.421875 21.582031 151.1875 22.4375 C 151.019531 23.070312 150.410156 23.496094 149.878906 23.816406 C 148.460938 24.671875 146.683594 24.78125 145.074219 24.960938 C 141.175781 25.390625 137.105469 25.441406 133.3125 24.3125 C 133.414062 24.570312 133.515625 24.824219 133.621094 25.082031 C 134.050781 26.132812 135.550781 28.566406 133.421875 28.75 C 133.179688 28.769531 133.035156 28.742188 132.792969 28.714844 C 129.539062 28.367188 126.429688 27.269531 123.25 26.554688 C 123.039062 26.507812 122.820312 26.488281 122.605469 26.457031 Z M 122.601562 26.457031 " fill-opacity="1" fill-rule="evenodd"/></g><g clip-path="url(#13eb22b658)"><path fill="#000000" d="M 113.011719 42.035156 C 112.632812 42.035156 112.320312 41.933594 112.113281 41.738281 C 111.679688 41.328125 111.417969 40.65625 111.191406 40.0625 C 111.105469 39.839844 111.023438 39.625 110.9375 39.441406 C 110.515625 38.542969 109.75 37.664062 108.984375 37.195312 C 108.34375 36.808594 107.746094 36.726562 107.136719 36.953125 C 107.011719 37 106.875 37.085938 106.730469 37.171875 C 106.320312 37.421875 105.695312 37.804688 105.21875 37.296875 C 104.546875 36.585938 104.128906 35.695312 103.722656 34.835938 C 103.621094 34.617188 103.519531 34.402344 103.414062 34.191406 C 101.859375 31.074219 101.070312 26.859375 101.058594 21.671875 C 101.054688 20.476562 101.257812 16.613281 103.890625 15.699219 C 103.746094 13.269531 105.453125 11.773438 107.105469 10.320312 L 107.363281 10.09375 C 109.578125 8.140625 112.175781 6.605469 114.433594 5.320312 L 115.015625 4.988281 C 116.804688 3.972656 118.648438 2.917969 120.554688 2.046875 C 121.945312 1.40625 123.4375 0.75 125.023438 0.386719 L 125.253906 0.332031 C 125.683594 0.226562 126.183594 0.109375 126.628906 0.160156 C 127.296875 0.242188 127.652344 0.773438 127.609375 1.625 C 127.574219 2.308594 127.238281 2.925781 126.910156 3.523438 C 126.769531 3.785156 126.628906 4.042969 126.523438 4.300781 C 126.496094 4.359375 126.460938 4.433594 126.417969 4.511719 C 126.238281 4.867188 126.226562 4.96875 126.25 4.996094 C 126.613281 5.355469 127.441406 5.34375 128.039062 5.335938 L 128.34375 5.332031 C 132.65625 5.363281 137.160156 6.054688 142.113281 7.445312 C 142.328125 7.507812 142.585938 7.566406 142.859375 7.632812 C 144.269531 7.972656 146.203125 8.4375 146.789062 9.742188 C 146.964844 10.132812 146.964844 10.570312 146.78125 11.011719 C 146.367188 12.015625 145.179688 12.785156 144.53125 13.035156 L 144.359375 13.09375 C 143.746094 13.300781 143.503906 13.425781 143.414062 13.5 C 143.503906 13.914062 144.105469 14.3125 144.507812 14.582031 L 144.714844 14.722656 C 146.738281 16.121094 148.820312 17.710938 150.359375 19.832031 C 150.425781 19.921875 150.496094 20.019531 150.574219 20.121094 C 151.0625 20.761719 151.734375 21.636719 151.496094 22.523438 C 151.300781 23.25 150.648438 23.726562 150.042969 24.089844 C 148.703125 24.894531 147.121094 25.0625 145.589844 25.222656 L 145.109375 25.277344 C 140.585938 25.773438 136.988281 25.625 133.847656 24.796875 C 133.867188 24.851562 133.890625 24.90625 133.914062 24.960938 C 133.972656 25.105469 134.050781 25.277344 134.140625 25.464844 C 134.566406 26.371094 135.144531 27.617188 134.683594 28.417969 C 134.460938 28.796875 134.046875 29.015625 133.449219 29.066406 C 133.222656 29.089844 133.0625 29.070312 132.878906 29.046875 L 132.757812 29.03125 C 130.582031 28.800781 128.445312 28.230469 126.382812 27.679688 C 125.332031 27.398438 124.25 27.109375 123.175781 26.867188 C 123.039062 26.835938 122.894531 26.816406 122.75 26.800781 L 122.558594 26.773438 C 120.933594 26.535156 119.308594 26.382812 117.796875 26.25 C 117.609375 26.234375 117.421875 26.214844 117.234375 26.195312 C 116.574219 26.128906 115.890625 26.0625 115.25 26.136719 C 115.179688 27.160156 115.136719 28.097656 115.210938 29.027344 C 115.226562 29.25 115.265625 29.492188 115.304688 29.738281 C 115.386719 30.261719 115.46875 30.808594 115.390625 31.316406 C 115.316406 31.808594 115.105469 32.238281 114.898438 32.65625 C 114.796875 32.863281 114.695312 33.070312 114.613281 33.285156 C 113.976562 34.929688 114.125 36.972656 114.363281 38.394531 C 114.386719 38.539062 114.449219 38.75 114.519531 38.996094 C 114.816406 40.039062 115.015625 40.875 114.671875 41.34375 C 114.367188 41.753906 113.71875 41.984375 113.207031 42.027344 C 113.144531 42.035156 113.074219 42.035156 113.011719 42.035156 Z M 107.808594 36.195312 C 108.308594 36.195312 108.8125 36.347656 109.316406 36.652344 C 110.179688 37.179688 111.042969 38.171875 111.511719 39.171875 C 111.605469 39.367188 111.691406 39.59375 111.785156 39.835938 C 111.988281 40.363281 112.21875 40.964844 112.550781 41.277344 C 112.652344 41.375 112.875 41.421875 113.152344 41.394531 C 113.613281 41.351562 114.023438 41.144531 114.15625 40.964844 C 114.34375 40.710938 114.046875 39.667969 113.90625 39.167969 C 113.828125 38.898438 113.761719 38.660156 113.734375 38.5 C 113.484375 36.996094 113.328125 34.835938 114.015625 33.054688 C 114.105469 32.824219 114.214844 32.597656 114.324219 32.375 C 114.519531 31.984375 114.699219 31.613281 114.761719 31.21875 C 114.824219 30.804688 114.746094 30.3125 114.671875 29.832031 C 114.632812 29.570312 114.59375 29.3125 114.574219 29.074219 C 114.492188 28.027344 114.554688 26.945312 114.628906 25.835938 C 114.640625 25.691406 114.746094 25.570312 114.886719 25.546875 C 115.6875 25.398438 116.503906 25.480469 117.292969 25.5625 C 117.480469 25.582031 117.664062 25.601562 117.847656 25.617188 C 119.371094 25.75 121.007812 25.902344 122.648438 26.144531 L 122.832031 26.167969 C 122.992188 26.1875 123.15625 26.210938 123.316406 26.246094 C 124.398438 26.488281 125.488281 26.78125 126.542969 27.0625 C 128.582031 27.609375 130.695312 28.175781 132.820312 28.402344 L 132.949219 28.414062 C 133.117188 28.433594 133.222656 28.445312 133.390625 28.433594 C 133.769531 28.402344 134.019531 28.289062 134.128906 28.097656 C 134.425781 27.585938 133.90625 26.46875 133.558594 25.734375 C 133.46875 25.535156 133.382812 25.355469 133.320312 25.203125 C 133.21875 24.945312 133.113281 24.691406 133.011719 24.433594 C 132.96875 24.320312 132.992188 24.191406 133.074219 24.101562 C 133.15625 24.007812 133.285156 23.976562 133.398438 24.011719 C 136.605469 24.964844 140.300781 25.164062 145.035156 24.644531 L 145.523438 24.59375 C 146.984375 24.441406 148.496094 24.28125 149.710938 23.546875 C 150.210938 23.246094 150.738281 22.867188 150.878906 22.359375 C 151.035156 21.777344 150.5 21.074219 150.066406 20.507812 C 149.984375 20.402344 149.910156 20.300781 149.84375 20.207031 C 148.359375 18.164062 146.324219 16.613281 144.347656 15.246094 L 144.152344 15.113281 C 143.59375 14.738281 142.824219 14.226562 142.769531 13.480469 C 142.734375 13.011719 143.375 12.753906 144.15625 12.492188 L 144.300781 12.441406 C 144.875 12.222656 145.875 11.539062 146.191406 10.773438 C 146.308594 10.488281 146.316406 10.234375 146.210938 10 C 145.75 8.980469 143.992188 8.558594 142.707031 8.253906 C 142.425781 8.183594 142.164062 8.121094 141.9375 8.058594 C 137.042969 6.683594 132.59375 6 128.335938 5.96875 L 128.046875 5.972656 C 127.328125 5.984375 126.347656 5.992188 125.800781 5.445312 C 125.417969 5.0625 125.6875 4.535156 125.851562 4.222656 C 125.882812 4.160156 125.910156 4.101562 125.933594 4.054688 C 126.046875 3.777344 126.199219 3.5 126.351562 3.21875 C 126.644531 2.683594 126.941406 2.128906 126.972656 1.589844 C 127.007812 0.847656 126.664062 0.804688 126.550781 0.792969 C 126.210938 0.753906 125.777344 0.855469 125.402344 0.945312 L 125.164062 1.003906 C 123.640625 1.355469 122.179688 1.996094 120.816406 2.625 C 118.9375 3.488281 117.101562 4.53125 115.328125 5.539062 L 114.746094 5.871094 C 112.414062 7.199219 109.949219 8.65625 107.785156 10.570312 L 107.523438 10.800781 C 105.863281 12.257812 104.292969 13.636719 104.542969 15.894531 C 104.5625 16.050781 104.460938 16.199219 104.304688 16.238281 C 101.871094 16.863281 101.691406 20.554688 101.695312 21.667969 C 101.703125 26.757812 102.476562 30.878906 103.984375 33.910156 C 104.089844 34.125 104.195312 34.34375 104.296875 34.566406 C 104.679688 35.378906 105.078125 36.222656 105.679688 36.859375 C 105.789062 36.96875 105.988281 36.882812 106.402344 36.632812 C 106.570312 36.527344 106.746094 36.421875 106.917969 36.359375 C 107.214844 36.246094 107.507812 36.195312 107.808594 36.195312 Z M 107.808594 36.195312 " fill-opacity="1" fill-rule="nonzero"/></g><path fill="#ccb9f4" d="M 64.109375 84.328125 L 66.65625 82.953125 L 76.128906 103.835938 L 75.171875 104.660156 L 73.515625 104.683594 Z M 64.109375 84.328125 " fill-opacity="1" fill-rule="evenodd"/><path fill="#000000" d="M 73.515625 105 C 73.394531 105 73.28125 104.929688 73.230469 104.816406 L 63.820312 84.460938 C 63.75 84.308594 63.8125 84.128906 63.957031 84.050781 L 66.503906 82.675781 C 66.585938 82.632812 66.675781 82.625 66.757812 82.652344 C 66.839844 82.679688 66.910156 82.742188 66.945312 82.824219 L 76.421875 103.703125 C 76.480469 103.832031 76.445312 103.984375 76.339844 104.074219 L 75.378906 104.898438 C 75.320312 104.949219 75.25 104.976562 75.175781 104.976562 L 73.519531 105 Z M 64.523438 84.464844 L 73.71875 104.363281 L 75.050781 104.34375 L 75.742188 103.746094 L 66.507812 83.394531 Z M 64.523438 84.464844 " fill-opacity="1" fill-rule="nonzero"/><path fill="#f4a49a" d="M 119.589844 127.554688 C 117.386719 128.367188 115.074219 128.65625 112.78125 129.085938 C 110.023438 129.601562 107.253906 130.164062 104.488281 130.605469 C 102.511719 130.921875 100.246094 131.035156 98.375 131.808594 C 98.121094 131.910156 97.894531 132.058594 97.683594 132.226562 C 96.390625 133.234375 97.742188 134.359375 98.679688 135.074219 C 100.546875 136.503906 102.664062 136.566406 104.90625 136.617188 C 101.007812 137.785156 96.410156 137.921875 92.867188 140.0625 C 92.363281 140.371094 91.878906 140.691406 91.464844 141.117188 C 90.84375 141.75 90.675781 143.25 91.429688 143.875 C 92.339844 144.625 93.550781 144.761719 94.695312 144.792969 C 95.859375 144.820312 97.015625 144.570312 98.183594 144.625 C 97.410156 147.902344 101.8125 146.980469 103.644531 146.84375 C 108.859375 146.457031 114.0625 145.640625 119.171875 144.53125 C 120.285156 144.289062 121.398438 144.050781 122.496094 143.753906 C 122.789062 143.675781 123.316406 143.644531 123.523438 143.371094 C 123.796875 143.007812 123.691406 142.308594 123.660156 141.890625 C 123.636719 141.601562 119.703125 127.824219 119.59375 127.554688 Z M 119.589844 127.554688 " fill-opacity="1" fill-rule="evenodd"/><path fill="#000000" d="M 100.8125 147.386719 C 99.765625 147.386719 98.769531 147.214844 98.207031 146.582031 C 97.847656 146.171875 97.710938 145.621094 97.800781 144.9375 C 97.335938 144.9375 96.871094 144.980469 96.382812 145.023438 C 95.832031 145.074219 95.261719 145.128906 94.6875 145.109375 C 93.535156 145.082031 92.21875 144.9375 91.226562 144.121094 C 90.859375 143.816406 90.644531 143.332031 90.613281 142.753906 C 90.578125 142.050781 90.824219 141.320312 91.238281 140.894531 C 91.699219 140.425781 92.238281 140.074219 92.703125 139.792969 C 95.074219 138.363281 97.898438 137.808594 100.628906 137.269531 C 101.332031 137.132812 102.046875 136.992188 102.753906 136.835938 C 101.273438 136.699219 99.816406 136.34375 98.488281 135.328125 C 97.628906 134.675781 96.835938 133.957031 96.832031 133.140625 C 96.832031 132.710938 97.050781 132.316406 97.484375 131.976562 C 97.757812 131.761719 98.003906 131.617188 98.253906 131.515625 C 99.691406 130.921875 101.328125 130.710938 102.910156 130.507812 C 103.429688 130.4375 103.941406 130.371094 104.441406 130.292969 C 106.472656 129.96875 108.546875 129.574219 110.546875 129.1875 C 111.273438 129.050781 111.996094 128.910156 112.722656 128.773438 C 113.210938 128.683594 113.699219 128.597656 114.191406 128.511719 C 115.949219 128.207031 117.773438 127.886719 119.480469 127.257812 C 119.636719 127.199219 119.820312 127.273438 119.886719 127.433594 C 119.921875 127.523438 123.949219 141.480469 123.972656 141.871094 L 123.988281 142.039062 C 124.03125 142.507812 124.089844 143.152344 123.777344 143.566406 C 123.546875 143.871094 123.128906 143.953125 122.792969 144.019531 C 122.714844 144.035156 122.640625 144.046875 122.578125 144.066406 C 121.535156 144.347656 120.464844 144.578125 119.429688 144.804688 L 119.238281 144.84375 C 113.816406 146.019531 108.578125 146.800781 103.667969 147.164062 C 103.449219 147.179688 103.195312 147.207031 102.910156 147.238281 C 102.269531 147.308594 101.53125 147.386719 100.816406 147.386719 Z M 97.828125 144.300781 C 97.949219 144.300781 98.074219 144.304688 98.195312 144.308594 C 98.289062 144.316406 98.378906 144.359375 98.433594 144.433594 C 98.492188 144.511719 98.511719 144.609375 98.492188 144.699219 C 98.335938 145.359375 98.398438 145.835938 98.683594 146.160156 C 99.40625 146.976562 101.472656 146.75 102.839844 146.605469 C 103.128906 146.574219 103.394531 146.542969 103.621094 146.527344 C 108.496094 146.167969 113.707031 145.390625 119.101562 144.222656 L 119.289062 144.179688 C 120.320312 143.957031 121.382812 143.726562 122.410156 143.449219 C 122.484375 143.429688 122.574219 143.410156 122.667969 143.390625 C 122.871094 143.351562 123.183594 143.292969 123.265625 143.179688 C 123.433594 142.960938 123.382812 142.441406 123.351562 142.097656 L 123.339844 141.914062 C 123.269531 141.515625 120.015625 130.035156 119.386719 127.964844 C 117.71875 128.542969 115.980469 128.84375 114.296875 129.136719 C 113.808594 129.222656 113.324219 129.308594 112.835938 129.398438 C 112.113281 129.535156 111.390625 129.671875 110.664062 129.8125 C 108.660156 130.195312 106.582031 130.59375 104.535156 130.917969 C 104.035156 131 103.515625 131.066406 102.988281 131.136719 C 101.449219 131.335938 99.855469 131.539062 98.496094 132.101562 C 98.296875 132.179688 98.101562 132.300781 97.878906 132.476562 C 97.597656 132.691406 97.46875 132.910156 97.46875 133.136719 C 97.472656 133.753906 98.417969 134.476562 98.871094 134.820312 C 100.675781 136.203125 102.730469 136.25 104.910156 136.296875 C 105.066406 136.300781 105.195312 136.417969 105.21875 136.574219 C 105.238281 136.730469 105.144531 136.875 104.996094 136.921875 C 103.632812 137.328125 102.167969 137.617188 100.753906 137.894531 C 98.070312 138.421875 95.300781 138.960938 93.03125 140.335938 C 92.578125 140.609375 92.101562 140.921875 91.691406 141.339844 C 91.402344 141.632812 91.222656 142.203125 91.25 142.722656 C 91.269531 143.117188 91.402344 143.441406 91.628906 143.628906 C 92.472656 144.324219 93.605469 144.445312 94.703125 144.472656 C 95.242188 144.480469 95.789062 144.4375 96.324219 144.390625 C 96.8125 144.34375 97.316406 144.300781 97.824219 144.300781 Z M 97.828125 144.300781 " fill-opacity="1" fill-rule="nonzero"/><path fill="#545454" d="M 156.03125 135.941406 C 147.710938 141.605469 135.445312 144.601562 123.554688 146.195312 C 121.308594 140.796875 119.464844 134.078125 117.851562 126.605469 L 143.597656 116.183594 C 144.460938 107.382812 144.722656 97.96875 144 87.542969 Z M 156.03125 135.941406 " fill-opacity="1" fill-rule="evenodd"/><path fill="#000000" d="M 123.554688 146.511719 C 123.429688 146.511719 123.3125 146.4375 123.261719 146.316406 C 121.191406 141.347656 119.320312 134.921875 117.539062 126.671875 C 117.507812 126.523438 117.585938 126.367188 117.730469 126.308594 L 143.296875 115.960938 C 144.222656 106.441406 144.347656 97.148438 143.679688 87.566406 C 143.667969 87.390625 143.800781 87.238281 143.976562 87.230469 C 143.984375 87.226562 143.992188 87.226562 143.996094 87.226562 C 144.164062 87.226562 144.304688 87.355469 144.316406 87.523438 C 144.988281 97.207031 144.859375 106.59375 143.914062 116.214844 C 143.898438 116.335938 143.824219 116.4375 143.714844 116.480469 L 118.21875 126.800781 C 119.945312 134.761719 121.757812 141 123.753906 145.847656 C 137.96875 143.921875 148.765625 140.5 155.855469 135.679688 C 156 135.582031 156.195312 135.617188 156.292969 135.761719 C 156.394531 135.910156 156.355469 136.105469 156.210938 136.207031 C 149 141.109375 138.027344 144.578125 123.597656 146.511719 C 123.582031 146.515625 123.570312 146.515625 123.554688 146.515625 Z M 123.554688 146.511719 " fill-opacity="1" fill-rule="nonzero"/><path fill="#000000" d="M 104.339844 137.097656 C 104.183594 137.097656 104.046875 136.980469 104.027344 136.820312 C 104.003906 136.644531 104.128906 136.488281 104.300781 136.464844 L 105.046875 136.371094 C 106.195312 136.226562 107.382812 136.082031 108.578125 136 C 108.738281 135.972656 108.90625 136.121094 108.914062 136.296875 C 108.925781 136.46875 108.792969 136.621094 108.617188 136.632812 C 107.445312 136.714844 106.265625 136.859375 105.125 137.003906 L 104.382812 137.097656 C 104.367188 137.097656 104.355469 137.097656 104.339844 137.097656 Z M 104.339844 137.097656 " fill-opacity="1" fill-rule="nonzero"/><path fill="#000000" d="M 97.515625 145 C 97.355469 145 97.21875 144.882812 97.199219 144.722656 C 97.175781 144.546875 97.300781 144.386719 97.476562 144.367188 C 98.441406 144.25 99.394531 144 100.320312 143.757812 C 100.910156 143.601562 101.496094 143.449219 102.09375 143.324219 C 104.546875 142.8125 107.28125 142.429688 110.699219 142.121094 C 110.710938 142.117188 110.722656 142.117188 110.730469 142.117188 C 110.894531 142.117188 111.03125 142.242188 111.046875 142.40625 C 111.0625 142.582031 110.933594 142.738281 110.757812 142.753906 C 107.367188 143.0625 104.65625 143.441406 102.226562 143.945312 C 101.640625 144.070312 101.0625 144.222656 100.484375 144.371094 C 99.539062 144.621094 98.558594 144.878906 97.550781 145 C 97.539062 145 97.527344 145 97.515625 145 Z M 97.515625 145 " fill-opacity="1" fill-rule="nonzero"/><path fill="#000000" d="M 142.617188 117.046875 C 142.496094 117.046875 142.378906 116.980469 142.328125 116.863281 C 142.253906 116.703125 142.324219 116.515625 142.484375 116.441406 C 145.207031 115.191406 149.296875 114.417969 152.617188 115.972656 C 152.777344 116.046875 152.847656 116.234375 152.773438 116.394531 C 152.695312 116.554688 152.507812 116.621094 152.347656 116.546875 C 149.21875 115.082031 145.335938 115.832031 142.75 117.019531 C 142.703125 117.039062 142.660156 117.046875 142.617188 117.046875 Z M 142.617188 117.046875 " fill-opacity="1" fill-rule="nonzero"/><path fill="#000000" d="M 87.617188 112.195312 C 87.503906 112.195312 87.398438 112.136719 87.339844 112.03125 C 86.160156 109.902344 84.570312 107.933594 83.03125 106.027344 C 82.117188 104.894531 81.171875 103.726562 80.324219 102.535156 C 80.222656 102.390625 80.257812 102.191406 80.398438 102.089844 C 80.542969 101.988281 80.738281 102.023438 80.84375 102.167969 C 81.679688 103.339844 82.617188 104.503906 83.527344 105.628906 C 85.082031 107.554688 86.6875 109.546875 87.894531 111.722656 C 87.980469 111.878906 87.925781 112.070312 87.769531 112.15625 C 87.722656 112.183594 87.667969 112.195312 87.617188 112.195312 Z M 87.617188 112.195312 " fill-opacity="1" fill-rule="nonzero"/><path fill="#000000" d="M 95.277344 111.984375 C 95.128906 111.984375 94.992188 111.875 94.964844 111.722656 C 94.613281 109.753906 94.554688 107.730469 94.496094 105.777344 C 94.453125 104.285156 94.410156 102.746094 94.234375 101.253906 L 94.117188 100.269531 C 93.878906 98.175781 93.628906 96.015625 93.234375 93.933594 C 93.109375 93.273438 92.953125 92.609375 92.796875 91.945312 C 92.535156 90.835938 92.265625 89.683594 92.140625 88.535156 C 92.121094 88.359375 92.25 88.203125 92.425781 88.183594 C 92.605469 88.15625 92.753906 88.292969 92.773438 88.464844 C 92.894531 89.578125 93.160156 90.707031 93.417969 91.800781 C 93.574219 92.472656 93.734375 93.144531 93.859375 93.816406 C 94.257812 95.921875 94.511719 98.09375 94.753906 100.199219 L 94.867188 101.179688 C 95.046875 102.699219 95.089844 104.253906 95.132812 105.757812 C 95.191406 107.691406 95.25 109.6875 95.59375 111.609375 C 95.625 111.785156 95.507812 111.949219 95.335938 111.980469 C 95.316406 111.984375 95.296875 111.984375 95.28125 111.984375 Z M 95.277344 111.984375 " fill-opacity="1" fill-rule="nonzero"/><path fill="#000000" d="M 74.324219 110.402344 C 74.09375 110.402344 73.871094 110.390625 73.652344 110.382812 L 73.460938 110.375 C 71.300781 110.289062 69.824219 109.730469 68.945312 108.671875 C 68.304688 107.90625 68.136719 106.8125 67.988281 105.851562 C 67.941406 105.5625 67.898438 105.285156 67.847656 105.027344 C 67.714844 104.410156 67.515625 103.785156 67.328125 103.179688 C 67.164062 102.671875 67.007812 102.160156 66.878906 101.644531 C 66.835938 101.472656 66.9375 101.300781 67.109375 101.257812 C 67.289062 101.214844 67.453125 101.320312 67.496094 101.488281 C 67.617188 101.996094 67.777344 102.492188 67.933594 102.988281 C 68.128906 103.609375 68.332031 104.25 68.46875 104.898438 C 68.523438 105.167969 68.570312 105.457031 68.613281 105.753906 C 68.761719 106.675781 68.90625 107.632812 69.433594 108.265625 C 70.179688 109.167969 71.542969 109.664062 73.488281 109.738281 L 73.679688 109.746094 C 74.5 109.777344 75.363281 109.816406 75.996094 109.328125 C 76.136719 109.222656 76.335938 109.25 76.445312 109.386719 C 76.550781 109.523438 76.527344 109.722656 76.386719 109.832031 C 75.769531 110.308594 75.035156 110.402344 74.324219 110.402344 Z M 74.324219 110.402344 " fill-opacity="1" fill-rule="nonzero"/><path fill="#000000" d="M 72.738281 112.945312 C 72.613281 112.945312 72.488281 112.941406 72.359375 112.933594 C 70.332031 112.820312 68.289062 111.808594 67.164062 110.359375 C 66.566406 109.589844 66.300781 108.597656 66.050781 107.640625 C 65.949219 107.261719 65.851562 106.886719 65.734375 106.539062 C 65.675781 106.371094 65.765625 106.191406 65.933594 106.136719 C 66.097656 106.082031 66.277344 106.167969 66.335938 106.335938 C 66.460938 106.695312 66.558594 107.082031 66.664062 107.476562 C 66.902344 108.375 67.148438 109.300781 67.664062 109.96875 C 68.667969 111.257812 70.570312 112.195312 72.398438 112.300781 C 73.828125 112.375 75.050781 111.960938 75.875 111.117188 C 76 110.992188 76.203125 110.988281 76.328125 111.113281 C 76.453125 111.234375 76.453125 111.4375 76.332031 111.5625 C 75.449219 112.460938 74.183594 112.945312 72.738281 112.945312 Z M 72.738281 112.945312 " fill-opacity="1" fill-rule="nonzero"/><path fill="#000000" d="M 141.527344 327.683594 C 141.464844 327.683594 141.402344 327.664062 141.347656 327.625 C 137.964844 325.265625 133.851562 324.207031 130.039062 324.699219 C 128.511719 324.902344 127.125 325.394531 125.472656 326.019531 C 125.308594 326.078125 125.125 326 125.0625 325.832031 C 125 325.671875 125.082031 325.484375 125.246094 325.421875 C 126.9375 324.785156 128.359375 324.28125 129.957031 324.070312 C 133.921875 323.542969 138.203125 324.652344 141.710938 327.101562 C 141.855469 327.203125 141.890625 327.402344 141.789062 327.546875 C 141.726562 327.636719 141.628906 327.683594 141.527344 327.683594 Z M 141.527344 327.683594 " fill-opacity="1" fill-rule="nonzero"/><path fill="#000000" d="M 111.589844 307.339844 C 111.585938 307.339844 111.578125 307.339844 111.574219 307.335938 C 111.398438 307.328125 111.265625 307.179688 111.273438 307.007812 C 111.316406 306.015625 118.132812 188.277344 118.804688 181.074219 C 113.390625 176.429688 113.914062 170.976562 114.523438 164.667969 C 114.578125 164.089844 114.632812 163.5 114.6875 162.898438 C 114.78125 161.804688 114.847656 160.699219 114.914062 159.589844 C 115.046875 157.328125 115.179688 154.988281 115.59375 152.742188 C 115.628906 152.574219 115.78125 152.457031 115.964844 152.488281 C 116.136719 152.519531 116.25 152.6875 116.21875 152.859375 C 115.8125 155.066406 115.679688 157.382812 115.546875 159.625 C 115.480469 160.742188 115.417969 161.855469 115.320312 162.953125 C 115.265625 163.554688 115.210938 164.148438 115.15625 164.730469 C 114.535156 171.164062 114.046875 176.242188 119.34375 180.695312 C 119.421875 180.765625 119.464844 180.867188 119.453125 180.972656 C 118.890625 186.183594 111.953125 306.035156 111.90625 307.035156 C 111.902344 307.207031 111.757812 307.339844 111.589844 307.339844 Z M 111.589844 307.339844 " fill-opacity="1" fill-rule="nonzero"/><path fill="#000000" d="M 117.3125 181.050781 C 117.28125 181.050781 117.253906 181.046875 117.222656 181.039062 C 114.242188 180.144531 111.234375 178.796875 108.285156 177.03125 C 108.132812 176.941406 108.085938 176.746094 108.175781 176.59375 C 108.265625 176.441406 108.460938 176.394531 108.613281 176.484375 C 111.515625 178.222656 114.472656 179.550781 117.402344 180.429688 C 117.570312 180.476562 117.667969 180.65625 117.617188 180.824219 C 117.574219 180.960938 117.449219 181.050781 117.3125 181.050781 Z M 117.3125 181.050781 " fill-opacity="1" fill-rule="nonzero"/><path fill="#000000" d="M 110.96875 183.726562 C 110.792969 183.726562 110.648438 183.585938 110.648438 183.410156 C 110.648438 183.234375 110.792969 183.089844 110.96875 183.089844 C 113.386719 183.089844 116.238281 183.050781 119.03125 182.800781 C 119.253906 182.785156 119.363281 182.914062 119.378906 183.085938 C 119.394531 183.261719 119.261719 183.417969 119.089844 183.433594 C 116.269531 183.6875 113.402344 183.722656 110.96875 183.726562 Z M 110.96875 183.726562 " fill-opacity="1" fill-rule="nonzero"/><path fill="#000000" d="M 83.027344 127.914062 C 83.027344 128.199219 82.960938 128.476562 82.828125 128.738281 C 82.695312 129.003906 82.507812 129.238281 82.261719 129.4375 C 82.015625 129.640625 81.730469 129.796875 81.410156 129.90625 C 81.089844 130.015625 80.753906 130.070312 80.40625 130.070312 C 80.058594 130.070312 79.722656 130.015625 79.402344 129.90625 C 79.082031 129.796875 78.796875 129.640625 78.554688 129.4375 C 78.308594 129.238281 78.117188 129.003906 77.984375 128.738281 C 77.851562 128.476562 77.785156 128.199219 77.785156 127.914062 C 77.785156 127.628906 77.851562 127.351562 77.984375 127.089844 C 78.117188 126.824219 78.308594 126.589844 78.554688 126.386719 C 78.796875 126.1875 79.082031 126.03125 79.402344 125.921875 C 79.722656 125.8125 80.058594 125.757812 80.40625 125.757812 C 80.753906 125.757812 81.089844 125.8125 81.410156 125.921875 C 81.730469 126.03125 82.015625 126.1875 82.261719 126.386719 C 82.507812 126.589844 82.695312 126.824219 82.828125 127.089844 C 82.960938 127.351562 83.027344 127.628906 83.027344 127.914062 Z M 83.027344 127.914062 " fill-opacity="1" fill-rule="nonzero"/><path fill="#000000" d="M 132.246094 41.441406 C 132.128906 41.441406 132.015625 41.378906 131.960938 41.269531 C 131.882812 41.109375 131.945312 40.917969 132.101562 40.839844 C 132.894531 40.4375 133.882812 39.9375 134.128906 39.039062 C 134.261719 38.539062 133.96875 37.945312 133.710938 37.417969 L 133.636719 37.261719 C 132.957031 35.855469 132.210938 34.441406 131.421875 33.050781 C 131.335938 32.898438 131.386719 32.707031 131.539062 32.617188 C 131.6875 32.53125 131.886719 32.585938 131.972656 32.738281 C 132.769531 34.140625 133.519531 35.566406 134.207031 36.984375 L 134.28125 37.136719 C 134.578125 37.734375 134.941406 38.472656 134.742188 39.207031 C 134.421875 40.378906 133.246094 40.972656 132.390625 41.410156 C 132.34375 41.433594 132.292969 41.441406 132.246094 41.441406 Z M 132.246094 41.441406 " fill-opacity="1" fill-rule="nonzero"/><path fill="#000000" d="M 76.1875 106.738281 C 76.046875 106.738281 75.921875 106.644531 75.882812 106.503906 C 75.652344 105.667969 75.097656 105.148438 74.324219 105.042969 C 74.148438 105.019531 74.027344 104.859375 74.050781 104.683594 C 74.074219 104.511719 74.234375 104.390625 74.410156 104.414062 C 75.4375 104.554688 76.199219 105.257812 76.496094 106.335938 C 76.542969 106.503906 76.445312 106.679688 76.273438 106.726562 C 76.246094 106.734375 76.214844 106.738281 76.1875 106.738281 Z M 76.1875 106.738281 " fill-opacity="1" fill-rule="nonzero"/><path fill="#000000" d="M 77.089844 106.070312 C 76.96875 106.070312 76.855469 106.003906 76.800781 105.886719 L 76.695312 105.652344 C 76.363281 104.925781 76.035156 104.203125 75.730469 103.460938 C 75.664062 103.296875 75.738281 103.113281 75.902344 103.046875 C 76.070312 102.980469 76.25 103.058594 76.320312 103.21875 C 76.621094 103.957031 76.945312 104.667969 77.273438 105.390625 L 77.378906 105.621094 C 77.453125 105.78125 77.382812 105.96875 77.222656 106.042969 C 77.179688 106.0625 77.132812 106.070312 77.089844 106.070312 Z M 77.089844 106.070312 " fill-opacity="1" fill-rule="nonzero"/><path fill="#000000" d="M 114.511719 50.066406 C 117.917969 54.554688 128.203125 60.023438 133.503906 56.503906 C 133.503906 56.503906 127.203125 60.082031 115.007812 48.632812 C 115.007812 48.632812 113.894531 49.253906 114.511719 50.066406 Z M 114.511719 50.066406 " fill-opacity="1" fill-rule="evenodd"/><path fill="#000000" d="M 131.128906 46.527344 C 129.808594 46.527344 127.253906 45.609375 127.144531 45.570312 C 126.980469 45.511719 126.894531 45.328125 126.953125 45.164062 C 127.011719 45 127.195312 44.914062 127.359375 44.972656 C 127.386719 44.980469 129.917969 45.890625 131.128906 45.890625 C 132.339844 45.890625 134.726562 45.570312 135.015625 45.445312 C 135.375 45.296875 137.347656 44.613281 137.433594 44.585938 C 137.601562 44.527344 137.78125 44.617188 137.835938 44.78125 C 137.894531 44.949219 137.804688 45.128906 137.640625 45.1875 C 136.9375 45.429688 135.535156 45.917969 135.261719 46.03125 C 134.839844 46.210938 132.382812 46.527344 131.128906 46.527344 Z M 131.128906 46.527344 " fill-opacity="1" fill-rule="nonzero"/></svg>