<svg width="257" height="308" viewBox="0 0 257 308" fill="none" xmlns="http://www.w3.org/2000/svg">
<mask id="mask0_211_49" style="mask-type:luminance" maskUnits="userSpaceOnUse" x="0" y="0" width="257" height="308">
<path d="M0 0H256.26V308H0V0Z" fill="white"/>
</mask>
<g mask="url(#mask0_211_49)">
<path d="M250.87 186.786C248.797 189.599 240.542 198.995 237.125 198.255C235.875 197.984 233.474 196.583 230.937 194.917C231.292 194.089 231.474 193.62 231.474 193.62C231.474 193.62 221.203 187.115 214.276 181.646C207.385 176.198 199.401 169.823 191.427 164.448C209.125 163.828 235.453 169.432 235.453 169.432C238.682 157.339 234.906 142.516 231.63 133.109C235.917 131.891 242.365 130.229 245.734 130.193C251.062 130.135 252.234 129.786 252.589 128.411C252.943 127.031 248.594 118.396 247.214 108.62L245.406 102.536C245.406 102.536 240.781 102.385 241.052 105.87C241.323 109.354 241.219 121.859 238.151 123.536C236.698 124.328 232.557 124.948 228.604 125.38C228.156 124.359 227.885 123.797 227.885 123.797C227.885 123.797 215.802 125.677 207.078 126.984C188.37 129.786 163.047 133.297 152.714 142.839C150.401 144.979 147.661 147.729 144.682 150.849C135.375 146.583 122.906 144.115 106.995 143.37C106.984 141.052 105.354 140.531 105.354 140.531C106.089 137.839 103.724 136.448 103.724 136.448C103.641 133.099 100.292 132.938 100.292 132.938C99.9687 128.448 96.2135 129.427 96.2135 129.427V121.286C96.2135 120.51 95.5781 119.875 94.8021 119.875H92.3958C91.6198 119.875 90.9844 120.51 90.9844 121.286V135.182C90.7448 135.161 90.4791 135.167 90.1719 135.224C88.7187 135.49 88.4948 139.49 88.8958 143.385C78.526 144.031 70.2187 145.896 63.5573 148.448C63.4896 147.984 63.4166 147.51 63.3333 147.031C64.5937 146.021 66.5364 144.234 66.0885 143.224C65.6094 142.141 63.0052 140.573 61.6614 139.823C60.8177 136.833 59.8489 134.036 58.9844 131.896C59.6927 131.531 60.3594 130.734 60.8125 129.182C62.3333 123.958 52.9739 117.865 44.9166 119.604C44.9166 119.604 44.9166 115.688 41.6562 116.557C39.3125 117.182 34.5052 122.844 31.9739 126C29.9687 123.573 24.0052 118.021 15.0937 123.958C4.47914 131.036 15.5677 150.266 26.8385 146.016C31.151 153.755 39.2135 160.797 39.8698 161.365C40.5573 162.49 41.2708 163.667 41.9531 164.792C41.8073 165.01 41.6562 165.234 41.5208 165.453C41.4843 165.505 41.4687 165.568 41.4635 165.63C39.3646 163.87 36.8854 162.542 34.0312 161.661C25.5 159.036 15.9583 161.406 9.13539 167.839C-5.60941 181.75 0.880177 193.25 9.09893 207.807C15.151 218.531 22.0104 230.682 22.5781 246.911C23.0521 260.531 27.1354 270.5 34.7187 276.547C41.4739 281.932 49.6041 282.969 54.8541 282.969C55.9896 282.969 56.9896 282.922 57.8073 282.859C57.5156 284.375 56.5781 289.359 55.9739 294.406C54.6302 305.589 56.0052 307.349 57.151 307.698C58.0312 307.964 58.9219 308.083 59.7969 308.083C62.8802 308.083 65.7135 306.583 66.7708 304.734C68.0781 302.448 75.776 283.135 76.1041 282.313C76.1041 282.307 76.1041 282.302 76.1041 282.302C90.0052 282.099 111.208 281.87 132.24 281.974C133.026 283.974 140.302 302.526 141.568 304.734C142.625 306.583 145.458 308.089 148.542 308.083C149.417 308.083 150.307 307.964 151.187 307.698C152.339 307.349 153.698 305.552 152.245 294.047C151.573 288.734 150.552 283.469 150.266 282.047C162.844 281.708 170.99 279.302 175.687 274.568C181.562 268.646 181.391 259.875 181.187 249.714C181.151 247.844 181.115 245.911 181.115 243.958C181.115 233.396 185.818 223.99 189.969 215.688C190.307 215.016 190.635 214.359 190.958 213.703C197.703 223.057 202.74 231.385 202.74 231.385C214.198 225.234 222.891 211.141 227.583 202.016C231.458 203.87 236.266 206.354 238.505 208.25C242.573 211.693 243.687 212.198 244.859 211.385C246.026 210.573 248.385 201.198 253.734 192.901L256.349 187.115C256.349 187.115 252.943 183.974 250.87 186.786ZM71.8021 223.224C83.2291 230.078 103.474 229.099 103.474 229.099C121.995 233.193 136.896 213.214 148.687 199.693C146.953 207.406 145.781 215.198 145.047 221.125C144.396 226.37 139.917 230.323 134.63 230.323H64.9791C59.3281 230.323 54.7187 225.901 54.4896 220.255C54.3073 215.734 53.9739 209.917 53.3854 203.771C59.0416 211.667 66.0416 219.766 71.8021 223.224ZM110.979 188.979C109.62 190.37 108.437 191.604 107.469 192.625C110.266 177.484 102.01 155.682 102.01 155.682C102.172 152.802 106.307 147.036 106.911 144.198C123.891 145 135.74 147.755 144.078 151.484C133.094 163.057 119.089 179.385 110.979 188.979ZM88.9896 144.208C89.0677 144.849 89.1614 145.479 89.2708 146.083C90.0885 150.573 94.9271 158.281 94.9271 158.281C94.9271 158.281 95.8698 187.813 91.1458 189.938C90.8437 190.073 90.4635 190.083 90.0052 189.995C88.6198 189.042 87.5677 188.026 87.151 186.979C85.1927 182.078 82.5781 172.938 62.0052 168.042L61.0729 168C61.0885 167.995 61.1041 167.984 61.1198 167.974L55.9479 160.531C59.625 160.125 62.4323 158.964 63.1927 157.224C64.0052 155.37 64.0573 152.51 63.6666 149.292C70.2969 146.724 78.5937 144.854 88.9896 144.208ZM42.2135 165.891C42.2812 165.786 42.3593 165.677 42.4271 165.568C43.0416 166.578 43.6093 167.51 44.0885 168.302C43.4375 167.5 42.7291 166.755 41.9687 166.068C42.0677 166.042 42.1562 165.984 42.2135 165.891ZM66.0573 304.323C64.8541 306.427 61 308.01 57.3906 306.911C56.0833 306.51 55.2864 299.604 58.6614 282.781C59.5469 282.693 60.1094 282.599 60.2552 282.573C60.75 282.563 66.4166 282.443 75.2187 282.313C74.2187 284.813 67.25 302.24 66.0573 304.323ZM150.948 306.911C147.339 308.01 143.484 306.427 142.281 304.323C141.109 302.276 134.307 284.99 133.125 281.979C137.255 282 141.38 282.031 145.432 282.083C146.818 282.099 148.141 282.089 149.432 282.063C152.99 299.411 152.255 306.516 150.948 306.911ZM189.234 215.318C185.042 223.703 180.292 233.203 180.292 243.958C180.292 245.922 180.328 247.859 180.365 249.729C180.562 259.703 180.734 268.318 175.104 273.99C169.995 279.135 160.578 281.448 145.443 281.26C106.219 280.776 60.6562 281.74 60.2031 281.75C60.1823 281.75 60.1562 281.755 60.1354 281.755C59.9948 281.786 45.8385 284.37 35.2291 275.901C27.8437 270.01 23.8646 260.245 23.401 246.88C22.8229 230.453 15.9114 218.208 9.81247 207.401C1.4583 192.599 -4.57816 181.906 9.69789 168.438C14.5312 163.885 20.7552 161.432 26.9791 161.432C29.276 161.432 31.5677 161.766 33.7864 162.448C38.6875 163.953 42.4427 166.833 44.9948 171.021C43.9114 175.214 42.4218 182.005 43.0677 185.672C43.526 188.266 47.3333 195.135 52.4271 202.417C53.0989 209.063 53.4687 215.427 53.6666 220.292C53.9166 226.375 58.8854 231.146 64.9791 231.146H134.63C140.333 231.146 145.161 226.88 145.865 221.229C146.573 215.536 147.844 206.896 149.854 198.365C155.448 192.063 160.323 187.5 164.536 188.12C171.667 189.177 182.208 201.661 190.411 212.953C190.026 213.729 189.635 214.516 189.234 215.318ZM100.646 76.2865H150.281V122.219H126.771L120.021 130.271L117.844 122L100.646 121.563V76.2865ZM17.0104 69.2292H54.2239C54.3958 69.2292 54.5312 69.0885 54.5312 68.9167V31.7083C54.5312 31.5365 54.3958 31.3958 54.2239 31.3958H17.0104C16.8385 31.3958 16.7031 31.5365 16.7031 31.7083V68.9167C16.7031 69.0885 16.8385 69.2292 17.0104 69.2292ZM17.3229 32.0208H53.9114V68.6042H17.3229V32.0208ZM49.625 36.0729H21.6093C21.4791 36.0729 21.375 36.1771 21.375 36.3073V64.3177C21.375 64.4479 21.4791 64.5521 21.6093 64.5521H49.625C49.7552 64.5521 49.8594 64.4479 49.8594 64.3177V36.3073C49.8594 36.1771 49.7552 36.0729 49.625 36.0729ZM49.3906 64.0833H21.8437V36.5417H49.3906V64.0833ZM105.365 56.3594C120.906 56.3594 133.547 43.7188 133.547 28.1823C133.547 12.6406 120.906 0 105.365 0C89.8281 0 77.1875 12.6406 77.1875 28.1823C77.1875 43.7188 89.8281 56.3594 105.365 56.3594ZM105.365 0.625C120.562 0.625 132.922 12.9844 132.922 28.1823C132.922 43.375 120.562 55.7396 105.365 55.7396C90.1719 55.7396 77.8073 43.375 77.8073 28.1823C77.8073 12.9844 90.1719 0.625 105.365 0.625ZM103.776 33.2344V13.7865C103.776 13.6146 103.917 13.474 104.089 13.474C104.26 13.474 104.401 13.6146 104.401 13.7865V32.9219H121.083C121.255 32.9219 121.396 33.0625 121.396 33.2344C121.396 33.4063 121.255 33.5469 121.083 33.5469H104.089C103.917 33.5469 103.776 33.4063 103.776 33.2344Z" fill="#0E947A"/>
</g>
<path d="M235.453 169.432C238.682 157.339 234.906 142.516 231.63 133.109C230.432 129.677 229.307 126.974 228.604 125.38C228.156 124.359 227.885 123.797 227.885 123.797C227.885 123.797 215.802 125.677 207.078 126.984C188.37 129.786 163.047 133.297 152.713 142.839C150.401 144.979 147.661 147.729 144.682 150.849C144.484 151.057 144.281 151.271 144.078 151.484C133.094 163.057 119.088 179.385 110.979 188.979C115.094 184.776 120.818 179.161 127.167 173.63C136.719 165.297 145.01 159.401 151.974 155.969C152.245 155.839 152.51 155.708 152.776 155.583C157.734 153.245 162 152.193 165.547 152.448C171.812 152.896 179.75 156.307 189.818 162.885C190.005 163.01 190.057 163.266 189.937 163.453L189.932 163.458C189.807 163.646 189.557 163.698 189.365 163.573C179.417 157.078 171.609 153.703 165.49 153.266C161.995 153.016 157.906 154.141 153.536 156.167C153.276 156.292 153.01 156.417 152.745 156.547C135.338 164.979 113.776 187.109 107.135 194.188C106.542 196.594 105.635 198.792 104.323 200.661C103.474 201.87 102.458 202.938 101.25 203.828C99.0572 214.635 103.474 229.099 103.474 229.099C121.995 233.193 136.896 213.214 148.687 199.693C149.078 199.245 149.469 198.802 149.854 198.365C155.448 192.063 160.323 187.5 164.536 188.12C171.667 189.177 182.208 201.661 190.411 212.953C190.594 213.203 190.776 213.453 190.958 213.703C197.703 223.057 202.74 231.385 202.74 231.385C214.198 225.234 222.891 211.141 227.583 202.016C229.187 198.896 230.323 196.359 230.937 194.917C231.292 194.089 231.474 193.62 231.474 193.62C231.474 193.62 221.203 187.115 214.276 181.646C207.385 176.198 199.401 169.823 191.427 164.448C209.125 163.828 235.453 169.432 235.453 169.432ZM162.823 185.714C162.771 185.891 162.604 186.005 162.432 186.005C162.391 186.005 162.349 186 162.307 185.984C162.088 185.922 161.969 185.688 162.036 185.474C162.484 184.026 162.724 182.453 162.823 180.896C163.083 176.979 162.49 173.219 162.292 172.115C162.255 171.917 162.234 171.802 162.229 171.792C162.187 171.568 162.328 171.354 162.552 171.307C162.776 171.26 162.995 171.406 163.036 171.625L163.047 171.688C163.156 172.229 163.854 175.953 163.698 180.104C163.625 181.974 163.38 183.927 162.823 185.714Z" fill="#E66888"/>
<path d="M101.25 203.828C100.573 204.333 99.8333 204.781 99.026 205.172C98.7708 205.297 98.5052 205.417 98.2344 205.526C90.8542 208.552 81.9739 207.469 73.7187 204.49C76.9114 200.385 82.2604 192.552 82.5677 185.813C85.7396 188.005 88.3542 189.677 90.0052 189.995C88.6198 189.042 87.5677 188.026 87.151 186.979C85.1927 182.078 82.5781 172.938 62.0052 168.042L61.0729 168C56.4427 170.953 47.0573 170.385 45.4948 170.266C45.3489 170.255 45.2656 170.25 45.2656 170.25L45.2187 170.172C45.1458 170.438 45.0729 170.719 44.9948 171.021C43.9114 175.214 42.4219 182.005 43.0677 185.672C43.526 188.266 47.3333 195.135 52.4271 202.417C52.7396 202.87 53.0625 203.323 53.3854 203.771C59.0417 211.667 66.0417 219.766 71.8021 223.224C83.2292 230.078 103.474 229.099 103.474 229.099C103.474 229.099 99.0573 214.635 101.25 203.828ZM71.8333 204.073C71.776 204.073 71.7187 204.063 71.6666 204.036C71.0156 203.755 57.3281 197.677 51.8177 191.24C51.4114 190.766 51.0573 190.297 50.75 189.823L50.7448 189.818C50.5312 189.49 50.3385 189.161 50.1771 188.839C48.9219 186.271 48.75 183.828 49.0573 181.729C49.151 181.109 49.2812 180.526 49.4375 179.974C50.2864 177.031 51.8906 175.104 51.9166 175.068C52.0625 174.896 52.3229 174.875 52.5 175.021C52.6719 175.167 52.6927 175.427 52.5469 175.599C52.5104 175.641 50.4687 178.109 49.8958 181.693C49.6927 182.964 49.6771 184.37 50 185.859C50.0104 185.896 50.0156 185.932 50.026 185.969C50.2135 186.786 50.5 187.625 50.9166 188.474C51.0833 188.818 51.2969 189.161 51.526 189.51C56.0208 196.198 71.8281 203.214 71.9948 203.286C72.2031 203.375 72.3021 203.62 72.2083 203.828C72.1979 203.854 72.1667 203.87 72.151 203.896C72.0729 204 71.9583 204.073 71.8333 204.073ZM81.3177 183.828C81.401 183.865 81.4635 183.922 81.5104 183.995C81.5781 184.099 81.6041 184.234 81.5573 184.359C81.4948 184.526 81.3385 184.625 81.1719 184.625C81.125 184.625 81.0729 184.62 81.026 184.599C80.901 184.552 80.7448 184.49 80.5729 184.417C77.3229 183.052 65.8802 177.333 65.3698 177.078C65.1666 176.979 65.0833 176.729 65.1875 176.526C65.2864 176.323 65.5364 176.245 65.7396 176.344C65.8281 176.391 72.1146 179.531 76.7708 181.76C78.7864 182.724 80.4896 183.51 81.2604 183.807C81.276 183.813 81.2969 183.823 81.3177 183.828ZM90.9844 135.182V121.286C90.9844 120.51 91.6198 119.875 92.3958 119.875H94.8021C95.5781 119.875 96.2135 120.51 96.2135 121.286V144.531C95.4687 144.531 94.8802 144.323 94.4114 143.984C94.1146 143.771 93.8594 143.5 93.651 143.188C92.5104 141.479 92.6198 138.625 92.6198 137.51C92.6198 136.156 92.1614 135.266 90.9844 135.182Z" fill="#99B9BE"/>
<mask id="mask1_211_49" style="mask-type:luminance" maskUnits="userSpaceOnUse" x="37" y="101" width="220" height="112">
<path d="M37.3333 101.599H256.26V212.266H37.3333V101.599Z" fill="white"/>
</mask>
<g mask="url(#mask1_211_49)">
<path d="M231.63 133.109C230.432 129.677 229.307 126.974 228.604 125.38C232.557 124.948 236.698 124.328 238.151 123.536C241.219 121.859 241.323 109.354 241.052 105.87C240.781 102.385 245.406 102.536 245.406 102.536L247.214 108.62C248.594 118.396 252.943 127.031 252.589 128.411C252.234 129.786 251.062 130.135 245.734 130.193C242.365 130.229 235.917 131.891 231.63 133.109ZM250.87 186.786C248.797 189.599 240.542 198.995 237.125 198.255C235.875 197.984 233.474 196.583 230.937 194.917C230.323 196.359 229.187 198.896 227.583 202.016C231.458 203.87 236.266 206.354 238.505 208.25C242.573 211.693 243.687 212.198 244.859 211.385C246.026 210.573 248.385 201.198 253.734 192.901L256.349 187.114C256.349 187.114 252.943 183.974 250.87 186.786ZM106.911 144.198C106.948 144.026 106.979 143.859 106.984 143.713C106.995 143.594 106.995 143.484 106.995 143.37C106.984 141.052 105.354 140.531 105.354 140.531C106.088 137.838 103.724 136.448 103.724 136.448C103.641 133.099 100.292 132.937 100.292 132.937C99.9687 128.448 96.2135 129.427 96.2135 129.427V144.531C95.4687 144.531 94.8802 144.323 94.4114 143.984C94.1145 143.771 93.8593 143.5 93.651 143.187C92.5104 141.479 92.6197 138.625 92.6197 137.51C92.6197 136.156 92.1614 135.266 90.9843 135.182C90.7447 135.161 90.4791 135.167 90.1718 135.224C88.7187 135.489 88.4947 139.489 88.8958 143.385C88.9218 143.661 88.9531 143.937 88.9895 144.208C89.0677 144.849 89.1614 145.479 89.2708 146.083C90.0885 150.573 94.927 158.281 94.927 158.281C94.927 158.281 95.8697 187.812 91.1458 189.937C90.8437 190.073 90.4635 190.083 90.0052 189.995C88.3541 189.677 85.7395 188.005 82.5677 185.812C82.2604 192.552 76.9114 200.385 73.7187 204.489C81.9739 207.469 90.8541 208.552 98.2343 205.526C98.5052 205.417 98.7708 205.297 99.026 205.172C99.8333 204.781 100.573 204.333 101.25 203.828C102.458 202.937 103.474 201.87 104.323 200.661C105.635 198.792 106.542 196.594 107.135 194.187C107.198 193.917 107.26 193.651 107.323 193.38C107.323 193.354 107.328 193.333 107.333 193.307C107.38 193.083 107.427 192.854 107.469 192.625C110.266 177.484 102.01 155.682 102.01 155.682C102.172 152.802 106.307 147.036 106.911 144.198ZM66.0885 143.224C66.5364 144.234 64.5937 146.021 63.3333 147.031C63.4166 147.51 63.4895 147.984 63.5572 148.448C63.5937 148.734 63.6354 149.016 63.6666 149.292C64.0572 152.51 64.0052 155.37 63.1927 157.224C62.4322 158.963 59.625 160.125 55.9479 160.531L61.1197 167.974C61.1041 167.984 61.0885 167.995 61.0729 168C56.4427 170.953 47.0572 170.385 45.4947 170.266C45.3489 170.255 45.2656 170.25 45.2656 170.25L45.2187 170.172C44.9739 169.766 44.5781 169.114 44.0885 168.302C43.6093 167.51 43.0416 166.578 42.427 165.568C42.2708 165.312 42.1145 165.052 41.9531 164.792C41.2708 163.667 40.5572 162.489 39.8697 161.364L39.9114 161.401C39.9114 161.401 40.8802 160.625 41.6718 158.625C42.0989 157.552 42.4739 156.125 42.625 154.281C42.6302 154.229 42.6302 154.182 42.6354 154.13C38.2552 154.458 36.3697 147.932 38.1718 145.729C39.3645 144.266 40.7604 144.469 41.6666 144.844C41.2187 142.458 40.8854 138.318 43.6145 136.802C43.6145 136.802 59.2864 137.021 55.3697 131.141C55.3697 131.141 57.302 132.755 58.9843 131.896C59.8489 134.036 60.8177 136.833 61.6614 139.823C63.0052 140.573 65.6093 142.141 66.0885 143.224ZM58.6197 139.786C57.9114 139.927 57.5052 140.875 57.7083 141.906C57.9062 142.937 58.6458 143.661 59.3541 143.526C60.0625 143.385 60.4739 142.437 60.2708 141.401C60.0677 140.37 59.3281 139.646 58.6197 139.786ZM54.302 140.094C54.3697 140.114 54.4322 140.125 54.4947 140.125C54.7187 140.125 54.927 139.989 55.0104 139.771C55.8697 137.474 58.302 136.854 58.3281 136.844C58.6197 136.776 58.802 136.479 58.7291 136.182C58.6614 135.891 58.3645 135.708 58.0677 135.781C57.9479 135.807 55.052 136.531 53.9843 139.385C53.875 139.667 54.0208 139.984 54.302 140.094ZM54.2083 160.661C54.2656 160.604 54.3072 160.531 54.3229 160.448C54.3593 160.224 54.2083 160.01 53.9843 159.974C52.0468 159.651 50.276 158.823 48.927 158.036C48.6666 157.88 48.4166 157.729 48.1927 157.583C47.1041 156.88 46.4427 156.307 46.4322 156.292C46.2604 156.141 46 156.156 45.8489 156.328C45.6979 156.5 45.7135 156.76 45.8854 156.911C45.9427 156.963 46.5677 157.5 47.5677 158.167C47.7916 158.312 48.026 158.463 48.2864 158.62C49.6041 159.417 51.3697 160.271 53.3437 160.682C53.5104 160.719 53.677 160.755 53.8489 160.786C53.8697 160.786 53.8958 160.792 53.9166 160.792C54.0312 160.792 54.1302 160.739 54.2083 160.661ZM59.2656 150.281C59.2187 150.281 59.1666 150.276 59.1197 150.271C58.9114 150.245 58.7291 150.38 58.677 150.578C58.6718 150.594 58.6614 150.609 58.6614 150.63C58.6354 150.854 58.7916 151.062 59.0208 151.088C59.151 151.104 59.302 151.109 59.4479 151.109C59.4739 151.109 59.4947 151.114 59.5208 151.114C60.9791 151.114 63.052 150.557 63.151 150.531C63.3697 150.474 63.5 150.245 63.4375 150.026C63.3802 149.807 63.1562 149.677 62.9322 149.739C62.9218 149.739 62.552 149.838 62.026 149.953C61.2187 150.13 60.0572 150.333 59.2656 150.281Z" fill="#C56863"/>
</g>
<path d="M189.938 163.453L189.932 163.458C189.807 163.646 189.557 163.698 189.365 163.573C179.417 157.078 171.609 153.703 165.49 153.265C161.995 153.015 157.906 154.14 153.536 156.167C153.276 156.292 153.01 156.417 152.745 156.547C135.339 164.979 113.776 187.109 107.135 194.187C107.198 193.917 107.26 193.651 107.323 193.38C107.323 193.354 107.328 193.333 107.333 193.307C107.38 193.083 107.427 192.854 107.469 192.625C108.437 191.604 109.62 190.37 110.979 188.979C115.094 184.776 120.818 179.161 127.167 173.63C136.719 165.297 145.01 159.401 151.974 155.969C152.245 155.838 152.51 155.708 152.776 155.583C157.734 153.245 162 152.193 165.547 152.448C171.812 152.896 179.75 156.307 189.818 162.885C190.005 163.01 190.057 163.265 189.938 163.453ZM55.3698 131.14C55.3698 131.14 57.3021 132.755 58.9844 131.896C59.6927 131.531 60.3594 130.734 60.8125 129.182C62.3333 123.958 52.974 117.864 44.9167 119.604C44.9167 119.604 44.9167 115.687 41.6562 116.557C39.3125 117.182 34.5052 122.844 31.974 126C29.9687 123.573 24.0052 118.021 15.0937 123.958C4.47916 131.036 15.5677 150.265 26.8385 146.015C31.151 153.755 39.2135 160.802 39.8698 161.364L39.9115 161.401C39.9115 161.401 40.8802 160.625 41.6719 158.625C42.099 157.552 42.474 156.125 42.625 154.281C42.6302 154.229 42.6302 154.182 42.6354 154.13C38.2552 154.458 36.3698 147.932 38.1719 145.729C39.3646 144.265 40.7604 144.469 41.6667 144.844C41.2187 142.458 40.8854 138.318 43.6146 136.802C43.6146 136.802 59.2865 137.021 55.3698 131.14ZM59.2656 150.281C59.2187 150.281 59.1667 150.276 59.1198 150.271C58.9115 150.245 58.7292 150.38 58.6771 150.578C58.6719 150.594 58.6615 150.609 58.6615 150.63C58.6354 150.854 58.7917 151.062 59.0208 151.088C59.151 151.104 59.3021 151.109 59.4479 151.109C59.474 151.109 59.4948 151.114 59.5208 151.114C60.9792 151.114 63.0521 150.557 63.151 150.531C63.3698 150.474 63.5 150.245 63.4375 150.026C63.3802 149.807 63.1562 149.677 62.9323 149.739C62.9219 149.739 62.5521 149.838 62.026 149.953C61.2187 150.13 60.0573 150.333 59.2656 150.281ZM59.3542 143.526C60.0625 143.385 60.474 142.437 60.2708 141.401C60.0677 140.37 59.3281 139.646 58.6198 139.786C57.9115 139.927 57.5052 140.875 57.7083 141.906C57.9062 142.937 58.6458 143.661 59.3542 143.526ZM58.7292 136.182C58.6615 135.89 58.3646 135.708 58.0677 135.781C57.9479 135.807 55.0521 136.531 53.9844 139.385C53.875 139.667 54.0208 139.984 54.3021 140.094C54.3698 140.114 54.4323 140.125 54.4948 140.125C54.7187 140.125 54.9271 139.989 55.0104 139.771C55.8698 137.474 58.3021 136.854 58.3281 136.844C58.6198 136.776 58.8021 136.479 58.7292 136.182ZM137.76 113.943H112.401L116.427 94.0259H120.406C120.484 91.7498 120.917 87.1873 123.073 85.229C123.927 84.453 124.948 84.1353 126.109 84.2863C130.568 84.854 131.073 90.9686 131.042 94.0259H134.385L137.76 113.943ZM122.052 94.0259H129.391C129.401 93.1248 129.365 91.9269 129.177 90.7238C128.714 87.7551 127.609 86.1353 125.901 85.9165C125.219 85.828 124.677 85.9998 124.182 86.4478C122.604 87.8748 122.135 91.6769 122.052 94.0259ZM71.9948 203.286C71.8281 203.213 56.0208 196.198 51.526 189.51C51.2969 189.161 51.0833 188.818 50.9167 188.474C50.5 187.625 50.2135 186.786 50.026 185.969C50.0156 185.932 50.0104 185.896 50 185.859C49.6771 184.37 49.6927 182.963 49.8958 181.693C50.4687 178.109 52.5104 175.64 52.5469 175.599C52.6927 175.427 52.6719 175.167 52.5 175.021C52.3229 174.875 52.0625 174.896 51.9167 175.068C51.8906 175.104 50.2865 177.031 49.4375 179.974C49.2812 180.526 49.1458 181.109 49.0573 181.729C48.75 183.828 48.9219 186.271 50.1771 188.838C50.3385 189.161 50.5312 189.489 50.7448 189.818L50.75 189.823C51.0573 190.297 51.4115 190.765 51.8177 191.239C57.3281 197.677 71.0156 203.755 71.6667 204.036C71.7187 204.062 71.776 204.073 71.8333 204.073C71.9583 204.073 72.0729 204 72.151 203.896C72.1667 203.87 72.1979 203.854 72.2083 203.828C72.3021 203.62 72.2031 203.375 71.9948 203.286ZM81.3177 183.828C81.2969 183.823 81.276 183.812 81.2604 183.807C80.4896 183.51 78.7865 182.724 76.7708 181.76C72.1146 179.531 65.8281 176.39 65.7396 176.344C65.5365 176.245 65.2865 176.323 65.1875 176.526C65.0833 176.729 65.1667 176.979 65.3698 177.078C65.8802 177.333 77.3229 183.052 80.5729 184.417C80.7448 184.489 80.901 184.552 81.026 184.599C81.0729 184.62 81.125 184.625 81.1719 184.625C81.3385 184.625 81.4948 184.526 81.5573 184.359C81.6042 184.234 81.5781 184.099 81.5104 183.995C81.4635 183.922 81.401 183.864 81.3177 183.828ZM163.036 171.625C162.995 171.406 162.776 171.26 162.552 171.307C162.328 171.354 162.187 171.568 162.229 171.792C162.234 171.802 162.255 171.917 162.292 172.114C162.49 173.219 163.083 176.979 162.823 180.896C162.724 182.453 162.484 184.026 162.036 185.474C161.969 185.687 162.089 185.922 162.307 185.984C162.349 186 162.391 186.005 162.432 186.005C162.604 186.005 162.771 185.89 162.823 185.713C163.38 183.927 163.625 181.974 163.698 180.104C163.854 175.953 163.156 172.229 163.047 171.687L163.036 171.625ZM53.849 160.786C53.8698 160.786 53.8958 160.792 53.9167 160.792C54.0312 160.792 54.1302 160.739 54.2083 160.661C54.2656 160.604 54.3073 160.531 54.3229 160.448C54.3594 160.224 54.2083 160.01 53.9844 159.974C52.0469 159.651 50.276 158.823 48.9271 158.036C48.6667 157.88 48.4167 157.729 48.1927 157.583C47.1042 156.88 46.4427 156.307 46.4323 156.292C46.2604 156.14 46 156.156 45.849 156.328C45.6979 156.5 45.7135 156.76 45.8854 156.911C45.9427 156.963 46.5677 157.5 47.5677 158.167C47.7917 158.312 48.026 158.463 48.2865 158.62C49.6042 159.417 51.3698 160.271 53.3437 160.682C53.5104 160.719 53.6771 160.755 53.849 160.786Z" fill="#504172"/>
<mask id="mask2_211_49" style="mask-type:luminance" maskUnits="userSpaceOnUse" x="0" y="0" width="192" height="308">
<path d="M0 0H192V308H0V0Z" fill="white"/>
</mask>
<g mask="url(#mask2_211_49)">
<path d="M106.995 143.37C122.906 144.115 135.375 146.583 144.682 150.849C144.484 151.057 144.281 151.271 144.078 151.484C135.74 147.755 123.891 145 106.911 144.198C106.948 144.026 106.979 143.859 106.984 143.714C106.995 143.594 106.995 143.484 106.995 143.37ZM88.9896 144.208C88.9531 143.938 88.9218 143.661 88.8958 143.385C78.526 144.031 70.2187 145.896 63.5573 148.448C63.5937 148.734 63.6354 149.016 63.6666 149.292C70.2968 146.724 78.5937 144.854 88.9896 144.208ZM53.3854 203.771C53.0625 203.323 52.7396 202.87 52.4271 202.417C53.0989 209.063 53.4687 215.427 53.6666 220.292C53.9166 226.375 58.8854 231.146 64.9791 231.146H134.63C140.333 231.146 145.161 226.88 145.865 221.229C146.573 215.536 147.844 206.896 149.854 198.365C149.469 198.802 149.078 199.245 148.687 199.693C146.953 207.406 145.781 215.198 145.047 221.125C144.396 226.37 139.917 230.323 134.63 230.323H64.9791C59.3281 230.323 54.7187 225.901 54.4896 220.255C54.3073 215.734 53.9739 209.917 53.3854 203.771ZM189.969 215.688C185.818 223.99 181.115 233.396 181.115 243.958C181.115 245.911 181.151 247.844 181.187 249.714C181.391 259.875 181.562 268.646 175.687 274.568C170.99 279.302 162.844 281.708 150.266 282.047C150.552 283.469 151.573 288.734 152.245 294.047C153.698 305.552 152.339 307.349 151.187 307.698C150.307 307.964 149.417 308.083 148.542 308.083C145.458 308.089 142.625 306.583 141.568 304.734C140.302 302.526 133.026 283.974 132.24 281.974C111.208 281.87 90.0052 282.099 76.1041 282.302C76.1041 282.302 76.1041 282.307 76.1041 282.313C75.776 283.135 68.0781 302.448 66.7708 304.734C65.7135 306.583 62.8802 308.083 59.7968 308.083C58.9218 308.083 58.0312 307.964 57.151 307.698C56.0052 307.349 54.6302 305.589 55.9739 294.406C56.5781 289.359 57.5156 284.375 57.8073 282.859C56.9896 282.922 55.9896 282.969 54.8541 282.969C49.6041 282.969 41.4739 281.932 34.7187 276.547C27.1354 270.5 23.0521 260.531 22.5781 246.911C22.0104 230.682 15.151 218.531 9.09893 207.807C0.880177 193.25 -5.60941 181.75 9.13539 167.839C15.9583 161.406 25.5 159.036 34.0312 161.661C36.8854 162.542 39.3646 163.87 41.4635 165.63C41.4687 165.568 41.4843 165.505 41.5208 165.453C41.6562 165.234 41.8073 165.01 41.9531 164.792C42.1146 165.052 42.2708 165.313 42.4271 165.568C42.3593 165.677 42.2812 165.786 42.2135 165.891C42.1562 165.984 42.0677 166.042 41.9687 166.068C42.7291 166.755 43.4375 167.5 44.0885 168.302C44.5781 169.115 44.9739 169.766 45.2187 170.172C45.1458 170.438 45.0729 170.719 44.9948 171.021C42.4427 166.833 38.6875 163.953 33.7864 162.448C31.5677 161.766 29.276 161.432 26.9791 161.432C20.7552 161.432 14.5312 163.885 9.69789 168.438C-4.57816 181.906 1.4583 192.599 9.81247 207.401C15.9114 218.208 22.8229 230.453 23.401 246.88C23.8646 260.245 27.8437 270.01 35.2291 275.901C45.8385 284.37 59.9948 281.786 60.1354 281.755C60.1562 281.755 60.1823 281.75 60.2031 281.75C60.6562 281.74 106.219 280.776 145.443 281.26C160.578 281.448 169.995 279.135 175.104 273.99C180.734 268.318 180.562 259.703 180.365 249.729C180.328 247.859 180.292 245.922 180.292 243.958C180.292 233.203 185.042 223.703 189.234 215.318C189.635 214.516 190.026 213.729 190.411 212.953C190.594 213.203 190.776 213.453 190.958 213.703C190.635 214.359 190.307 215.016 189.969 215.688ZM75.2187 282.313C66.4166 282.443 60.75 282.563 60.2552 282.573C60.1093 282.599 59.5468 282.693 58.6614 282.781C55.2864 299.604 56.0833 306.51 57.3906 306.911C61 308.01 64.8541 306.427 66.0573 304.323C67.25 302.24 74.2187 284.813 75.2187 282.313ZM149.432 282.063C148.141 282.089 146.818 282.099 145.432 282.083C141.38 282.031 137.255 282 133.125 281.979C134.307 284.99 141.109 302.276 142.281 304.323C143.484 306.427 147.339 308.01 150.948 306.911C152.255 306.516 152.99 299.411 149.432 282.063ZM150.281 122.219H126.771L120.021 130.271L117.844 122L100.646 121.563V76.2865H150.281V122.219ZM137.76 113.943L134.385 94.026H131.042C131.073 90.9688 130.568 84.8542 126.109 84.2865C124.948 84.1354 123.927 84.4531 123.073 85.2292C120.917 87.1875 120.484 91.75 120.406 94.026H116.427L112.401 113.943H137.76ZM125.901 85.9167C125.219 85.8281 124.677 86 124.182 86.4479C122.604 87.875 122.135 91.6771 122.052 94.026H129.391C129.401 93.125 129.365 91.9271 129.177 90.724C128.714 87.7552 127.609 86.1354 125.901 85.9167ZM16.7031 68.9167V31.7083C16.7031 31.5365 16.8385 31.3958 17.0104 31.3958H54.2239C54.3958 31.3958 54.5312 31.5365 54.5312 31.7083V68.9167C54.5312 69.0885 54.3958 69.2292 54.2239 69.2292H17.0104C16.8385 69.2292 16.7031 69.0885 16.7031 68.9167ZM17.3229 68.6042H53.9114V32.0208H17.3229V68.6042ZM49.8593 36.3073V64.3177C49.8593 64.4479 49.7552 64.5521 49.625 64.5521H21.6093C21.4791 64.5521 21.375 64.4479 21.375 64.3177V36.3073C21.375 36.1771 21.4791 36.0729 21.6093 36.0729H49.625C49.7552 36.0729 49.8593 36.1771 49.8593 36.3073ZM49.3906 36.5417H21.8437V64.0833H49.3906V36.5417ZM77.1875 28.1823C77.1875 12.6406 89.8281 0 105.365 0C120.906 0 133.547 12.6406 133.547 28.1823C133.547 43.7188 120.906 56.3594 105.365 56.3594C89.8281 56.3594 77.1875 43.7188 77.1875 28.1823ZM77.8073 28.1823C77.8073 43.375 90.1718 55.7396 105.365 55.7396C120.562 55.7396 132.922 43.375 132.922 28.1823C132.922 12.9844 120.562 0.625 105.365 0.625C90.1718 0.625 77.8073 12.9844 77.8073 28.1823ZM104.089 33.5469H121.083C121.255 33.5469 121.396 33.4063 121.396 33.2344C121.396 33.0625 121.255 32.9219 121.083 32.9219H104.401V13.7865C104.401 13.6146 104.26 13.474 104.089 13.474C103.917 13.474 103.776 13.6146 103.776 13.7865V33.2344C103.776 33.4063 103.917 33.5469 104.089 33.5469Z" fill="#0E947A"/>
</g>
</svg>
